{
.appVersion = "3234";
.formatVersion = 3;
DisplayStrings = (
"MTATVolkswumixNHAVYjzzYSEedargeton kokonokn",
"HHHOOOADJUSTINGkemie@/at.case QUIVER.COM AND BOW, ZOMPYC† KILLED $7 THE FO. Amazingly, C.J. Hquaffed sıix vodkas without burping. BaAc/_corner.caps_diag_xs k ›homenononn/n.ss01 ooonnn after‹ jiving, sheUSA expired (with quizzicality). Bo rocked a £3,500 xylophone, making quiet waves of jazz. Chip required 44% booze to fix my VolkPAagen® Jetta. Cozy sphinx©waves.com quart §28.2 jug of bad milk. Even while I adjust [my expectations hıigher,] you keep NYSE amazing me. I request: be my wife. \"Exquisite farm wench\" gives body* jolt to prize stinker. Five wine¶ experts MTA jokingly quizzed sample; chablis. French wine: ‘Ze bouquet is exceptıional, aqvec just un peu of monkey Hdung.’ GQ Magazine© backers enjoyed; the Pixies’ „Wave of Mutilation.” 


glyphs = (
{
glyphname = A;
kernLeft = A;
kernRight = A;
layers = (
{
anchors = (
{
name = bottom;
pos = (345,0);
},
{
name = ogonek;
pos = (655,0);
},
{
name = top;
pos = (430,687);
}
);
hints = (
{
name = _corner.caps_diag;
origin = (0,4);
scale = (-1,1);
type = Corner;
}
);
layerId = "0CAF3BED-C4AC-4024-B3E1-4C69D1EF7EC0";
shapes = (
{
closed = 1;
nodes = (
(655,0,l,{
"Letterink-NibData" = {
AngleInDegrees = 336.96218;
};
}),
(452,690,l,{
"Letterink-NibData" = {
AngleInDegrees = 270;
};
}),
(402,690,l,{
"Letterink-NibData" = {
AngleInDegrees = 202.82503;
};
}),
(85,75,l,{
"Letterink-NibData" = {
AngleInDegrees = 202.38014;
};
}),
(161,45,l,{
"Letterink-NibData" = {
AngleInDegrees = 22.71999;
};
}),
(266,253,l,{
"Letterink-NibData" = {
AngleInDegrees = 236.57519;
};
}),
(210,210,l,{
"Letterink-NibData" = {
AngleInDegrees = 90;
};
}),
(542,210,l,{
"Letterink-NibData" = {
AngleInDegrees = 303.42481;
};
}),
(498,253,l,{
"Letterink-NibData" = {
AngleInDegrees = 157.34811;
};
}),
(573,0,l,{
"Letterink-NibData" = {
AngleInDegrees = 90;
};
})
);
},
{
closed = 1;
nodes = (
(411,541,l,{
"Letterink-NibData" = {
AngleInDegrees = 8.1301;
};
}),
(420,571,l,{
"Letterink-NibData" = {
AngleInDegrees = 171.8699;
};
}),
(423,541,l,{
"Letterink-NibData" = {
AngleInDegrees = 159.79358;
};
}),
(494,260,l,{
"Letterink-NibData" = {
AngleInDegrees = 35.21759;
};
}),
(518,284,l,{
"Letterink-NibData" = {
AngleInDegrees = 270;
};
}),
(250,284,l,{
"Letterink-NibData" = {
AngleInDegrees = 145.92281;
};
}),
(271,260,l,{
"Letterink-NibData" = {
AngleInDegrees = 20.73026;
};
})
);
}
);
width = 698;
},
{
anchors = (
{
name = bottom;
pos = (354,0);
},
{
name = ogonek;
pos = (646,1);
},
{
name = top;
pos = (436,684);
}
);
hints = (
{
name = _corner.caps_diag;
options = 2;
origin = (0,4);
scale = (-1,1);
type = Corner;
}
);
layerId = "49C16FD3-6177-408B-A733-AEB3898BB77C";
shapes = (
{
closed = 1;
nodes = (
(646,0,l,{
"Letterink-NibData" = {
AngleInDegrees = 337.30364;
};
}),
(443,692,l,{
"Letterink-NibData" = {
AngleInDegrees = 270;
};
}),
(430,692,l,{
"Letterink-NibData" = {
AngleInDegrees = 202.68401;
};
}),
(93,59,l,{
"Letterink-NibData" = {
AngleInDegrees = 202.61986;
};
}),
(127,43,l,{
"Letterink-NibData" = {
AngleInDegrees = 22.1315;
};
}),
(238,251,l,{
"Letterink-NibData" = {
AngleInDegrees = 235.7843;
};
}),
(211,234,l,{
"Letterink-NibData" = {
AngleInDegrees = 90;
};
}),
(552,234,l,{
"Letterink-NibData" = {
AngleInDegrees = 304.2157;
};
}),
(532,251,l,{
"Letterink-NibData" = {
AngleInDegrees = 157.41269;
};
}),
(605,0,l,{
"Letterink-NibData" = {
AngleInDegrees = 90;
};
})
);
},
{
closed = 1;
nodes = (
(414,584,l,{
"Letterink-NibData" = {
AngleInDegrees = 16.29405;
};
}),
(431,627,l,{
"Letterink-NibData" = {
AngleInDegrees = 163.21735;
};
}),
(437,584,l,{
"Letterink-NibData" = {
AngleInDegrees = 158.19859;
};
}),
(530,257,l,{
"Letterink-NibData" = {
AngleInDegrees = 32.90524;
};
}),
(540,270,l,{
"Letterink-NibData" = {
AngleInDegrees = 270;
};
}),
(231,270,l,{
"Letterink-NibData" = {
AngleInDegrees = 147.09476;
};
}),
(241,257,l,{
"Letterink-NibData" = {
AngleInDegrees = 22.09423;
};
})
);
}
);
width = 702;
},
{
anchors = (
{
name = bottom;
pos = (359,-8);
},
{
name = ogonek;
pos = (652,1);
},
{
name = top;
pos = (359,684);
}
);
associatedMasterId = "49C16FD3-6177-408B-A733-AEB3898BB77C";
layerId = "E63F2094-54D6-44F3-A00F-83DE5DFBC8F4";
name = "6 Jan 22, 16:48";
shapes = (
{
closed = 1;
nodes = (
(86,-9,o),
(114,8,o),
(128,42,cs,{
"Letterink-NibData" = {
AngleInDegrees = 22.1315;
};
}),
(213,251,l,{
"Letterink-NibData" = {
AngleInDegrees = 235.7843;
};
}),
(188,234,l,{
"Letterink-NibData" = {
AngleInDegrees = 90;
};
}),
(528,234,l,{
"Letterink-NibData" = {
AngleInDegrees = 304.2157;
};
}),
(503,251,l,{
"Letterink-NibData" = {
AngleInDegrees = 157.41269;
};
}),
(607,1,l,{
"Letterink-NibData" = {
AngleInDegrees = 90;
};
}),
(652,1,l,{
"Letterink-NibData" = {
AngleInDegrees = 337.30364;
};
}),
(363,692,l,{
"Letterink-NibData" = {
AngleInDegrees = 270;
};
}),
(355,692,l,{
"Letterink-NibData" = {
AngleInDegrees = 202.68401;
};
}),
(90,58,ls,{
"Letterink-NibData" = {
AngleInDegrees = 202.61986;
};
}),
(85,46,o),
(70,31,o),
(53,31,cs,{
"Letterink-NibData" = {
AngleInDegrees = 270;
};
}),
(34,31,o),
(18,45,o),
(13,59,c,{
"Letterink-NibData" = {
AngleInDegrees = 261.25384;
};
}),
(-26,53,l,{
"Letterink-NibData" = {
AngleInDegrees = 163.85566;
};
}),
(-15,15,o),
(14,-9,o),
(52,-9,cs,{
"Letterink-NibData" = {
AngleInDegrees = 90;
};
})
);
},
{
closed = 1;
nodes = (
(339,560,l,{
"Letterink-NibData" = {
AngleInDegrees = 16.29405;
};
}),
(358,625,l,{
"Letterink-NibData" = {
AngleInDegrees = 163.21735;
};
}),
(377,562,l,{
"Letterink-NibData" = {
AngleInDegrees = 158.19859;
};
}),
(499,257,l,{
"Letterink-NibData" = {
AngleInDegrees = 32.90524;
};
}),
(510,274,l,{
"Letterink-NibData" = {
AngleInDegrees = 270;
};
}),
(205,274,l,{
"Letterink-NibData" = {
AngleInDegrees = 147.09476;
};
}),
(216,257,l,{
"Letterink-NibData" = {
AngleInDegrees = 22.09423;
};
})
);
}
);
width = 690;
},
{
anchors = (
{
name = bottom;
pos = (414,0);
},
{
name = ogonek;
pos = (742,0);
},
{
name = top;
pos = (484,695);
}
);
hints = (
{
name = _corner.caps_diag;
options = 1;
origin = (0,4);
scale = (-1,1);
type = Corner;
}
);
layerId = m004;
shapes = (
{
closed = 1;
nodes = (
(742,0,l,{
"Letterink-NibData" = {
AngleInDegrees = "337.32254";
};
}),
(544,699,l,{
"Letterink-NibData" = {
AngleInDegrees = "270";
};
}),
(433,699,l,{
"Letterink-NibData" = {
AngleInDegrees = "202.53914";
};
}),
(130,142,l,{
"Letterink-NibData" = {
AngleInDegrees = "90";
};
}),
(272,56,l,{
"Letterink-NibData" = {
AngleInDegrees = "22.65189";
};
}),
(380,257,l,{
"Letterink-NibData" = {
AngleInDegrees = "236.57519";
};
}),
(271,146,l,{
"Letterink-NibData" = {
AngleInDegrees = "90";
};
}),
(581,146,l,{
"Letterink-NibData" = {
AngleInDegrees = "303.42481";
};
}),
(496,257,l,{
"Letterink-NibData" = {
AngleInDegrees = "156.96496";
};
}),
(566,0,l,{
"Letterink-NibData" = {
AngleInDegrees = "90";
};
})
);
},
{
closed = 1;
nodes = (
(496,484,l,{
"Letterink-NibData" = {
AngleInDegrees = "19.98311";
};
}),
(477,500,l,{
"Letterink-NibData" = {
AngleInDegrees = "161.56505";
};
}),
(451,480,l,{
"Letterink-NibData" = {
AngleInDegrees = "158.35875";
};
}),
(495,272,l,{
"Letterink-NibData" = {
AngleInDegrees = "34.87533";
};
}),
(538,288,l,{
"Letterink-NibData" = {
AngleInDegrees = "270";
};
}),
(347,288,l,{
"Letterink-NibData" = {
AngleInDegrees = "145.92281";
};
}),
(390,268,l,{
"Letterink-NibData" = {
AngleInDegrees = "21.36191";
};
})
);
}
);
width = 775;
}
);
metricLeft = "=H*.8";
unicode = 65;
userData = {
position = 666;
width = 20;
};
},
{
glyphname = A.ss01;
kernLeft = Atext;
kernRight = A;
layers = (
{
anchors = (
{
name = bottom;
pos = (292,0);
},
{
name = ogonek;
pos = (603,-1);
},
{
name = top;
pos = (377,690);
}
);
layerId = "0CAF3BED-C4AC-4024-B3E1-4C69D1EF7EC0";
shapes = (
{
closed = 1;
nodes = (
(72,0,l,{
"Letterink-NibData" = {
AngleInDegrees = 22.65189;
};
}),
(207,253,l,{
"Letterink-NibData" = {
AngleInDegrees = 236.57519;
};
}),
(150,210,l,{
"Letterink-NibData" = {
AngleInDegrees = 90;
};
}),
(483,210,l,{
"Letterink-NibData" = {
AngleInDegrees = 303.42481;
};
}),
(439,253,l,{
"Letterink-NibData" = {
AngleInDegrees = 156.96496;
};
}),
(515,0,l,{
"Letterink-NibData" = {
AngleInDegrees = 90;
};
}),
(602,0,l,{
"Letterink-NibData" = {
AngleInDegrees = 337.32254;
};
}),
(394,702,l,{
"Letterink-NibData" = {
AngleInDegrees = 270;
};
}),
(361,702,l,{
"Letterink-NibData" = {
AngleInDegrees = 202.53914;
};
}),
(-19,0,l,{
"Letterink-NibData" = {
AngleInDegrees = 90;
};
})
);
},
{
closed = 1;
nodes = (
(345,511,l,{
"Letterink-NibData" = {
AngleInDegrees = 19.98311;
};
}),
(360,553,l,{
"Letterink-NibData" = {
AngleInDegrees = 161.56505;
};
}),
(366,511,l,{
"Letterink-NibData" = {
AngleInDegrees = 158.35875;
};
}),
(434,260,l,{
"Letterink-NibData" = {
AngleInDegrees = 34.87533;
};
}),
(462,284,l,{
"Letterink-NibData" = {
AngleInDegrees = 270;
};
}),
(191,284,l,{
"Letterink-NibData" = {
AngleInDegrees = 145.92281;
};
}),
(214,260,l,{
"Letterink-NibData" = {
AngleInDegrees = 21.36191;
};
})
);
}
);
width = 645;
},
{
anchors = (
{
name = bottom;
pos = (295,-2);
},
{
name = ogonek;
pos = (597,1);
},
{
name = top;
pos = (378,684);
}
);
layerId = "49C16FD3-6177-408B-A733-AEB3898BB77C";
shapes = (
{
closed = 1;
nodes = (
(35,0,l,{
"Letterink-NibData" = {
AngleInDegrees = 22.78241;
};
}),
(170,251,l,{
"Letterink-NibData" = {
AngleInDegrees = 235.7843;
};
}),
(147,236,l,{
"Letterink-NibData" = {
AngleInDegrees = 90;
};
}),
(500,236,l,{
"Letterink-NibData" = {
AngleInDegrees = 304.2157;
};
}),
(481,251,l,{
"Letterink-NibData" = {
AngleInDegrees = 157.02305;
};
}),
(556,0,l,{
"Letterink-NibData" = {
AngleInDegrees = 90;
};
}),
(597,0,l,{
"Letterink-NibData" = {
AngleInDegrees = 336.95898;
};
}),
(385,699,l,{
"Letterink-NibData" = {
AngleInDegrees = 270;
};
}),
(376,699,l,{
"Letterink-NibData" = {
AngleInDegrees = 202.90284;
};
}),
(-6,0,l,{
"Letterink-NibData" = {
AngleInDegrees = 90;
};
})
);
},
{
closed = 1;
nodes = (
(353,585,l,{
"Letterink-NibData" = {
AngleInDegrees = 22.61986;
};
}),
(373,631,l,{
"Letterink-NibData" = {
AngleInDegrees = 160.34617;
};
}),
(381,587,l,{
"Letterink-NibData" = {
AngleInDegrees = 157.39526;
};
}),
(479,257,l,{
"Letterink-NibData" = {
AngleInDegrees = 32.90524;
};
}),
(491,272,l,{
"Letterink-NibData" = {
AngleInDegrees = 270;
};
}),
(166,272,l,{
"Letterink-NibData" = {
AngleInDegrees = 147.09476;
};
}),
(174,257,l,{
"Letterink-NibData" = {
AngleInDegrees = 22.96683;
};
})
);
}
);
width = 653;
},
{
anchors = (
{
name = bottom;
pos = (313,0);
},
{
name = ogonek;
pos = (653,0);
},
{
name = top;
pos = (397,694);
}
);
layerId = m004;
shapes = (
{
closed = 1;
nodes = (
(154,0,l,{
"Letterink-NibData" = {
AngleInDegrees = 22.65189;
};
}),
(289,257,l,{
"Letterink-NibData" = {
AngleInDegrees = 236.57519;
};
}),
(174,146,l,{
"Letterink-NibData" = {
AngleInDegrees = 90;
};
}),
(484,146,l,{
"Letterink-NibData" = {
AngleInDegrees = 303.42481;
};
}),
(398,257,l,{
"Letterink-NibData" = {
AngleInDegrees = 156.96496;
};
}),
(476,0,l,{
"Letterink-NibData" = {
AngleInDegrees = 90;
};
}),
(652,0,l,{
"Letterink-NibData" = {
AngleInDegrees = 337.32254;
};
}),
(443,694,l,{
"Letterink-NibData" = {
AngleInDegrees = 270;
};
}),
(357,694,l,{
"Letterink-NibData" = {
AngleInDegrees = 202.53914;
};
}),
(-29,0,l,{
"Letterink-NibData" = {
AngleInDegrees = 90;
};
})
);
},
{
closed = 1;
nodes = (
(394,480,l,{
"Letterink-NibData" = {
AngleInDegrees = 19.98311;
};
}),
(370,484,l,{
"Letterink-NibData" = {
AngleInDegrees = 161.56505;
};
}),
(345,480,l,{
"Letterink-NibData" = {
AngleInDegrees = 158.35875;
};
}),
(394,272,l,{
"Letterink-NibData" = {
AngleInDegrees = 34.87533;
};
}),
(441,288,l,{
"Letterink-NibData" = {
AngleInDegrees = 270;
};
}),
(250,288,l,{
"Letterink-NibData" = {
AngleInDegrees = 145.92281;
};
}),
(298,268,l,{
"Letterink-NibData" = {
AngleInDegrees = 21.36191;
};
})
);
}
);
width = 685;
}
);
metricLeft = "=|A";
metricRight = A;
userData = {
position = 10;
width = 615;
};
},
{
glyphname = A.swsh;
kernLeft = A;
kernRight = A;
layers = (
{
anchors = (
{
name = bottom;
pos = (390,0);
},
{
name = ogonek;
pos = (699,0);
},
{
name = top;
pos = (472,684);
}
);
hints = (
{
name = _corner.caps_swash_diag;
origin = (0,4);
scale = (-1,1);
type = Corner;
},
{
name = _corner.caps_swash.big;
origin = (2,2);
type = Corner;
}
);
layerId = "0CAF3BED-C4AC-4024-B3E1-4C69D1EF7EC0";
shapes = (
{
closed = 1;
nodes = (
(698,0,l,{
"Letterink-NibData" = {
AngleInDegrees = "336.96218";
};
}),
(497,685,l,{
"Letterink-NibData" = {
AngleInDegrees = "270";
};
}),
(450,685,l,{
"Letterink-NibData" = {
AngleInDegrees = "202.82503";
};
}),
(126,89,l,{
"Letterink-NibData" = {
AngleInDegrees = "202.38014";
};
}),
(200,53,l,{
"Letterink-NibData" = {
AngleInDegrees = "22.71999";
};
}),
(305,253,l,{
"Letterink-NibData" = {
AngleInDegrees = "236.57519";
};
}),
(249,210,l,{
"Letterink-NibData" = {
AngleInDegrees = "90";
};
}),
(581,210,l,{
"Letterink-NibData" = {
AngleInDegrees = "303.42481";
};
}),
(537,253,l,{
"Letterink-NibData" = {
AngleInDegrees = "157.34811";
};
}),
(613,0,l,{
"Letterink-NibData" = {
AngleInDegrees = "90";
};
})
);
},
{
closed = 1;
nodes = (
(450,541,l,{
"Letterink-NibData" = {
AngleInDegrees = 8.130100000000001;
};
}),
(460,571,l,{
"Letterink-NibData" = {
AngleInDegrees = "171.8699";
};
}),
(463,541,l,{
"Letterink-NibData" = {
AngleInDegrees = "159.79358";
};
}),
(533,260,l,{
"Letterink-NibData" = {
AngleInDegrees = "35.21759";
};
}),
(558,284,l,{
"Letterink-NibData" = {
AngleInDegrees = "270";
};
}),
(290,284,l,{
"Letterink-NibData" = {
AngleInDegrees = "145.92281";
};
}),
(310,260,l,{
"Letterink-NibData" = {
AngleInDegrees = "20.73026";
};
})
);
},
{
closed = 1;
nodes = (
(470,609,l),
(479,685,l,{
"Letterink-NibData" = {
AngleInDegrees = "270";
};
}),
(326,685,l,{
"Letterink-NibData" = {
AngleInDegrees = "180";
};
}),
(327,609,l,{
"Letterink-NibData" = {
AngleInDegrees = "90";
};
})
);
}
);
width = 741;
},
{
anchors = (
{
name = bottom;
pos = (391,0);
},
{
name = ogonek;
pos = (683,1);
},
{
name = top;
pos = (476,684);
}
);
hints = (
{
name = _corner.caps_swash_diag;
origin = (0,4);
scale = (-1,1);
type = Corner;
},
{
name = _corner.caps_swash.big;
origin = (2,2);
type = Corner;
}
);
layerId = "49C16FD3-6177-408B-A733-AEB3898BB77C";
shapes = (
{
closed = 1;
nodes = (
(683,0,l,{
"Letterink-NibData" = {
AngleInDegrees = "337.30364";
};
}),
(480,684,l,{
"Letterink-NibData" = {
AngleInDegrees = "270";
};
}),
(471,684,l,{
"Letterink-NibData" = {
AngleInDegrees = "202.68401";
};
}),
(132,70,l,{
"Letterink-NibData" = {
AngleInDegrees = "202.61986";
};
}),
(166,54,l,{
"Letterink-NibData" = {
AngleInDegrees = "22.1315";
};
}),
(273,251,l,{
"Letterink-NibData" = {
AngleInDegrees = "235.7843";
};
}),
(248,234,l,{
"Letterink-NibData" = {
AngleInDegrees = "90";
};
}),
(589,234,l,{
"Letterink-NibData" = {
AngleInDegrees = "304.2157";
};
}),
(570,251,l,{
"Letterink-NibData" = {
AngleInDegrees = "157.41269";
};
}),
(642,0,l,{
"Letterink-NibData" = {
AngleInDegrees = "90";
};
})
);
},
{
closed = 1;
nodes = (
(449,576,l,{
"Letterink-NibData" = {
AngleInDegrees = "16.29405";
};
}),
(467,619,l,{
"Letterink-NibData" = {
AngleInDegrees = "163.21735";
};
}),
(476,576,l,{
"Letterink-NibData" = {
AngleInDegrees = "158.19859";
};
}),
(567,257,l,{
"Letterink-NibData" = {
AngleInDegrees = "32.90524";
};
}),
(577,270,l,{
"Letterink-NibData" = {
AngleInDegrees = "270";
};
}),
(268,270,l,{
"Letterink-NibData" = {
AngleInDegrees = "147.09476";
};
}),
(277,257,l,{
"Letterink-NibData" = {
AngleInDegrees = "22.09423";
};
})
);
},
{
closed = 1;
nodes = (
(470,648,l),
(474,684,l,{
"Letterink-NibData" = {
AngleInDegrees = "270";
};
}),
(331,684,l,{
"Letterink-NibData" = {
AngleInDegrees = "180";
};
}),
(332,648,l,{
"Letterink-NibData" = {
AngleInDegrees = "90";
};
})
);
}
);
width = 739;
},
{
anchors = (
{
name = bottom;
pos = (360,-6);
},
{
name = ogonek;
pos = (656,0);
},
{
name = top;
pos = (360,684);
}
);
associatedMasterId = "49C16FD3-6177-408B-A733-AEB3898BB77C";
layerId = "58617E73-3A60-467D-AD5A-D66EDA6AE7B6";
name = "6 Jan 22, 16:52";
shapes = (
{
closed = 1;
nodes = (
(98,-11,o),
(124,10,o),
(140,49,cs,{
"Letterink-NibData" = {
AngleInDegrees = 21.9487;
};
}),
(221,250,l,{
"Letterink-NibData" = {
AngleInDegrees = 235.7843;
};
}),
(196,233,l,{
"Letterink-NibData" = {
AngleInDegrees = 90;
};
}),
(523,233,l,{
"Letterink-NibData" = {
AngleInDegrees = 304.2157;
};
}),
(498,250,l,{
"Letterink-NibData" = {
AngleInDegrees = 157.41269;
};
}),
(602,0,l,{
"Letterink-NibData" = {
AngleInDegrees = 90;
};
}),
(651,0,l,{
"Letterink-NibData" = {
AngleInDegrees = 337.54495;
};
}),
(365,692,l,{
"Letterink-NibData" = {
AngleInDegrees = 270;
};
}),
(355,692,l,{
"Letterink-NibData" = {
AngleInDegrees = 202.29205;
};
}),
(100,70,ls,{
"Letterink-NibData" = {
AngleInDegrees = 202.47943;
};
}),
(88,41,o),
(77,30,o),
(57,30,cs,{
"Letterink-NibData" = {
AngleInDegrees = 270;
};
}),
(37,30,o),
(20,48,o),
(20,67,cs),
(20,72,o),
(21,77,o),
(23,82,c,{
"Letterink-NibData" = {
AngleInDegrees = 304.43899;
};
}),
(-12,106,l,{
"Letterink-NibData" = {
AngleInDegrees = 213.69007;
};
}),
(-20,94,o),
(-24,76,o),
(-24,66,cs,{
"Letterink-NibData" = {
AngleInDegrees = 180;
};
}),
(-24,21,o),
(17,-11,o),
(59,-11,cs,{
"Letterink-NibData" = {
AngleInDegrees = 90;
};
})
);
},
{
closed = 1;
nodes = (
(346,569,l,{
"Letterink-NibData" = {
AngleInDegrees = 15.64224;
};
}),
(360,619,l,{
"Letterink-NibData" = {
AngleInDegrees = 165.42579;
};
}),
(373,569,l,{
"Letterink-NibData" = {
AngleInDegrees = 158.93765;
};
}),
(492,260,l,{
"Letterink-NibData" = {
AngleInDegrees = 35.21759;
};
}),
(504,277,l,{
"Letterink-NibData" = {
AngleInDegrees = 270;
};
}),
(215,277,l,{
"Letterink-NibData" = {
AngleInDegrees = 144.78241;
};
}),
(227,260,l,{
"Letterink-NibData" = {
AngleInDegrees = 21.06235;
};
})
);
}
);
width = 707;
},
{
anchors = (
{
name = bottom;
pos = (458,0);
},
{
name = ogonek;
pos = (800,0);
},
{
name = top;
pos = (542,694);
}
);
hints = (
{
name = _corner.caps_swash_diag;
options = 2;
origin = (0,4);
scale = (-1,1);
type = Corner;
},
{
name = _corner.caps_swash.big;
origin = (2,2);
type = Corner;
}
);
layerId = m004;
shapes = (
{
closed = 1;
nodes = (
(799,0,l,{
"Letterink-NibData" = {
AngleInDegrees = "337.32254";
};
}),
(615,684,l,{
"Letterink-NibData" = {
AngleInDegrees = "270";
};
}),
(469,684,l,{
"Letterink-NibData" = {
AngleInDegrees = "202.53914";
};
}),
(175,146,l,{
"Letterink-NibData" = {
AngleInDegrees = "90";
};
}),
(318,66,l,{
"Letterink-NibData" = {
AngleInDegrees = "22.65189";
};
}),
(432,257,l,{
"Letterink-NibData" = {
AngleInDegrees = "236.57519";
};
}),
(321,146,l,{
"Letterink-NibData" = {
AngleInDegrees = "90";
};
}),
(631,146,l,{
"Letterink-NibData" = {
AngleInDegrees = "303.42481";
};
}),
(550,257,l,{
"Letterink-NibData" = {
AngleInDegrees = "156.96496";
};
}),
(628,0,l,{
"Letterink-NibData" = {
AngleInDegrees = "90";
};
})
);
},
{
closed = 1;
nodes = (
(535,480,l,{
"Letterink-NibData" = {
AngleInDegrees = "19.98311";
};
}),
(517,484,l,{
"Letterink-NibData" = {
AngleInDegrees = "161.56505";
};
}),
(499,480,l,{
"Letterink-NibData" = {
AngleInDegrees = "158.35875";
};
}),
(541,272,l,{
"Letterink-NibData" = {
AngleInDegrees = "34.87533";
};
}),
(588,288,l,{
"Letterink-NibData" = {
AngleInDegrees = "270";
};
}),
(397,288,l,{
"Letterink-NibData" = {
AngleInDegrees = "145.92281";
};
}),
(441,268,l,{
"Letterink-NibData" = {
AngleInDegrees = "21.36191";
};
})
);
},
{
closed = 1;
nodes = (
(551,536,l),
(569,684,l,{
"Letterink-NibData" = {
AngleInDegrees = "270";
};
}),
(333,684,l,{
"Letterink-NibData" = {
AngleInDegrees = "180";
};
}),
(331,535,l)
);
}
);
width = 832;
}
);
metricLeft = A;
metricRight = A;
userData = {
position = 666;
width = 20;
};
},
{
glyphname = AE;
kernLeft = A;
kernRight = E;
layers = (
{
anchors = (
{
name = bottom;
pos = (486,0);
},
{
name = top;
pos = (580,673);
}
);
hints = (
{
name = _corner.caps_diag;
options = 1;
origin = (0,12);
scale = (-1,1);
type = Corner;
}
);
layerId = "0CAF3BED-C4AC-4024-B3E1-4C69D1EF7EC0";
shapes = (
{
closed = 1;
nodes = (
(863,-1,l),
(872,75,l,{
"Letterink-NibData" = {
AngleInDegrees = 270;
};
}),
(517,75,l),
(548,325,l,{
"Letterink-NibData" = {
AngleInDegrees = 90;
};
}),
(785,325,l),
(794,401,l,{
"Letterink-NibData" = {
AngleInDegrees = 270;
};
}),
(557,401,l),
(583,610,l,{
"Letterink-NibData" = {
AngleInDegrees = 90;
};
}),
(918,610,l),
(927,686,l,{
"Letterink-NibData" = {
AngleInDegrees = 270;
};
}),
(478,686,l,{
"Letterink-NibData" = {
AngleInDegrees = 208.5766;
};
}),
(96,86,l,{
"Letterink-NibData" = {
AngleInDegrees = 209.0546;
};
}),
(161,37,l,{
"Letterink-NibData" = {
AngleInDegrees = 26.8249;
};
}),
(291,252,l,{
"Letterink-NibData" = {
AngleInDegrees = 90;
};
}),
(228,210,l,{
"Letterink-NibData" = {
AngleInDegrees = 90;
};
}),
(487,210,l,{
"Letterink-NibData" = {
AngleInDegrees = 180;
};
}),
(457,256,l,{
"Letterink-NibData" = {
AngleInDegrees = 180;
};
}),
(426,-1,l,{
"Letterink-NibData" = {
AngleInDegrees = 90;
};
})
);
},
{
closed = 1;
nodes = (
(498,286,l,{
"Letterink-NibData" = {
AngleInDegrees = 270;
};
}),
(283,286,l,{
"Letterink-NibData" = {
AngleInDegrees = 28.71031;
};
}),
(300,264,l,{
"Letterink-NibData" = {
AngleInDegrees = 28.71031;
};
}),
(475,537,l,{
"Letterink-NibData" = {
AngleInDegrees = 23.19859;
};
}),
(498,586,l,{
"Letterink-NibData" = {
AngleInDegrees = 180;
};
}),
(458,260,l,{
"Letterink-NibData" = {
AngleInDegrees = 270;
};
})
);
}
);
width = 986;
},
{
anchors = (
{
name = bottom;
pos = (497,0);
},
{
name = top;
pos = (623,684);
}
);
hints = (
{
name = _corner.caps_diag;
origin = (0,12);
scale = (-1,1);
type = Corner;
}
);
layerId = "49C16FD3-6177-408B-A733-AEB3898BB77C";
shapes = (
{
closed = 1;
nodes = (
(870,1,l),
(875,37,l,{
"Letterink-NibData" = {
AngleInDegrees = 270;
};
}),
(495,37,l),
(532,346,l,{
"Letterink-NibData" = {
AngleInDegrees = 90;
};
}),
(788,346,l),
(793,382,l,{
"Letterink-NibData" = {
AngleInDegrees = 270;
};
}),
(537,382,l),
(570,649,l,{
"Letterink-NibData" = {
AngleInDegrees = 90;
};
}),
(930,649,l),
(934,685,l,{
"Letterink-NibData" = {
AngleInDegrees = 270;
};
}),
(508,685,l,{
"Letterink-NibData" = {
AngleInDegrees = 208.82166;
};
}),
(94,56,l,{
"Letterink-NibData" = {
AngleInDegrees = 213.69007;
};
}),
(127,38,l,{
"Letterink-NibData" = {
AngleInDegrees = 29.29136;
};
}),
(259,249,l,{
"Letterink-NibData" = {
AngleInDegrees = 90;
};
}),
(234,237,l,{
"Letterink-NibData" = {
AngleInDegrees = 90;
};
}),
(498,237,l,{
"Letterink-NibData" = {
AngleInDegrees = 180;
};
}),
(484,253,l,{
"Letterink-NibData" = {
AngleInDegrees = 180;
};
}),
(453,1,l,{
"Letterink-NibData" = {
AngleInDegrees = 90;
};
})
);
},
{
closed = 1;
nodes = (
(503,273,l,{
"Letterink-NibData" = {
AngleInDegrees = 270;
};
}),
(257,273,l,{
"Letterink-NibData" = {
AngleInDegrees = 28.59795;
};
}),
(266,259,l,{
"Letterink-NibData" = {
AngleInDegrees = 28.59795;
};
}),
(510,627,l,{
"Letterink-NibData" = {
AngleInDegrees = 27.32389;
};
}),
(535,663,l,{
"Letterink-NibData" = {
AngleInDegrees = 179.84962;
};
}),
(485,257,l,{
"Letterink-NibData" = {
AngleInDegrees = 270;
};
})
);
}
);
width = 966;
},
{
anchors = (
{
name = bottom;
pos = (503,0);
},
{
name = top;
pos = (511,692);
}
);
associatedMasterId = "49C16FD3-6177-408B-A733-AEB3898BB77C";
layerId = "C1A3D0A8-503D-4B78-876F-381CB7337013";
name = "11 Jan 22, 13:13";
shapes = (
{
closed = 1;
nodes = (
(94,-2,o),
(106,26,o),
(137,71,c,{
"Letterink-NibData" = {
AngleInDegrees = 29.29136;
};
}),
(229,235,l,{
"Letterink-NibData" = {
AngleInDegrees = 90;
};
}),
(457,235,l,{
"Letterink-NibData" = {
AngleInDegrees = 180;
};
}),
(457,1,l,{
"Letterink-NibData" = {
AngleInDegrees = 90;
};
}),
(876,1,l),
(876,41,l,{
"Letterink-NibData" = {
AngleInDegrees = 270;
};
}),
(499,41,l),
(499,344,l,{
"Letterink-NibData" = {
AngleInDegrees = 90;
};
}),
(753,344,l),
(753,384,l,{
"Letterink-NibData" = {
AngleInDegrees = 270;
};
}),
(499,384,l),
(499,645,l,{
"Letterink-NibData" = {
AngleInDegrees = 90;
};
}),
(856,645,l),
(856,685,l,{
"Letterink-NibData" = {
AngleInDegrees = 270;
};
}),
(429,685,l,{
"Letterink-NibData" = {
AngleInDegrees = 208.82166;
};
}),
(95,78,l,{
"Letterink-NibData" = {
AngleInDegrees = 213.69007;
};
}),
(81,57,o),
(72,38,o),
(48,38,cs,{
"Letterink-NibData" = {
AngleInDegrees = 270;
};
}),
(34,38,o),
(17,47,o),
(9,56,c,{
"Letterink-NibData" = {
AngleInDegrees = 244.0577;
};
}),
(-28,38,l,{
"Letterink-NibData" = {
AngleInDegrees = 146.82149;
};
}),
(-11,12,o),
(16,-2,o),
(47,-2,cs,{
"Letterink-NibData" = {
AngleInDegrees = 90;
};
})
);
},
{
closed = 1;
nodes = (
(425,596,l,{
"Letterink-NibData" = {
AngleInDegrees = 27.32389;
};
}),
(456,656,l,{
"Letterink-NibData" = {
AngleInDegrees = 179.84962;
};
}),
(457,275,l,{
"Letterink-NibData" = {
AngleInDegrees = 270;
};
}),
(250,275,l,{
"Letterink-NibData" = {
AngleInDegrees = 28.59795;
};
})
);
}
);
width = 921;
},
{
anchors = (
{
name = bottom;
pos = (492,0);
},
{
name = top;
pos = (503,673);
}
);
associatedMasterId = "0CAF3BED-C4AC-4024-B3E1-4C69D1EF7EC0";
layerId = "8D16C2AC-4E99-48C9-ADA3-C168C353B72B";
name = "11 Jan 22, 13:30";
shapes = (
{
closed = 1;
nodes = (
(91,-12,o),
(128,8,o),
(146,44,cs,{
"Letterink-NibData" = {
AngleInDegrees = 26.8249;
};
}),
(235,220,l,{
"Letterink-NibData" = {
AngleInDegrees = 90;
};
}),
(432,220,l,{
"Letterink-NibData" = {
AngleInDegrees = 180;
};
}),
(432,-1,l,{
"Letterink-NibData" = {
AngleInDegrees = 90;
};
}),
(869,-1,l),
(869,75,l,{
"Letterink-NibData" = {
AngleInDegrees = 270;
};
}),
(514,75,l),
(514,325,l,{
"Letterink-NibData" = {
AngleInDegrees = 90;
};
}),
(751,325,l),
(751,401,l,{
"Letterink-NibData" = {
AngleInDegrees = 270;
};
}),
(514,401,l),
(514,610,l,{
"Letterink-NibData" = {
AngleInDegrees = 90;
};
}),
(849,610,l),
(849,686,l,{
"Letterink-NibData" = {
AngleInDegrees = 270;
};
}),
(405,686,l,{
"Letterink-NibData" = {
AngleInDegrees = 208.5766;
};
}),
(82,93,ls,{
"Letterink-NibData" = {
AngleInDegrees = 209.0546;
};
}),
(72,75,o),
(63,67,o),
(48,67,cs,{
"Letterink-NibData" = {
AngleInDegrees = 270;
};
}),
(37,67,o),
(25,72,o),
(15,86,c,{
"Letterink-NibData" = {
AngleInDegrees = 220.6013;
};
}),
(-33,30,l,{
"Letterink-NibData" = {
AngleInDegrees = 145.7843;
};
}),
(-16,5,o),
(15,-12,o),
(56,-12,cs,{
"Letterink-NibData" = {
AngleInDegrees = 90;
};
})
);
},
{
closed = 1;
nodes = (
(411,537,l,{
"Letterink-NibData" = {
AngleInDegrees = 23.19859;
};
}),
(432,586,l,{
"Letterink-NibData" = {
AngleInDegrees = 180;
};
}),
(432,296,l,{
"Letterink-NibData" = {
AngleInDegrees = 270;
};
}),
(279,296,l,{
"Letterink-NibData" = {
AngleInDegrees = 28.71031;
};
})
);
}
);
width = 911;
},
{
anchors = (
{
name = bottom;
pos = (586,0);
},
{
name = top;
pos = (681,684);
}
);
hints = (
{
name = _corner.caps_diag;
origin = (0,12);
scale = (-1,1);
type = Corner;
}
);
layerId = m004;
shapes = (
{
closed = 1;
nodes = (
(929,0,l),
(947,148,l,{
"Letterink-NibData" = {
AngleInDegrees = "270";
};
}),
(648,148,l),
(665,281,l,{
"Letterink-NibData" = {
AngleInDegrees = "90";
};
}),
(854,281,l),
(872,429,l,{
"Letterink-NibData" = {
AngleInDegrees = "270";
};
}),
(683,429,l),
(696,536,l,{
"Letterink-NibData" = {
AngleInDegrees = "90";
};
}),
(975,536,l),
(993,685,l,{
"Letterink-NibData" = {
AngleInDegrees = "270";
};
}),
(480,684,l,{
"Letterink-NibData" = {
AngleInDegrees = "209.70894";
};
}),
(123,135,l,{
"Letterink-NibData" = {
AngleInDegrees = "89.3704";
};
}),
(272,60,l,{
"Letterink-NibData" = {
AngleInDegrees = "28.81079";
};
}),
(389,256,l,{
"Letterink-NibData" = {
AngleInDegrees = "90";
};
}),
(283,146,l,{
"Letterink-NibData" = {
AngleInDegrees = "90";
};
}),
(552,146,l,{
"Letterink-NibData" = {
AngleInDegrees = "180";
};
}),
(494,240,l,{
"Letterink-NibData" = {
AngleInDegrees = "180";
};
}),
(465,0,l,{
"Letterink-NibData" = {
AngleInDegrees = "90";
};
})
);
},
{
closed = 1;
nodes = (
(572,296,l,{
"Letterink-NibData" = {
AngleInDegrees = "270";
};
}),
(384,296,l,{
"Letterink-NibData" = {
AngleInDegrees = "28.68615";
};
}),
(420,279,l,{
"Letterink-NibData" = {
AngleInDegrees = "28.68615";
};
}),
(513,450,l),
(524,477,l,{
"Letterink-NibData" = {
AngleInDegrees = "23.62938";
};
}),
(499,275,l,{
"Letterink-NibData" = {
AngleInDegrees = "270";
};
})
);
}
);
width = 1020;
},
{
anchors = (
{
name = bottom;
pos = (486,0);
},
{
name = top;
pos = (497,673);
}
);
associatedMasterId = m004;
layerId = "80EF8790-0869-49FF-90A7-EBAC34F5F575";
name = "11 Jan 22, 13:30";
shapes = (
{
closed = 1;
nodes = (
(85,-12,o),
(122,8,o),
(140,44,cs,{
"Letterink-NibData" = {
AngleInDegrees = 26.8249;
};
}),
(229,220,l,{
"Letterink-NibData" = {
AngleInDegrees = 90;
};
}),
(426,220,l,{
"Letterink-NibData" = {
AngleInDegrees = 180;
};
}),
(426,-1,l,{
"Letterink-NibData" = {
AngleInDegrees = 90;
};
}),
(863,-1,l),
(863,75,l,{
"Letterink-NibData" = {
AngleInDegrees = 270;
};
}),
(508,75,l),
(508,325,l,{
"Letterink-NibData" = {
AngleInDegrees = 90;
};
}),
(745,325,l),
(745,401,l,{
"Letterink-NibData" = {
AngleInDegrees = 270;
};
}),
(508,401,l),
(508,610,l,{
"Letterink-NibData" = {
AngleInDegrees = 90;
};
}),
(843,610,l),
(843,686,l,{
"Letterink-NibData" = {
AngleInDegrees = 270;
};
}),
(399,686,l,{
"Letterink-NibData" = {
AngleInDegrees = 208.5766;
};
}),
(76,93,ls,{
"Letterink-NibData" = {
AngleInDegrees = 209.0546;
};
}),
(66,75,o),
(57,67,o),
(42,67,cs,{
"Letterink-NibData" = {
AngleInDegrees = 270;
};
}),
(31,67,o),
(19,72,o),
(9,86,c,{
"Letterink-NibData" = {
AngleInDegrees = 220.6013;
};
}),
(-39,30,l,{
"Letterink-NibData" = {
AngleInDegrees = 145.7843;
};
}),
(-22,5,o),
(9,-12,o),
(50,-12,cs,{
"Letterink-NibData" = {
AngleInDegrees = 90;
};
})
);
},
{
closed = 1;
nodes = (
(405,537,l,{
"Letterink-NibData" = {
AngleInDegrees = 23.19859;
};
}),
(426,586,l,{
"Letterink-NibData" = {
AngleInDegrees = 180;
};
}),
(426,296,l,{
"Letterink-NibData" = {
AngleInDegrees = 270;
};
}),
(273,296,l,{
"Letterink-NibData" = {
AngleInDegrees = 28.71031;
};
})
);
}
);
width = 905;
}
);
metricLeft = A;
unicode = 198;
userData = {
position = 422;
width = 61;
};
},
{
glyphname = AE.ss01;
kernLeft = Atext;
kernRight = E;
layers = (
{
anchors = (
{
name = bottom;
pos = (451,0);
},
{
name = top;
pos = (545,673);
}
);
layerId = "0CAF3BED-C4AC-4024-B3E1-4C69D1EF7EC0";
shapes = (
{
closed = 1;
nodes = (
(74,0,l,{
"Letterink-NibData" = {
AngleInDegrees = 28.81079;
};
}),
(242,252,l,{
"Letterink-NibData" = {
AngleInDegrees = 90;
};
}),
(183,210,l,{
"Letterink-NibData" = {
AngleInDegrees = 90;
};
}),
(452,210,l,{
"Letterink-NibData" = {
AngleInDegrees = 180;
};
}),
(422,256,l,{
"Letterink-NibData" = {
AngleInDegrees = 180;
};
}),
(391,-1,l,{
"Letterink-NibData" = {
AngleInDegrees = 90;
};
}),
(818,-1,l),
(827,75,l,{
"Letterink-NibData" = {
AngleInDegrees = 270;
};
}),
(482,75,l),
(513,325,l,{
"Letterink-NibData" = {
AngleInDegrees = 90;
};
}),
(740,325,l),
(749,401,l,{
"Letterink-NibData" = {
AngleInDegrees = 270;
};
}),
(522,401,l),
(548,610,l,{
"Letterink-NibData" = {
AngleInDegrees = 90;
};
}),
(873,610,l),
(882,686,l,{
"Letterink-NibData" = {
AngleInDegrees = 270;
};
}),
(458,686,l,{
"Letterink-NibData" = {
AngleInDegrees = 209.70894;
};
}),
(-19,-1,l,{
"Letterink-NibData" = {
AngleInDegrees = 89.3704;
};
})
);
},
{
closed = 1;
nodes = (
(463,286,l,{
"Letterink-NibData" = {
AngleInDegrees = 270;
};
}),
(232,286,l,{
"Letterink-NibData" = {
AngleInDegrees = 28.68615;
};
}),
(249,264,l,{
"Letterink-NibData" = {
AngleInDegrees = 28.68615;
};
}),
(447,561,l,{
"Letterink-NibData" = {
AngleInDegrees = 23.62938;
};
}),
(464,593,l,{
"Letterink-NibData" = {
AngleInDegrees = 180;
};
}),
(423,260,l,{
"Letterink-NibData" = {
AngleInDegrees = 270;
};
})
);
}
);
width = 885;
},
{
anchors = (
{
name = bottom;
pos = (425,0);
},
{
name = top;
pos = (582,684);
}
);
layerId = "49C16FD3-6177-408B-A733-AEB3898BB77C";
shapes = (
{
closed = 1;
nodes = (
(36,1,l,{
"Letterink-NibData" = {
AngleInDegrees = 28.2127;
};
}),
(200,250,l,{
"Letterink-NibData" = {
AngleInDegrees = 90;
};
}),
(164,236,l,{
"Letterink-NibData" = {
AngleInDegrees = 90;
};
}),
(426,236,l,{
"Letterink-NibData" = {
AngleInDegrees = 180;
};
}),
(412,252,l,{
"Letterink-NibData" = {
AngleInDegrees = 180;
};
}),
(381,1,l,{
"Letterink-NibData" = {
AngleInDegrees = 90;
};
}),
(801,1,l),
(806,37,l,{
"Letterink-NibData" = {
AngleInDegrees = 270;
};
}),
(423,37,l),
(460,346,l,{
"Letterink-NibData" = {
AngleInDegrees = 90;
};
}),
(720,346,l),
(725,382,l,{
"Letterink-NibData" = {
AngleInDegrees = 270;
};
}),
(465,382,l),
(498,649,l,{
"Letterink-NibData" = {
AngleInDegrees = 90;
};
}),
(861,649,l),
(865,685,l,{
"Letterink-NibData" = {
AngleInDegrees = 270;
};
}),
(449,685,l,{
"Letterink-NibData" = {
AngleInDegrees = 208.86222;
};
}),
(-6,1,l,{
"Letterink-NibData" = {
AngleInDegrees = 90;
};
})
);
},
{
closed = 1;
nodes = (
(431,272,l,{
"Letterink-NibData" = {
AngleInDegrees = 270;
};
}),
(185,272,l,{
"Letterink-NibData" = {
AngleInDegrees = 28.9193;
};
}),
(206,257,l,{
"Letterink-NibData" = {
AngleInDegrees = 28.9193;
};
}),
(432,601,l,{
"Letterink-NibData" = {
AngleInDegrees = 32.55;
};
}),
(461,650,l,{
"Letterink-NibData" = {
AngleInDegrees = 180;
};
}),
(413,256,l,{
"Letterink-NibData" = {
AngleInDegrees = 270;
};
})
);
}
);
width = 874;
},
{
anchors = (
{
name = bottom;
pos = (400,0);
},
{
name = top;
pos = (555,684);
}
);
layerId = m004;
shapes = (
{
closed = 1;
nodes = (
(156,1,l,{
"Letterink-NibData" = {
AngleInDegrees = "28.81079";
};
}),
(324,256,l,{
"Letterink-NibData" = {
AngleInDegrees = "90";
};
}),
(218,146,l,{
"Letterink-NibData" = {
AngleInDegrees = "90";
};
}),
(487,146,l,{
"Letterink-NibData" = {
AngleInDegrees = "180";
};
}),
(431,264,l,{
"Letterink-NibData" = {
AngleInDegrees = "180";
};
}),
(400,0,l,{
"Letterink-NibData" = {
AngleInDegrees = "90";
};
}),
(864,0,l),
(882,148,l,{
"Letterink-NibData" = {
AngleInDegrees = "270";
};
}),
(583,148,l),
(600,281,l,{
"Letterink-NibData" = {
AngleInDegrees = "90";
};
}),
(789,281,l),
(807,429,l,{
"Letterink-NibData" = {
AngleInDegrees = "270";
};
}),
(618,429,l),
(631,536,l,{
"Letterink-NibData" = {
AngleInDegrees = "90";
};
}),
(910,536,l),
(928,684,l,{
"Letterink-NibData" = {
AngleInDegrees = "270";
};
}),
(428,684,l,{
"Letterink-NibData" = {
AngleInDegrees = "209.70894";
};
}),
(-29,0,l,{
"Letterink-NibData" = {
AngleInDegrees = "89.3704";
};
})
);
},
{
closed = 1;
nodes = (
(507,296,l,{
"Letterink-NibData" = {
AngleInDegrees = "270";
};
}),
(319,296,l,{
"Letterink-NibData" = {
AngleInDegrees = "28.68615";
};
}),
(355,279,l,{
"Letterink-NibData" = {
AngleInDegrees = "28.68615";
};
}),
(462,488,l,{
"Letterink-NibData" = {
AngleInDegrees = "23.62938";
};
}),
(455,449,l,{
"Letterink-NibData" = {
AngleInDegrees = "180";
};
}),
(434,275,l,{
"Letterink-NibData" = {
AngleInDegrees = "270";
};
})
);
}
);
width = 935;
}
);
metricLeft = A.ss01;
metricRight = E;
userData = {
position = 422;
width = 61;
};
},
{
glyphname = AE.swsh;
kernLeft = A;
kernRight = E;
layers = (
{
anchors = (
{
name = bottom;
pos = (574,0);
},
{
name = top;
pos = (585,673);
}
);
hints = (
{
name = _corner.caps_swash_diag;
options = 1;
origin = (0,12);
scale = (-1,1);
type = Corner;
},
{
name = _corner.caps_swash.big;
origin = (2,2);
type = Corner;
}
);
layerId = "0CAF3BED-C4AC-4024-B3E1-4C69D1EF7EC0";
shapes = (
{
closed = 1;
nodes = (
(900,-1,l),
(910,75,l,{
"Letterink-NibData" = {
AngleInDegrees = 270;
};
}),
(555,75,l),
(585,325,l,{
"Letterink-NibData" = {
AngleInDegrees = 90;
};
}),
(822,325,l),
(832,401,l,{
"Letterink-NibData" = {
AngleInDegrees = 270;
};
}),
(595,401,l),
(620,610,l,{
"Letterink-NibData" = {
AngleInDegrees = 90;
};
}),
(955,610,l),
(965,686,l,{
"Letterink-NibData" = {
AngleInDegrees = 270;
};
}),
(516,686,l,{
"Letterink-NibData" = {
AngleInDegrees = 208.5766;
};
}),
(134,91,l,{
"Letterink-NibData" = {
AngleInDegrees = 209.0546;
};
}),
(199,50,l,{
"Letterink-NibData" = {
AngleInDegrees = 26.8249;
};
}),
(323,252,l,{
"Letterink-NibData" = {
AngleInDegrees = 90;
};
}),
(266,210,l,{
"Letterink-NibData" = {
AngleInDegrees = 90;
};
}),
(525,210,l,{
"Letterink-NibData" = {
AngleInDegrees = 180;
};
}),
(495,256,l,{
"Letterink-NibData" = {
AngleInDegrees = 180;
};
}),
(463,-1,l,{
"Letterink-NibData" = {
AngleInDegrees = 90;
};
})
);
},
{
closed = 1;
nodes = (
(534,286,l,{
"Letterink-NibData" = {
AngleInDegrees = 270;
};
}),
(319,286,l,{
"Letterink-NibData" = {
AngleInDegrees = 28.71031;
};
}),
(336,264,l,{
"Letterink-NibData" = {
AngleInDegrees = 28.71031;
};
}),
(513,537,l,{
"Letterink-NibData" = {
AngleInDegrees = 23.19859;
};
}),
(535,586,l,{
"Letterink-NibData" = {
AngleInDegrees = 180;
};
}),
(495,260,l,{
"Letterink-NibData" = {
AngleInDegrees = 270;
};
})
);
},
{
closed = 1;
nodes = (
(505,609,l),
(514,685,l,{
"Letterink-NibData" = {
AngleInDegrees = "270";
};
}),
(341,685,l,{
"Letterink-NibData" = {
AngleInDegrees = "180";
};
}),
(342,609,l,{
"Letterink-NibData" = {
AngleInDegrees = "90";
};
})
);
}
);
width = 1024;
},
{
anchors = (
{
name = bottom;
pos = (540,0);
},
{
name = top;
pos = (633,694);
}
);
hints = (
{
name = _corner.caps_swash_diag;
origin = (0,12);
scale = (-1,1);
type = Corner;
},
{
name = _corner.caps_swash.big;
origin = (2,2);
type = Corner;
}
);
layerId = "49C16FD3-6177-408B-A733-AEB3898BB77C";
shapes = (
{
closed = 1;
nodes = (
(912,1,l),
(917,37,l,{
"Letterink-NibData" = {
AngleInDegrees = 270;
};
}),
(538,37,l),
(575,346,l,{
"Letterink-NibData" = {
AngleInDegrees = 90;
};
}),
(831,346,l),
(836,382,l,{
"Letterink-NibData" = {
AngleInDegrees = 270;
};
}),
(580,382,l),
(613,649,l,{
"Letterink-NibData" = {
AngleInDegrees = 90;
};
}),
(972,649,l),
(976,685,l,{
"Letterink-NibData" = {
AngleInDegrees = 270;
};
}),
(559,685,l,{
"Letterink-NibData" = {
AngleInDegrees = 208.82166;
};
}),
(130,61,l,{
"Letterink-NibData" = {
AngleInDegrees = 213.69007;
};
}),
(161,40,l,{
"Letterink-NibData" = {
AngleInDegrees = 29.29136;
};
}),
(307,249,l,{
"Letterink-NibData" = {
AngleInDegrees = 90;
};
}),
(277,237,l,{
"Letterink-NibData" = {
AngleInDegrees = 90;
};
}),
(540,237,l,{
"Letterink-NibData" = {
AngleInDegrees = 180;
};
}),
(526,253,l,{
"Letterink-NibData" = {
AngleInDegrees = 180;
};
}),
(495,1,l,{
"Letterink-NibData" = {
AngleInDegrees = 90;
};
})
);
},
{
closed = 1;
nodes = (
(545,273,l,{
"Letterink-NibData" = {
AngleInDegrees = 270;
};
}),
(300,273,l,{
"Letterink-NibData" = {
AngleInDegrees = 28.59795;
};
}),
(311,259,l,{
"Letterink-NibData" = {
AngleInDegrees = 28.59795;
};
}),
(542,600,l,{
"Letterink-NibData" = {
AngleInDegrees = 27.32389;
};
}),
(574,650,l,{
"Letterink-NibData" = {
AngleInDegrees = 179.84962;
};
}),
(527,257,l,{
"Letterink-NibData" = {
AngleInDegrees = 270;
};
})
);
},
{
closed = 1;
nodes = (
(554,648,l),
(558,684,l,{
"Letterink-NibData" = {
AngleInDegrees = "270";
};
}),
(415,684,l,{
"Letterink-NibData" = {
AngleInDegrees = "180";
};
}),
(416,648,l,{
"Letterink-NibData" = {
AngleInDegrees = "90";
};
})
);
}
);
width = 1008;
},
{
anchors = (
{
name = bottom;
pos = (503,0);
},
{
name = top;
pos = (511,692);
}
);
associatedMasterId = "49C16FD3-6177-408B-A733-AEB3898BB77C";
layerId = "C1A3D0A8-503D-4B78-876F-381CB7337013";
name = "11 Jan 22, 13:13";
shapes = (
{
closed = 1;
nodes = (
(94,-2,o),
(106,26,o),
(137,71,c,{
"Letterink-NibData" = {
AngleInDegrees = 29.29136;
};
}),
(229,235,l,{
"Letterink-NibData" = {
AngleInDegrees = 90;
};
}),
(457,235,l,{
"Letterink-NibData" = {
AngleInDegrees = 180;
};
}),
(457,1,l,{
"Letterink-NibData" = {
AngleInDegrees = 90;
};
}),
(876,1,l),
(876,41,l,{
"Letterink-NibData" = {
AngleInDegrees = 270;
};
}),
(499,41,l),
(499,344,l,{
"Letterink-NibData" = {
AngleInDegrees = 90;
};
}),
(753,344,l),
(753,384,l,{
"Letterink-NibData" = {
AngleInDegrees = 270;
};
}),
(499,384,l),
(499,645,l,{
"Letterink-NibData" = {
AngleInDegrees = 90;
};
}),
(856,645,l),
(856,685,l,{
"Letterink-NibData" = {
AngleInDegrees = 270;
};
}),
(429,685,l,{
"Letterink-NibData" = {
AngleInDegrees = 208.82166;
};
}),
(95,78,l,{
"Letterink-NibData" = {
AngleInDegrees = 213.69007;
};
}),
(81,57,o),
(72,38,o),
(48,38,cs,{
"Letterink-NibData" = {
AngleInDegrees = 270;
};
}),
(34,38,o),
(17,47,o),
(9,56,c,{
"Letterink-NibData" = {
AngleInDegrees = 244.0577;
};
}),
(-28,38,l,{
"Letterink-NibData" = {
AngleInDegrees = 146.82149;
};
}),
(-11,12,o),
(16,-2,o),
(47,-2,cs,{
"Letterink-NibData" = {
AngleInDegrees = 90;
};
})
);
},
{
closed = 1;
nodes = (
(425,596,l,{
"Letterink-NibData" = {
AngleInDegrees = 27.32389;
};
}),
(456,656,l,{
"Letterink-NibData" = {
AngleInDegrees = 179.84962;
};
}),
(457,275,l,{
"Letterink-NibData" = {
AngleInDegrees = 270;
};
}),
(250,275,l,{
"Letterink-NibData" = {
AngleInDegrees = 28.59795;
};
})
);
}
);
width = 921;
},
{
anchors = (
{
name = bottom;
pos = (492,0);
},
{
name = top;
pos = (503,673);
}
);
associatedMasterId = "0CAF3BED-C4AC-4024-B3E1-4C69D1EF7EC0";
layerId = "8D16C2AC-4E99-48C9-ADA3-C168C353B72B";
name = "11 Jan 22, 13:30";
shapes = (
{
closed = 1;
nodes = (
(91,-12,o),
(128,8,o),
(146,44,cs,{
"Letterink-NibData" = {
AngleInDegrees = 26.8249;
};
}),
(235,220,l,{
"Letterink-NibData" = {
AngleInDegrees = 90;
};
}),
(432,220,l,{
"Letterink-NibData" = {
AngleInDegrees = 180;
};
}),
(432,-1,l,{
"Letterink-NibData" = {
AngleInDegrees = 90;
};
}),
(869,-1,l),
(869,75,l,{
"Letterink-NibData" = {
AngleInDegrees = 270;
};
}),
(514,75,l),
(514,325,l,{
"Letterink-NibData" = {
AngleInDegrees = 90;
};
}),
(751,325,l),
(751,401,l,{
"Letterink-NibData" = {
AngleInDegrees = 270;
};
}),
(514,401,l),
(514,610,l,{
"Letterink-NibData" = {
AngleInDegrees = 90;
};
}),
(849,610,l),
(849,686,l,{
"Letterink-NibData" = {
AngleInDegrees = 270;
};
}),
(405,686,l,{
"Letterink-NibData" = {
AngleInDegrees = 208.5766;
};
}),
(82,93,ls,{
"Letterink-NibData" = {
AngleInDegrees = 209.0546;
};
}),
(72,75,o),
(63,67,o),
(48,67,cs,{
"Letterink-NibData" = {
AngleInDegrees = 270;
};
}),
(37,67,o),
(25,72,o),
(15,86,c,{
"Letterink-NibData" = {
AngleInDegrees = 220.6013;
};
}),
(-33,30,l,{
"Letterink-NibData" = {
AngleInDegrees = 145.7843;
};
}),
(-16,5,o),
(15,-12,o),
(56,-12,cs,{
"Letterink-NibData" = {
AngleInDegrees = 90;
};
})
);
},
{
closed = 1;
nodes = (
(411,537,l,{
"Letterink-NibData" = {
AngleInDegrees = 23.19859;
};
}),
(432,586,l,{
"Letterink-NibData" = {
AngleInDegrees = 180;
};
}),
(432,296,l,{
"Letterink-NibData" = {
AngleInDegrees = 270;
};
}),
(279,296,l,{
"Letterink-NibData" = {
AngleInDegrees = 28.71031;
};
})
);
}
);
width = 911;
},
{
anchors = (
{
name = bottom;
pos = (548,0);
},
{
name = top;
pos = (680,673);
}
);
hints = (
{
name = _corner.caps_swash_diag;
options = 1;
origin = (0,12);
scale = (-1,1);
type = Corner;
},
{
name = _corner.caps_swash.big;
origin = (2,2);
type = Corner;
}
);
layerId = m004;
shapes = (
{
closed = 1;
nodes = (
(972,0,l),
(990,148,l,{
"Letterink-NibData" = {
AngleInDegrees = "270";
};
}),
(691,148,l),
(709,291,l,{
"Letterink-NibData" = {
AngleInDegrees = "90";
};
}),
(898,291,l),
(916,439,l,{
"Letterink-NibData" = {
AngleInDegrees = "270";
};
}),
(727,439,l),
(739,536,l,{
"Letterink-NibData" = {
AngleInDegrees = "90";
};
}),
(1018,536,l),
(1036,684,l,{
"Letterink-NibData" = {
AngleInDegrees = "270";
};
}),
(532,684,l,{
"Letterink-NibData" = {
AngleInDegrees = "209.70894";
};
}),
(184,142,l,{
"Letterink-NibData" = {
AngleInDegrees = "89.3704";
};
}),
(314,58,l,{
"Letterink-NibData" = {
AngleInDegrees = "28.81079";
};
}),
(433,256,l,{
"Letterink-NibData" = {
AngleInDegrees = "90";
};
}),
(327,146,l,{
"Letterink-NibData" = {
AngleInDegrees = "90";
};
}),
(596,146,l,{
"Letterink-NibData" = {
AngleInDegrees = "180";
};
}),
(541,264,l,{
"Letterink-NibData" = {
AngleInDegrees = "180";
};
}),
(508,0,l,{
"Letterink-NibData" = {
AngleInDegrees = "90";
};
})
);
},
{
closed = 1;
nodes = (
(615,296,l,{
"Letterink-NibData" = {
AngleInDegrees = "270";
};
}),
(427,296,l,{
"Letterink-NibData" = {
AngleInDegrees = "28.68615";
};
}),
(462,279,l,{
"Letterink-NibData" = {
AngleInDegrees = "28.68615";
};
}),
(570,488,l,{
"Letterink-NibData" = {
AngleInDegrees = "23.62938";
};
}),
(563,449,l,{
"Letterink-NibData" = {
AngleInDegrees = "180";
};
}),
(542,275,l,{
"Letterink-NibData" = {
AngleInDegrees = "270";
};
})
);
},
{
closed = 1;
nodes = (
(565,536,l),
(583,684,l,{
"Letterink-NibData" = {
AngleInDegrees = "270";
};
}),
(347,684,l,{
"Letterink-NibData" = {
AngleInDegrees = "180";
};
}),
(345,535,l)
);
}
);
width = 1053;
},
{
anchors = (
{
name = bottom;
pos = (486,0);
},
{
name = top;
pos = (497,673);
}
);
associatedMasterId = m004;
layerId = "80EF8790-0869-49FF-90A7-EBAC34F5F575";
name = "11 Jan 22, 13:30";
shapes = (
{
closed = 1;
nodes = (
(85,-12,o),
(122,8,o),
(140,44,cs,{
"Letterink-NibData" = {
AngleInDegrees = 26.8249;
};
}),
(229,220,l,{
"Letterink-NibData" = {
AngleInDegrees = 90;
};
}),
(426,220,l,{
"Letterink-NibData" = {
AngleInDegrees = 180;
};
}),
(426,-1,l,{
"Letterink-NibData" = {
AngleInDegrees = 90;
};
}),
(863,-1,l),
(863,75,l,{
"Letterink-NibData" = {
AngleInDegrees = 270;
};
}),
(508,75,l),
(508,325,l,{
"Letterink-NibData" = {
AngleInDegrees = 90;
};
}),
(745,325,l),
(745,401,l,{
"Letterink-NibData" = {
AngleInDegrees = 270;
};
}),
(508,401,l),
(508,610,l,{
"Letterink-NibData" = {
AngleInDegrees = 90;
};
}),
(843,610,l),
(843,686,l,{
"Letterink-NibData" = {
AngleInDegrees = 270;
};
}),
(399,686,l,{
"Letterink-NibData" = {
AngleInDegrees = 208.5766;
};
}),
(76,93,ls,{
"Letterink-NibData" = {
AngleInDegrees = 209.0546;
};
}),
(66,75,o),
(57,67,o),
(42,67,cs,{
"Letterink-NibData" = {
AngleInDegrees = 270;
};
}),
(31,67,o),
(19,72,o),
(9,86,c,{
"Letterink-NibData" = {
AngleInDegrees = 220.6013;
};
}),
(-39,30,l,{
"Letterink-NibData" = {
AngleInDegrees = 145.7843;
};
}),
(-22,5,o),
(9,-12,o),
(50,-12,cs,{
"Letterink-NibData" = {
AngleInDegrees = 90;
};
})
);
},
{
closed = 1;
nodes = (
(405,537,l,{
"Letterink-NibData" = {
AngleInDegrees = 23.19859;
};
}),
(426,586,l,{
"Letterink-NibData" = {
AngleInDegrees = 180;
};
}),
(426,296,l,{
"Letterink-NibData" = {
AngleInDegrees = 270;
};
}),
(273,296,l,{
"Letterink-NibData" = {
AngleInDegrees = 28.71031;
};
})
);
}
);
width = 905;
}
);
metricLeft = A.swsh;
userData = {
position = 422;
width = 61;
};
},
{
glyphname = B;
kernLeft = E;
kernRight = B;
layers = (
{
anchors = (
{
name = bottom;
pos = (293,0);
},
{
name = center;
pos = (348,368);
},
{
name = top;
pos = (377,684);
}
);
hints = (
{
name = _corner.caps_left;
origin = (0,18);
type = Corner;
}
);
layerId = "0CAF3BED-C4AC-4024-B3E1-4C69D1EF7EC0";
shapes = (
{
closed = 1;
nodes = (
(464,-10,o),
(563,61,o),
(579,186,cs),
(589,262,o),
(562,317,o),
(514,346,cs,{
"Letterink-NibData" = {
AngleInDegrees = 300.96376;
};
}),
(493,359,o),
(468,370,o),
(459,369,c,{
"Letterink-NibData" = {
AngleInDegrees = 71.56505;
};
}),
(473,371,o),
(489,376,o),
(508,383,cs,{
"Letterink-NibData" = {
AngleInDegrees = 63.43495;
};
}),
(555,400,o),
(581,451,o),
(588,507,cs),
(601,615,o),
(528,684,o),
(400,684,cs,{
"Letterink-NibData" = {
AngleInDegrees = 270;
};
}),
(168,684,l,{
"Letterink-NibData" = {
AngleInDegrees = 180;
};
}),
(168,606,l,{
"Letterink-NibData" = {
AngleInDegrees = 90;
};
}),
(395,606,l,{
"Letterink-NibData" = {
AngleInDegrees = 93.91825;
};
}),
(478,601,o),
(514,570,o),
(507,512,cs,{
"Letterink-NibData" = {
AngleInDegrees = 180;
};
}),
(499,445,o),
(442,401,o),
(364,401,cs,{
"Letterink-NibData" = {
AngleInDegrees = 270;
};
}),
(181,401,l,{
"Letterink-NibData" = {
AngleInDegrees = 180;
};
}),
(172,325,l,{
"Letterink-NibData" = {
AngleInDegrees = 90;
};
}),
(366,324,ls,{
"Letterink-NibData" = {
AngleInDegrees = 90;
};
}),
(459,324,o),
(509,275,o),
(499,192,cs,{
"Letterink-NibData" = {
AngleInDegrees = 180;
};
}),
(488,104,o),
(422,68,o),
(295,64,cs,{
"Letterink-NibData" = {
AngleInDegrees = 270;
};
}),
(261,63,o),
(218,65,o),
(181,71,c),
(253,642,l,{
"Letterink-NibData" = {
AngleInDegrees = 270;
};
}),
(171,642,l,{
"Letterink-NibData" = {
AngleInDegrees = 180;
};
}),
(92,2,l,{
"Letterink-NibData" = {
AngleInDegrees = 96.54629;
};
}),
(154,-5,ls,{
"Letterink-NibData" = {
AngleInDegrees = 96.70984;
};
}),
(175,-7,o),
(241,-10,o),
(280,-10,cs,{
"Letterink-NibData" = {
AngleInDegrees = 90;
};
})
);
}
);
width = 661;
},
{
anchors = (
{
name = bottom;
pos = (274,-2);
},
{
name = center;
pos = (336,367);
},
{
name = top;
pos = (358,684);
}
);
hints = (
{
name = _corner.caps_left;
origin = (0,18);
type = Corner;
}
);
layerId = "49C16FD3-6177-408B-A733-AEB3898BB77C";
shapes = (
{
closed = 1;
nodes = (
(423,-9,o),
(536,42,o),
(553,179,cs),
(562,253,o),
(531,315,o),
(465,348,cs,{
"Letterink-NibData" = {
AngleInDegrees = 305.53768;
};
}),
(455,353,o),
(432,361,o),
(406,366,c,{
"Letterink-NibData" = {
AngleInDegrees = 75.67728;
};
}),
(438,373,o),
(455,377,o),
(489,397,cs,{
"Letterink-NibData" = {
AngleInDegrees = 53.1301;
};
}),
(522,416,o),
(554,452,o),
(561,513,cs),
(575,632,o),
(497,684,o),
(393,684,cs,{
"Letterink-NibData" = {
AngleInDegrees = 270;
};
}),
(172,684,l,{
"Letterink-NibData" = {
AngleInDegrees = 180;
};
}),
(172,648,l,{
"Letterink-NibData" = {
AngleInDegrees = 90;
};
}),
(406,648,l,{
"Letterink-NibData" = {
AngleInDegrees = 93.81407;
};
}),
(497,641,o),
(533,599,o),
(523,521,cs,{
"Letterink-NibData" = {
AngleInDegrees = 180;
};
}),
(511,426,o),
(433,382,o),
(346,382,cs,{
"Letterink-NibData" = {
AngleInDegrees = 270;
};
}),
(161,382,l,{
"Letterink-NibData" = {
AngleInDegrees = 180;
};
}),
(156,346,l,{
"Letterink-NibData" = {
AngleInDegrees = 90;
};
}),
(350,346,ls,{
"Letterink-NibData" = {
AngleInDegrees = 90;
};
}),
(470,346,o),
(526,272,o),
(515,183,cs,{
"Letterink-NibData" = {
AngleInDegrees = 180;
};
}),
(502,79,o),
(411,26,o),
(294,26,cs,{
"Letterink-NibData" = {
AngleInDegrees = 270;
};
}),
(287,26,o),
(177,26,o),
(129,32,c),
(206,654,l,{
"Letterink-NibData" = {
AngleInDegrees = 270;
};
}),
(165,654,l,{
"Letterink-NibData" = {
AngleInDegrees = 90;
};
}),
(89,3,l,{
"Letterink-NibData" = {
AngleInDegrees = 98.65254;
};
}),
(131,-4,ls,{
"Letterink-NibData" = {
AngleInDegrees = 99.21103;
};
}),
(170,-11,o),
(274,-9,o),
(282,-9,cs,{
"Letterink-NibData" = {
AngleInDegrees = 90;
};
})
);
}
);
width = 647;
},
{
anchors = (
{
name = bottom;
pos = (354,-2);
},
{
name = center;
pos = (398,356);
},
{
name = top;
pos = (433,684);
}
);
hints = (
{
name = _corner.caps_left;
origin = (0,18);
type = Corner;
}
);
layerId = m004;
shapes = (
{
closed = 1;
nodes = (
(562,18,o),
(633,89,o),
(645,187,cs),
(653,250,o),
(624,316,o),
(580,340,cs),
(553,355,o),
(539,360,o),
(515,364,c,{
"Letterink-NibData" = {
AngleInDegrees = 77.90524000000001;
};
}),
(550,368,o),
(567,370,o),
(589,381,cs,{
"Letterink-NibData" = {
AngleInDegrees = "63.90458";
};
}),
(645,409,o),
(657,455,o),
(663,500,cs),
(676,601,o),
(597,686,o),
(464,686,cs,{
"Letterink-NibData" = {
AngleInDegrees = "270";
};
}),
(197,686,l,{
"Letterink-NibData" = {
AngleInDegrees = "180";
};
}),
(196,537,l),
(447,538,ls,{
"Letterink-NibData" = {
AngleInDegrees = "90";
};
}),
(487,538,o),
(502,517,o),
(498,487,cs,{
"Letterink-NibData" = {
AngleInDegrees = "180";
};
}),
(494,455,o),
(472,424,o),
(438,424,cs,{
"Letterink-NibData" = {
AngleInDegrees = "269.3338";
};
}),
(316,424,l,{
"Letterink-NibData" = {
AngleInDegrees = "180.77422";
};
}),
(299,289,l,{
"Letterink-NibData" = {
AngleInDegrees = "90";
};
}),
(419,289,ls,{
"Letterink-NibData" = {
AngleInDegrees = "90";
};
}),
(467,289,o),
(499,262,o),
(494,219,cs,{
"Letterink-NibData" = {
AngleInDegrees = "180";
};
}),
(487,162,o),
(443,132,o),
(366,132,cs,{
"Letterink-NibData" = {
AngleInDegrees = "270";
};
}),
(346,132,o),
(332,132,o),
(308,136,c),
(362,551,l,{
"Letterink-NibData" = {
AngleInDegrees = "90";
};
}),
(197,552,l),
(130,6,l,{
"Letterink-NibData" = {
AngleInDegrees = 96.44159999999999;
};
}),
(184,-1,ls,{
"Letterink-NibData" = {
AngleInDegrees = "96.65443";
};
}),
(275,-13,o),
(385,-20,o),
(455,-5,cs,{
"Letterink-NibData" = {
AngleInDegrees = "90";
};
})
);
}
);
width = 708;
}
);
metricLeft = E;
unicode = 66;
userData = {
position = 514;
width = 59;
};
},
{
glyphname = B.ss01;
kernLeft = L;
kernRight = B;
layers = (
{
anchors = (
{
name = bottom;
pos = (239,0);
},
{
name = center;
pos = (294,370);
},
{
name = top;
pos = (323,684);
}
);
layerId = "0CAF3BED-C4AC-4024-B3E1-4C69D1EF7EC0";
shapes = (
{
closed = 1;
nodes = (
(410,-10,o),
(509,61,o),
(525,186,cs),
(535,262,o),
(508,317,o),
(460,346,cs,{
"Letterink-NibData" = {
AngleInDegrees = 300.96376;
};
}),
(435,361,o),
(405,368,o),
(395,369,c,{
"Letterink-NibData" = {
AngleInDegrees = 71.56505;
};
}),
(411,372,o),
(432,374,o),
(454,383,cs,{
"Letterink-NibData" = {
AngleInDegrees = 63.43495;
};
}),
(501,402,o),
(527,451,o),
(534,507,cs),
(547,615,o),
(474,684,o),
(346,684,cs,{
"Letterink-NibData" = {
AngleInDegrees = 270;
};
}),
(122,684,l,{
"Letterink-NibData" = {
AngleInDegrees = 180;
};
}),
(112,606,l,{
"Letterink-NibData" = {
AngleInDegrees = 90;
};
}),
(341,606,l,{
"Letterink-NibData" = {
AngleInDegrees = 93.91825;
};
}),
(424,601,o),
(460,570,o),
(453,512,cs,{
"Letterink-NibData" = {
AngleInDegrees = 180;
};
}),
(445,445,o),
(388,401,o),
(310,401,cs,{
"Letterink-NibData" = {
AngleInDegrees = 270;
};
}),
(127,401,l,{
"Letterink-NibData" = {
AngleInDegrees = 180;
};
}),
(118,325,l,{
"Letterink-NibData" = {
AngleInDegrees = 90;
};
}),
(312,324,ls,{
"Letterink-NibData" = {
AngleInDegrees = 90;
};
}),
(405,324,o),
(455,275,o),
(445,192,cs,{
"Letterink-NibData" = {
AngleInDegrees = 180;
};
}),
(434,104,o),
(368,68,o),
(241,64,cs,{
"Letterink-NibData" = {
AngleInDegrees = 270;
};
}),
(207,63,o),
(164,65,o),
(127,71,c),
(199,642,l,{
"Letterink-NibData" = {
AngleInDegrees = 270;
};
}),
(117,642,l,{
"Letterink-NibData" = {
AngleInDegrees = 180;
};
}),
(38,2,l,{
"Letterink-NibData" = {
AngleInDegrees = 96.54629;
};
}),
(100,-5,ls,{
"Letterink-NibData" = {
AngleInDegrees = 96.70984;
};
}),
(121,-7,o),
(187,-10,o),
(226,-10,cs,{
"Letterink-NibData" = {
AngleInDegrees = 90;
};
})
);
}
);
width = 607;
},
{
anchors = (
{
name = bottom;
pos = (238,0);
},
{
name = center;
pos = (277,363);
},
{
name = top;
pos = (322,684);
}
);
layerId = "49C16FD3-6177-408B-A733-AEB3898BB77C";
shapes = (
{
closed = 1;
nodes = (
(407,-9,o),
(502,57,o),
(517,175,cs),
(527,255,o),
(494,316,o),
(439,345,cs,{
"Letterink-NibData" = {
AngleInDegrees = 305.53768;
};
}),
(418,356,o),
(393,361,o),
(370,365,c,{
"Letterink-NibData" = {
AngleInDegrees = 75.67728;
};
}),
(399,369,o),
(429,379,o),
(462,402,cs,{
"Letterink-NibData" = {
AngleInDegrees = 53.1301;
};
}),
(499,428,o),
(519,466,o),
(525,514,cs),
(538,618,o),
(469,684,o),
(348,684,cs,{
"Letterink-NibData" = {
AngleInDegrees = 270;
};
}),
(133,684,l,{
"Letterink-NibData" = {
AngleInDegrees = 180;
};
}),
(129,648,l,{
"Letterink-NibData" = {
AngleInDegrees = 90;
};
}),
(361,648,l,{
"Letterink-NibData" = {
AngleInDegrees = 93.81407;
};
}),
(454,641,o),
(496,597,o),
(487,522,cs,{
"Letterink-NibData" = {
AngleInDegrees = 180;
};
}),
(477,436,o),
(408,382,o),
(310,382,cs,{
"Letterink-NibData" = {
AngleInDegrees = 270;
};
}),
(129,382,l,{
"Letterink-NibData" = {
AngleInDegrees = 180;
};
}),
(125,347,l,{
"Letterink-NibData" = {
AngleInDegrees = 90;
};
}),
(314,347,ls,{
"Letterink-NibData" = {
AngleInDegrees = 90;
};
}),
(424,347,o),
(491,277,o),
(479,181,cs,{
"Letterink-NibData" = {
AngleInDegrees = 180;
};
}),
(464,64,o),
(383,26,o),
(229,26,cs,{
"Letterink-NibData" = {
AngleInDegrees = 270;
};
}),
(195,26,o),
(119,29,o),
(93,32,c),
(170,654,l,{
"Letterink-NibData" = {
AngleInDegrees = 270;
};
}),
(129,654,l,{
"Letterink-NibData" = {
AngleInDegrees = 90;
};
}),
(50,3,l,{
"Letterink-NibData" = {
AngleInDegrees = 98.65254;
};
}),
(95,-4,ls,{
"Letterink-NibData" = {
AngleInDegrees = 99.21103;
};
}),
(134,-10,o),
(256,-9,o),
(273,-9,cs,{
"Letterink-NibData" = {
AngleInDegrees = 90;
};
})
);
}
);
width = 611;
},
{
anchors = (
{
name = bottom;
pos = (247,0);
},
{
name = center;
pos = (291,356);
},
{
name = top;
pos = (331,684);
}
);
layerId = m004;
shapes = (
{
closed = 1;
nodes = (
(455,18,o),
(526,89,o),
(538,187,cs),
(546,250,o),
(517,315,o),
(473,339,cs),
(446,354,o),
(432,360,o),
(408,364,c,{
"Letterink-NibData" = {
AngleInDegrees = 77.90524000000001;
};
}),
(443,368,o),
(460,375,o),
(482,386,cs,{
"Letterink-NibData" = {
AngleInDegrees = "63.90458";
};
}),
(538,414,o),
(550,467,o),
(556,512,cs),
(569,613,o),
(490,686,o),
(357,686,cs,{
"Letterink-NibData" = {
AngleInDegrees = "270";
};
}),
(106,686,l,{
"Letterink-NibData" = {
AngleInDegrees = "180";
};
}),
(88,535,l),
(345,536,ls,{
"Letterink-NibData" = {
AngleInDegrees = "90";
};
}),
(376,536,o),
(395,517,o),
(391,486,cs,{
"Letterink-NibData" = {
AngleInDegrees = "180";
};
}),
(387,455,o),
(366,424,o),
(331,424,cs,{
"Letterink-NibData" = {
AngleInDegrees = "269.3338";
};
}),
(209,424,l,{
"Letterink-NibData" = {
AngleInDegrees = "180.77422";
};
}),
(192,289,l,{
"Letterink-NibData" = {
AngleInDegrees = "90";
};
}),
(312,289,ls,{
"Letterink-NibData" = {
AngleInDegrees = "90";
};
}),
(360,289,o),
(392,262,o),
(387,219,cs,{
"Letterink-NibData" = {
AngleInDegrees = "180";
};
}),
(380,162,o),
(336,132,o),
(259,132,cs,{
"Letterink-NibData" = {
AngleInDegrees = "270";
};
}),
(239,132,o),
(225,132,o),
(201,136,c),
(255,551,l,{
"Letterink-NibData" = {
AngleInDegrees = "90";
};
}),
(90,552,l),
(23,6,l,{
"Letterink-NibData" = {
AngleInDegrees = 96.44159999999999;
};
}),
(77,-1,ls,{
"Letterink-NibData" = {
AngleInDegrees = "96.65443";
};
}),
(168,-13,o),
(278,-20,o),
(348,-5,cs,{
"Letterink-NibData" = {
AngleInDegrees = "90";
};
})
);
}
);
width = 601;
}
);
metricLeft = N.ss01;
metricRight = B;
userData = {
position = 494;
width = 59;
};
},
{
glyphname = B.swsh;
kernLeft = Swash;
kernRight = B;
layers = (
{
anchors = (
{
name = bottom;
pos = (314,0);
},
{
name = center;
pos = (369,369);
},
{
name = top;
pos = (398,684);
}
);
background = {
hints = (
{
name = _corner.caps_swash;
origin = (0,18);
type = Corner;
}
);
shapes = (
{
closed = 1;
nodes = (
(538,-10,o),
(617,76,o),
(617,187,cs),
(617,254,o),
(589,306,o),
(550,335,cs,{
"Letterink-NibData" = {
AngleInDegrees = 306.46923;
};
}),
(527,352,o),
(488,363,o),
(465,363,c,{
"Letterink-NibData" = {
AngleInDegrees = 78.69007;
};
}),
(485,367,o),
(511,368,o),
(538,393,cs,{
"Letterink-NibData" = {
AngleInDegrees = 47.91084;
};
}),
(569,421,o),
(586,458,o),
(586,506,cs),
(586,621,o),
(497,685,o),
(378,685,cs,{
"Letterink-NibData" = {
AngleInDegrees = 270;
};
}),
(142,685,l,{
"Letterink-NibData" = {
AngleInDegrees = 180;
};
}),
(142,609,l,{
"Letterink-NibData" = {
AngleInDegrees = 90;
};
}),
(391,609,ls,{
"Letterink-NibData" = {
AngleInDegrees = 90;
};
}),
(461,609,o),
(504,571,o),
(504,509,cs,{
"Letterink-NibData" = {
AngleInDegrees = 180;
};
}),
(504,434,o),
(451,401,o),
(377,401,cs,{
"Letterink-NibData" = {
AngleInDegrees = 270;
};
}),
(290,401,l,{
"Letterink-NibData" = {
AngleInDegrees = 180;
};
}),
(290,324,l,{
"Letterink-NibData" = {
AngleInDegrees = 90;
};
}),
(384,324,ls,{
"Letterink-NibData" = {
AngleInDegrees = 90;
};
}),
(465,324,o),
(535,278,o),
(535,191,cs,{
"Letterink-NibData" = {
AngleInDegrees = 180;
};
}),
(535,97,o),
(471,66,o),
(355,66,cs,{
"Letterink-NibData" = {
AngleInDegrees = 270;
};
}),
(336,66,o),
(325,67,o),
(243,71,c),
(243,561,l,{
"Letterink-NibData" = {
AngleInDegrees = 270;
};
}),
(161,561,l,{
"Letterink-NibData" = {
AngleInDegrees = 180;
};
}),
(161,2,l,{
"Letterink-NibData" = {
AngleInDegrees = 96.34019;
};
}),
(224,-5,ls,{
"Letterink-NibData" = {
AngleInDegrees = 97.12502;
};
}),
(248,-8,o),
(302,-10,o),
(349,-10,cs,{
"Letterink-NibData" = {
AngleInDegrees = 90;
};
})
);
}
);
};
hints = (
{
name = _corner.caps_swash;
options = 2;
origin = (0,18);
type = Corner;
}
);
layerId = "0CAF3BED-C4AC-4024-B3E1-4C69D1EF7EC0";
shapes = (
{
closed = 1;
nodes = (
(485,-10,o),
(584,61,o),
(600,186,cs),
(610,262,o),
(583,317,o),
(539,343,cs,{
"Letterink-NibData" = {
AngleInDegrees = "300.96376";
};
}),
(512,359,o),
(480,369,o),
(470,369,c,{
"Letterink-NibData" = {
AngleInDegrees = "71.56505";
};
}),
(486,373,o),
(507,374,o),
(530,384,cs,{
"Letterink-NibData" = {
AngleInDegrees = "63.43495";
};
}),
(576,404,o),
(602,451,o),
(609,507,cs),
(622,615,o),
(549,684,o),
(421,684,cs,{
"Letterink-NibData" = {
AngleInDegrees = "270";
};
}),
(187,684,l,{
"Letterink-NibData" = {
AngleInDegrees = "180";
};
}),
(188,608,l,{
"Letterink-NibData" = {
AngleInDegrees = "90";
};
}),
(416,608,l,{
"Letterink-NibData" = {
AngleInDegrees = "93.91825";
};
}),
(499,608,o),
(535,570,o),
(528,512,cs,{
"Letterink-NibData" = {
AngleInDegrees = "180";
};
}),
(520,445,o),
(463,401,o),
(385,401,cs,{
"Letterink-NibData" = {
AngleInDegrees = "270";
};
}),
(292,401,l,{
"Letterink-NibData" = {
AngleInDegrees = "180";
};
}),
(283,325,l,{
"Letterink-NibData" = {
AngleInDegrees = "90";
};
}),
(387,324,ls,{
"Letterink-NibData" = {
AngleInDegrees = "90";
};
}),
(479,323,o),
(530,275,o),
(520,197,cs,{
"Letterink-NibData" = {
AngleInDegrees = "180";
};
}),
(509,114,o),
(443,64,o),
(312,64,cs,{
"Letterink-NibData" = {
AngleInDegrees = "270";
};
}),
(282,64,o),
(239,65,o),
(202,71,c),
(264,560,l,{
"Letterink-NibData" = {
AngleInDegrees = "270";
};
}),
(182,560,l,{
"Letterink-NibData" = {
AngleInDegrees = "180";
};
}),
(113,2,l,{
"Letterink-NibData" = {
AngleInDegrees = "96.54629";
};
}),
(175,-5,ls,{
"Letterink-NibData" = {
AngleInDegrees = "96.70984";
};
}),
(196,-7,o),
(262,-10,o),
(301,-10,cs,{
"Letterink-NibData" = {
AngleInDegrees = "90";
};
})
);
}
);
width = 669;
},
{
anchors = (
{
name = bottom;
pos = (257,0);
},
{
name = center;
pos = (320,367);
},
{
name = top;
pos = (341,684);
}
);
background = {
hints = (
{
name = _corner.caps_swash;
origin = (0,18);
type = Corner;
}
);
shapes = (
{
closed = 1;
nodes = (
(501,-9,o),
(595,47,o),
(595,178,cs),
(595,266,o),
(553,319,o),
(489,351,cs,{
"Letterink-NibData" = {
AngleInDegrees = 296.56505;
};
}),
(481,355,o),
(450,362,o),
(435,365,c,{
"Letterink-NibData" = {
AngleInDegrees = 80.83765;
};
}),
(466,370,o),
(484,380,o),
(486,381,cs,{
"Letterink-NibData" = {
AngleInDegrees = 63.43495;
};
}),
(536,406,o),
(564,452,o),
(564,514,cs),
(564,620,o),
(473,685,o),
(366,685,cs,{
"Letterink-NibData" = {
AngleInDegrees = 270;
};
}),
(128,685,l,{
"Letterink-NibData" = {
AngleInDegrees = 180;
};
}),
(128,645,l,{
"Letterink-NibData" = {
AngleInDegrees = 90;
};
}),
(380,645,l,{
"Letterink-NibData" = {
AngleInDegrees = 93.40644;
};
}),
(464,640,o),
(521,593,o),
(521,517,cs,{
"Letterink-NibData" = {
AngleInDegrees = 180;
};
}),
(521,425,o),
(451,383,o),
(365,383,cs,{
"Letterink-NibData" = {
AngleInDegrees = 270;
};
}),
(283,383,l,{
"Letterink-NibData" = {
AngleInDegrees = 180;
};
}),
(283,345,l,{
"Letterink-NibData" = {
AngleInDegrees = 90;
};
}),
(372,345,ls,{
"Letterink-NibData" = {
AngleInDegrees = 90;
};
}),
(467,345,o),
(553,289,o),
(553,182,cs,{
"Letterink-NibData" = {
AngleInDegrees = 180;
};
}),
(553,78,o),
(473,29,o),
(340,29,cs,{
"Letterink-NibData" = {
AngleInDegrees = 270;
};
}),
(322,29,o),
(277,31,o),
(201,34,c),
(201,591,l,{
"Letterink-NibData" = {
AngleInDegrees = 270;
};
}),
(159,591,l,{
"Letterink-NibData" = {
AngleInDegrees = 180;
};
}),
(159,1,l,{
"Letterink-NibData" = {
AngleInDegrees = 94.96974;
};
}),
(205,-3,ls,{
"Letterink-NibData" = {
AngleInDegrees = 94.92711;
};
}),
(263,-8,o),
(290,-9,o),
(320,-9,cs,{
"Letterink-NibData" = {
AngleInDegrees = 90;
};
})
);
}
);
};
hints = (
{
name = _corner.caps_swash;
origin = (0,18);
type = Corner;
}
);
layerId = "49C16FD3-6177-408B-A733-AEB3898BB77C";
shapes = (
{
closed = 1;
nodes = (
(464,-9,o),
(559,57,o),
(574,175,cs),
(584,255,o),
(551,319,o),
(495,347,cs,{
"Letterink-NibData" = {
AngleInDegrees = "305.53768";
};
}),
(475,357,o),
(451,365,o),
(427,369,c,{
"Letterink-NibData" = {
AngleInDegrees = "75.67728";
};
}),
(457,376,o),
(487,383,o),
(520,407,cs,{
"Letterink-NibData" = {
AngleInDegrees = "53.1301";
};
}),
(557,434,o),
(576,466,o),
(582,514,cs),
(595,618,o),
(526,684,o),
(405,684,cs,{
"Letterink-NibData" = {
AngleInDegrees = "270";
};
}),
(187,684,l,{
"Letterink-NibData" = {
AngleInDegrees = "180";
};
}),
(186,648,l,{
"Letterink-NibData" = {
AngleInDegrees = "90";
};
}),
(418,648,l,{
"Letterink-NibData" = {
AngleInDegrees = "93.81407";
};
}),
(511,641,o),
(553,597,o),
(544,522,cs,{
"Letterink-NibData" = {
AngleInDegrees = "180";
};
}),
(534,436,o),
(465,382,o),
(367,382,cs,{
"Letterink-NibData" = {
AngleInDegrees = "270";
};
}),
(279,382,l,{
"Letterink-NibData" = {
AngleInDegrees = "180";
};
}),
(275,347,l,{
"Letterink-NibData" = {
AngleInDegrees = "90";
};
}),
(371,347,ls,{
"Letterink-NibData" = {
AngleInDegrees = "90";
};
}),
(473,347,o),
(548,281,o),
(537,185,cs,{
"Letterink-NibData" = {
AngleInDegrees = "180";
};
}),
(525,77,o),
(440,26,o),
(304,26,cs,{
"Letterink-NibData" = {
AngleInDegrees = "270";
};
}),
(253,26,o),
(176,29,o),
(150,32,c),
(220,597,l,{
"Letterink-NibData" = {
AngleInDegrees = "270";
};
}),
(179,597,l,{
"Letterink-NibData" = {
AngleInDegrees = "179.91332";
};
}),
(107,3,l,{
"Letterink-NibData" = {
AngleInDegrees = "98.65254";
};
}),
(152,-4,ls,{
"Letterink-NibData" = {
AngleInDegrees = 99.21102999999999;
};
}),
(191,-10,o),
(313,-9,o),
(330,-9,cs,{
"Letterink-NibData" = {
AngleInDegrees = "90";
};
})
);
}
);
width = 649;
},
{
anchors = (
{
name = bottom;
pos = (348,0);
},
{
name = center;
pos = (392,355);
},
{
name = top;
pos = (432,684);
}
);
hints = (
{
name = _corner.caps_swash;
options = 2;
origin = (0,18);
type = Corner;
}
);
layerId = m004;
shapes = (
{
closed = 1;
nodes = (
(580,18,o),
(651,89,o),
(663,187,cs),
(671,250,o),
(646,315,o),
(602,339,cs),
(575,354,o),
(557,360,o),
(533,364,c,{
"Letterink-NibData" = {
AngleInDegrees = 77.90524000000001;
};
}),
(568,368,o),
(585,375,o),
(607,386,cs,{
"Letterink-NibData" = {
AngleInDegrees = "63.90458";
};
}),
(663,414,o),
(675,467,o),
(681,512,cs),
(694,613,o),
(615,686,o),
(482,686,cs,{
"Letterink-NibData" = {
AngleInDegrees = "270";
};
}),
(217,686,l,{
"Letterink-NibData" = {
AngleInDegrees = "180";
};
}),
(217,538,l),
(470,538,ls,{
"Letterink-NibData" = {
AngleInDegrees = "90";
};
}),
(505,538,o),
(520,517,o),
(517,493,cs,{
"Letterink-NibData" = {
AngleInDegrees = "180";
};
}),
(512,455,o),
(495,424,o),
(456,424,cs,{
"Letterink-NibData" = {
AngleInDegrees = "269.3338";
};
}),
(404,424,l,{
"Letterink-NibData" = {
AngleInDegrees = "180.77422";
};
}),
(387,289,l,{
"Letterink-NibData" = {
AngleInDegrees = "90";
};
}),
(437,289,ls,{
"Letterink-NibData" = {
AngleInDegrees = "90";
};
}),
(485,289,o),
(517,262,o),
(512,219,cs,{
"Letterink-NibData" = {
AngleInDegrees = "180";
};
}),
(505,162,o),
(461,132,o),
(384,132,cs,{
"Letterink-NibData" = {
AngleInDegrees = "270";
};
}),
(364,132,o),
(350,132,o),
(326,136,c),
(373,498,l,{
"Letterink-NibData" = {
AngleInDegrees = "90";
};
}),
(208,499,l),
(148,6,l,{
"Letterink-NibData" = {
AngleInDegrees = 96.44159999999999;
};
}),
(202,-1,ls,{
"Letterink-NibData" = {
AngleInDegrees = "96.65443";
};
}),
(293,-13,o),
(403,-20,o),
(473,-5,cs,{
"Letterink-NibData" = {
AngleInDegrees = "90";
};
})
);
}
);
width = 726;
}
);
metricLeft = E.swsh;
userData = {
position = 514;
width = 59;
};
},
{
glyphname = C;
kernLeft = O;
kernRight = C;
layers = (
{
anchors = (
{
name = bottom;
pos = (358,-5);
},
{
name = top;
pos = (443,689);
}
);
background = {
shapes = (
{
closed = 1;
nodes = (
(600,-25,o),
(746,126,o),
(746,326,cs),
(746,355,ls),
(746,548,o),
(594,702,o),
(404,702,cs,{
"Letterink-NibData" = {
AngleInDegrees = "270";
};
}),
(214,702,o),
(63,548,o),
(63,355,cs,{
"Letterink-NibData" = {
AngleInDegrees = "180";
};
}),
(63,326,ls,{
"Letterink-NibData" = {
AngleInDegrees = "180";
};
}),
(63,126,o),
(207,-19,o),
(408,-22,cs,{
"Letterink-NibData" = {
AngleInDegrees = 90.89517371732774;
};
})
);
},
{
closed = 1;
nodes = (
(257,54,o),
(145,170,o),
(145,326,cs),
(145,355,ls),
(145,504,o),
(259,626,o),
(403,626,cs,{
"Letterink-NibData" = {
AngleInDegrees = "90";
};
}),
(549,626,o),
(664,504,o),
(664,355,cs,{
"Letterink-NibData" = {
AngleInDegrees = "180";
};
}),
(664,326,ls,{
"Letterink-NibData" = {
AngleInDegrees = "180";
};
}),
(664,170,o),
(552,54,o),
(405,54,cs,{
"Letterink-NibData" = {
AngleInDegrees = "270";
};
})
);
}
);
};
layerId = "0CAF3BED-C4AC-4024-B3E1-4C69D1EF7EC0";
shapes = (
{
closed = 1;
nodes = (
(472,-19,o),
(580,31,o),
(645,119,c),
(584,161,l),
(536,97,o),
(452,55,o),
(357,55,cs),
(207,55,o),
(114,171,o),
(134,334,cs),
(155,509,o),
(280,627,o),
(443,627,cs),
(538,627,o),
(601,590,o),
(595,538,cs),
(592,513,o),
(577,496,o),
(560,496,cs),
(555,496,o),
(548,497,o),
(544,500,c),
(497,444,l),
(515,430,o),
(536,422,o),
(558,422,cs),
(613,422,o),
(661,470,o),
(668,532,cs),
(679,631,o),
(588,703,o),
(447,703,cs),
(243,703,o),
(81,555,o),
(55,341,cs),
(30,134,o),
(155,-19,o),
(357,-19,cs)
);
}
);
width = 701;
},
{
anchors = (
{
name = bottom;
pos = (368,-4);
},
{
name = top;
pos = (454,688);
}
);
background = {
shapes = (
{
closed = 1;
nodes = (
(614,-14,o),
(756,131,o),
(756,331,cs),
(756,350,ls),
(756,550,o),
(608,702,o),
(414,702,cs,{
"Letterink-NibData" = {
AngleInDegrees = "270";
};
}),
(220,702,o),
(74,551,o),
(74,350,cs,{
"Letterink-NibData" = {
AngleInDegrees = "180";
};
}),
(74,331,ls,{
"Letterink-NibData" = {
AngleInDegrees = "180";
};
}),
(74,133,o),
(221,-14,o),
(418,-14,cs,{
"Letterink-NibData" = {
AngleInDegrees = "90";
};
})
);
},
{
closed = 1;
nodes = (
(244,24,o),
(116,156,o),
(116,331,cs),
(116,350,ls),
(116,526,o),
(245,662,o),
(413,662,cs,{
"Letterink-NibData" = {
AngleInDegrees = "90";
};
}),
(582,662,o),
(714,526,o),
(714,350,cs,{
"Letterink-NibData" = {
AngleInDegrees = "180";
};
}),
(714,331,ls,{
"Letterink-NibData" = {
AngleInDegrees = "180";
};
}),
(714,156,o),
(585,24,o),
(415,24,cs,{
"Letterink-NibData" = {
AngleInDegrees = "270";
};
})
);
}
);
};
layerId = "49C16FD3-6177-408B-A733-AEB3898BB77C";
shapes = (
{
closed = 1;
nodes = (
(486,-10,o),
(597,46,o),
(653,129,c),
(625,149,l),
(574,77,o),
(474,26,o),
(367,26,cs),
(195,26,o),
(78,147,o),
(100,325,cs),
(125,531,o),
(276,663,o),
(453,663,cs),
(546,663,o),
(649,624,o),
(639,544,cs),
(636,519,o),
(616,483,o),
(584,483,cs),
(575,483,o),
(561,484,o),
(552,492,c),
(529,465,l),
(545,453,o),
(564,447,o),
(582,447,cs),
(627,447,o),
(667,484,o),
(674,540,cs),
(683,613,o),
(613,699,o),
(454,699,cs),
(260,699,o),
(90,556,o),
(62,329,cs),
(37,128,o),
(167,-10,o),
(367,-10,cs)
);
}
);
width = 715;
},
{
anchors = (
{
name = bottom;
pos = (389,-29);
},
{
name = top;
pos = (389,723);
}
);
associatedMasterId = "49C16FD3-6177-408B-A733-AEB3898BB77C";
layerId = "9A6A7639-79A9-4EC5-AE88-1E69E535A513";
name = "3 Jan 22, 15:02";
shapes = (
{
closed = 1;
nodes = (
(509,-22,o),
(612,20,o),
(681,118,c,{
"Letterink-NibData" = {
AngleInDegrees = 307.18471;
};
}),
(652,140,l,{
"Letterink-NibData" = {
AngleInDegrees = 215.75389;
};
}),
(598,65,o),
(505,18,o),
(406,18,cs,{
"Letterink-NibData" = {
AngleInDegrees = 270;
};
}),
(231,18,o),
(107,167,o),
(107,335,cs),
(107,508,o),
(240,665,o),
(410,665,cs,{
"Letterink-NibData" = {
AngleInDegrees = 90;
};
}),
(493,665,o),
(600,637,o),
(600,558,cs,{
"Letterink-NibData" = {
AngleInDegrees = 180;
};
}),
(600,531,o),
(587,510,o),
(564,510,cs,{
"Letterink-NibData" = {
AngleInDegrees = 270;
};
}),
(556,510,o),
(541,515,o),
(534,522,c,{
"Letterink-NibData" = {
AngleInDegrees = 217.99873;
};
}),
(509,490,l,{
"Letterink-NibData" = {
AngleInDegrees = 132.27369;
};
}),
(520,480,o),
(545,472,o),
(561,472,cs,{
"Letterink-NibData" = {
AngleInDegrees = 90;
};
}),
(608,472,o),
(640,510,o),
(640,562,cs),
(640,661,o),
(522,706,o),
(418,706,cs,{
"Letterink-NibData" = {
AngleInDegrees = 270;
};
}),
(216,706,o),
(65,535,o),
(65,335,cs,{
"Letterink-NibData" = {
AngleInDegrees = 180;
};
}),
(65,140,o),
(209,-22,o),
(407,-22,cs,{
"Letterink-NibData" = {
AngleInDegrees = 90;
};
})
);
}
);
width = 744;
},
{
anchors = (
{
name = bottom;
pos = (392,-9);
},
{
name = top;
pos = (392,703);
}
);
associatedMasterId = "0CAF3BED-C4AC-4024-B3E1-4C69D1EF7EC0";
layerId = "354B442F-650F-4F84-82F8-D7A6B1A052DE";
name = "3 Jan 22, 15:22";
shapes = (
{
closed = 1;
nodes = (
(538,-19,o),
(642,45,o),
(689,146,c,{
"Letterink-NibData" = {
AngleInDegrees = 296.92768;
};
}),
(626,178,l,{
"Letterink-NibData" = {
AngleInDegrees = 204.38637;
};
}),
(592,103,o),
(503,52,o),
(406,52,cs,{
"Letterink-NibData" = {
AngleInDegrees = 270;
};
}),
(255,52,o),
(140,178,o),
(140,340,cs),
(140,509,o),
(264,632,o),
(404,632,cs,{
"Letterink-NibData" = {
AngleInDegrees = 90;
};
}),
(463,632,o),
(567,610,o),
(567,547,cs,{
"Letterink-NibData" = {
AngleInDegrees = 180;
};
}),
(567,530,o),
(559,517,o),
(543,517,cs,{
"Letterink-NibData" = {
AngleInDegrees = 270;
};
}),
(531,517,o),
(518,525,o),
(511,534,c,{
"Letterink-NibData" = {
AngleInDegrees = 218.25442;
};
}),
(470,482,l,{
"Letterink-NibData" = {
AngleInDegrees = 143.53076;
};
}),
(487,459,o),
(513,445,o),
(543,445,cs,{
"Letterink-NibData" = {
AngleInDegrees = 90;
};
}),
(596,445,o),
(642,490,o),
(642,551,cs),
(642,642,o),
(537,706,o),
(409,706,cs,{
"Letterink-NibData" = {
AngleInDegrees = 270;
};
}),
(202,706,o),
(58,539,o),
(58,341,cs,{
"Letterink-NibData" = {
AngleInDegrees = 180;
};
}),
(58,147,o),
(195,-26,o),
(409,-22,cs,{
"Letterink-NibData" = {
AngleInDegrees = 88.66778;
};
})
);
}
);
width = 742;
},
{
anchors = (
{
name = bottom;
pos = (392,-29);
},
{
name = top;
pos = (392,723);
}
);
associatedMasterId = "49C16FD3-6177-408B-A733-AEB3898BB77C";
background = {
shapes = (
{
closed = 1;
nodes = (
(512,-22,o),
(615,20,o),
(684,118,c),
(655,140,l),
(601,65,o),
(508,18,o),
(409,18,cs),
(234,18,o),
(110,167,o),
(110,335,cs),
(110,508,o),
(243,665,o),
(413,665,cs),
(496,665,o),
(603,637,o),
(603,558,cs),
(603,531,o),
(590,510,o),
(567,510,cs),
(559,510,o),
(544,515,o),
(537,522,c),
(512,490,l),
(523,480,o),
(548,472,o),
(564,472,cs),
(611,472,o),
(643,510,o),
(643,562,cs),
(643,661,o),
(525,706,o),
(421,706,cs),
(219,706,o),
(68,535,o),
(68,335,cs),
(68,140,o),
(212,-22,o),
(410,-22,cs)
);
}
);
};
layerId = "4473E775-5B50-49F8-862E-9DFFC95B4874";
name = "5 Jan 22, 07:44";
shapes = (
{
attr = {
strokeHeight = 38;
strokeWidth = 42;
};
closed = 0;
nodes = (
(520,484,l,{
"Letterink-NibData" = {
AngleInDegrees = 116.56505;
};
}),
(530,479,o),
(540,477,o),
(551,477,cs,{
"Letterink-NibData" = {
AngleInDegrees = 91.50744;
};
}),
(589,476,o),
(615,516,o),
(615,556,cs),
(615,630,o),
(521,690,o),
(397,684,cs,{
"Letterink-NibData" = {
AngleInDegrees = 267.08916;
};
}),
(220,675,o),
(86,532,o),
(86,330,cs,{
"Letterink-NibData" = {
AngleInDegrees = 180;
};
}),
(86,136,o),
(221,0,o),
(411,0,cs,{
"Letterink-NibData" = {
AngleInDegrees = 90;
};
}),
(509,0,o),
(604,52,o),
(650,130,c,{
"Letterink-NibData" = {
AngleInDegrees = 30.52971;
};
})
);
}
);
width = 731;
},
{
anchors = (
{
name = bottom;
pos = (374,-10);
},
{
name = top;
pos = (444,699);
}
);
background = {
shapes = (
{
closed = 1;
nodes = (
(605,-25,o),
(751,126,o),
(751,326,cs),
(751,355,ls),
(751,548,o),
(599,702,o),
(409,702,cs,{
"Letterink-NibData" = {
AngleInDegrees = "270";
};
}),
(219,702,o),
(68,548,o),
(68,355,cs,{
"Letterink-NibData" = {
AngleInDegrees = "180";
};
}),
(68,326,ls,{
"Letterink-NibData" = {
AngleInDegrees = "180";
};
}),
(68,126,o),
(212,-19,o),
(413,-22,cs,{
"Letterink-NibData" = {
AngleInDegrees = 90.89517371732774;
};
})
);
},
{
closed = 1;
nodes = (
(262,54,o),
(150,170,o),
(150,326,cs),
(150,355,ls),
(150,504,o),
(264,626,o),
(408,626,cs,{
"Letterink-NibData" = {
AngleInDegrees = "90";
};
}),
(554,626,o),
(669,504,o),
(669,355,cs,{
"Letterink-NibData" = {
AngleInDegrees = "180";
};
}),
(669,326,ls,{
"Letterink-NibData" = {
AngleInDegrees = "180";
};
}),
(669,170,o),
(557,54,o),
(410,54,cs,{
"Letterink-NibData" = {
AngleInDegrees = "270";
};
})
);
}
);
};
layerId = m004;
shapes = (
{
closed = 1;
nodes = (
(496,-27,o),
(607,24,o),
(674,118,c),
(552,199,l),
(520,154,o),
(447,121,o),
(372,121,cs),
(256,121,o),
(190,203,o),
(205,329,cs),
(221,467,o),
(321,565,o),
(442,565,cs),
(519,565,o),
(568,536,o),
(562,500,cs),
(560,488,o),
(553,480,o),
(543,480,cs),
(542,480,o),
(539,480,o),
(537,482,c),
(446,383,l),
(462,358,o),
(500,338,o),
(548,338,cs),
(631,338,o),
(699,396,o),
(709,479,cs),
(725,610,o),
(606,713,o),
(439,713,cs),
(236,713,o),
(69,559,o),
(42,345,cs),
(15,134,o),
(156,-27,o),
(372,-27,cs)
);
}
);
width = 717;
},
{
anchors = (
{
name = bottom;
pos = (378,-9);
},
{
name = top;
pos = (378,703);
}
);
associatedMasterId = m004;
layerId = "1D3C4DC7-3234-4807-8E35-E7EE46E86FD4";
name = "3 Jan 22, 15:22";
shapes = (
{
closed = 1;
nodes = (
(524,-19,o),
(628,45,o),
(675,146,c,{
"Letterink-NibData" = {
AngleInDegrees = 296.92768;
};
}),
(612,178,l,{
"Letterink-NibData" = {
AngleInDegrees = 204.38637;
};
}),
(578,103,o),
(489,52,o),
(392,52,cs,{
"Letterink-NibData" = {
AngleInDegrees = 270;
};
}),
(241,52,o),
(126,178,o),
(126,340,cs),
(126,509,o),
(250,632,o),
(390,632,cs,{
"Letterink-NibData" = {
AngleInDegrees = 90;
};
}),
(449,632,o),
(553,610,o),
(553,547,cs,{
"Letterink-NibData" = {
AngleInDegrees = 180;
};
}),
(553,530,o),
(545,517,o),
(529,517,cs,{
"Letterink-NibData" = {
AngleInDegrees = 270;
};
}),
(517,517,o),
(504,525,o),
(497,534,c,{
"Letterink-NibData" = {
AngleInDegrees = 218.25442;
};
}),
(456,482,l,{
"Letterink-NibData" = {
AngleInDegrees = 143.53076;
};
}),
(473,459,o),
(499,445,o),
(529,445,cs,{
"Letterink-NibData" = {
AngleInDegrees = 90;
};
}),
(582,445,o),
(628,490,o),
(628,551,cs),
(628,642,o),
(523,706,o),
(395,706,cs,{
"Letterink-NibData" = {
AngleInDegrees = 270;
};
}),
(188,706,o),
(44,539,o),
(44,341,cs,{
"Letterink-NibData" = {
AngleInDegrees = 180;
};
}),
(44,147,o),
(181,-26,o),
(395,-22,cs,{
"Letterink-NibData" = {
AngleInDegrees = 88.66778;
};
})
);
}
);
width = 715;
},
{
anchors = (
{
name = bottom;
pos = (410,0);
},
{
name = top;
pos = (402,684);
}
);
associatedMasterId = m004;
background = {
shapes = (
{
closed = 1;
nodes = (
(594,-25,o),
(740,126,o),
(740,326,cs),
(740,355,ls),
(740,548,o),
(588,702,o),
(398,702,cs,{
"Letterink-NibData" = {
AngleInDegrees = "270";
};
}),
(208,702,o),
(57,548,o),
(57,355,cs,{
"Letterink-NibData" = {
AngleInDegrees = "180";
};
}),
(57,326,ls,{
"Letterink-NibData" = {
AngleInDegrees = "180";
};
}),
(57,126,o),
(201,-19,o),
(402,-22,cs,{
"Letterink-NibData" = {
AngleInDegrees = 90.89517371732774;
};
})
);
},
{
closed = 1;
nodes = (
(251,54,o),
(139,170,o),
(139,326,cs),
(139,355,ls),
(139,504,o),
(253,626,o),
(397,626,cs,{
"Letterink-NibData" = {
AngleInDegrees = "90";
};
}),
(543,626,o),
(658,504,o),
(658,355,cs,{
"Letterink-NibData" = {
AngleInDegrees = "180";
};
}),
(658,326,ls,{
"Letterink-NibData" = {
AngleInDegrees = "180";
};
}),
(658,170,o),
(546,54,o),
(399,54,cs,{
"Letterink-NibData" = {
AngleInDegrees = "270";
};
})
);
}
);
};
layerId = "C056148C-2549-4511-9EFE-DD576A128247";
name = "19 Jan 22, 08:49";
shapes = (
{
closed = 0;
nodes = (
(487,430,l,{
"Letterink-NibData" = {
AngleInDegrees = -45;
MainAxisWidth = 118;
MinorAxisWidth = -15;
ValidForParentMainAxisWidth = 30;
ValidForParentMinorAxisWidth = 15;
};
"Letterink-NibStyleId" = "8";
}),
(507,410,o),
(529,408,o),
(545,408,cs,{
"Letterink-NibData" = {
AngleInDegrees = -45;
MainAxisWidth = 118;
MinorAxisWidth = -15;
ValidForParentMainAxisWidth = 30;
ValidForParentMinorAxisWidth = 15;
};
"Letterink-NibStyleId" = "8";
}),
(587,408,o),
(620,452,o),
(620,500,cs,{
"Letterink-NibData" = {
AngleInDegrees = -45;
MainAxisWidth = 118;
MinorAxisWidth = -15;
ValidForParentMainAxisWidth = 30;
ValidForParentMinorAxisWidth = 15;
};
"Letterink-NibStyleId" = "8";
}),
(620,568,o),
(521,639,o),
(411,639,cs,{
"Letterink-NibData" = {
AngleInDegrees = -45;
MainAxisWidth = 118;
MinorAxisWidth = -15;
ValidForParentMainAxisWidth = 30;
ValidForParentMinorAxisWidth = 15;
};
"Letterink-NibStyleId" = "8";
}),
(250,639,o),
(126,519,o),
(126,331,cs,{
"Letterink-NibData" = {
AngleInDegrees = -45;
MainAxisWidth = 135;
MinorAxisWidth = -15;
ValidForParentMainAxisWidth = 30;
ValidForParentMinorAxisWidth = 15;
};
"Letterink-NibStyleId" = "8";
}),
(126,164,o),
(249,47,o),
(419,47,cs,{
"Letterink-NibData" = {
AngleInDegrees = -45;
MainAxisWidth = 118;
MinorAxisWidth = -15;
ValidForParentMainAxisWidth = 30;
ValidForParentMinorAxisWidth = 15;
};
"Letterink-NibStyleId" = "8";
}),
(508,47,o),
(592,90,o),
(633,159,c,{
"Letterink-NibData" = {
AngleInDegrees = -45;
MainAxisWidth = 118;
MinorAxisWidth = -15;
ValidForParentMainAxisWidth = 30;
ValidForParentMinorAxisWidth = 15;
};
"Letterink-NibStyleId" = "8";
})
);
}
);
userData = {
"Letterink-ComputationAllowed" = YES;
};
width = 740;
}
);
metricLeft = O;
metricRight = "=O*.9";
unicode = 67;
userData = {
position = 570;
width = 54;
};
},
{
glyphname = C.ss01;
kernLeft = O;
kernRight = C;
layers = (
{
anchors = (
{
name = bottom;
pos = (358,-6);
},
{
name = top;
pos = (440,689);
}
);
background = {
shapes = (
{
closed = 1;
nodes = (
(601,-25,o),
(747,126,o),
(747,326,cs),
(747,355,ls),
(747,548,o),
(595,702,o),
(405,702,cs,{
"Letterink-NibData" = {
AngleInDegrees = "270";
};
}),
(215,702,o),
(64,548,o),
(64,355,cs,{
"Letterink-NibData" = {
AngleInDegrees = "180";
};
}),
(64,326,ls,{
"Letterink-NibData" = {
AngleInDegrees = "180";
};
}),
(64,126,o),
(208,-19,o),
(409,-22,cs,{
"Letterink-NibData" = {
AngleInDegrees = 90.89517371732774;
};
})
);
},
{
closed = 1;
nodes = (
(258,54,o),
(146,170,o),
(146,326,cs),
(146,355,ls),
(146,504,o),
(260,626,o),
(404,626,cs,{
"Letterink-NibData" = {
AngleInDegrees = "90";
};
}),
(550,626,o),
(665,504,o),
(665,355,cs,{
"Letterink-NibData" = {
AngleInDegrees = "180";
};
}),
(665,326,ls,{
"Letterink-NibData" = {
AngleInDegrees = "180";
};
}),
(665,170,o),
(553,54,o),
(406,54,cs,{
"Letterink-NibData" = {
AngleInDegrees = "270";
};
})
);
}
);
};
layerId = "0CAF3BED-C4AC-4024-B3E1-4C69D1EF7EC0";
shapes = (
{
closed = 1;
nodes = (
(474,-23,o),
(583,25,o),
(649,116,c),
(586,160,l),
(540,95,o),
(459,53,o),
(364,53,cs),
(211,53,o),
(113,163,o),
(134,331,cs),
(155,503,o),
(284,629,o),
(445,629,cs),
(553,629,o),
(606,572,o),
(621,514,c),
(689,529,l),
(673,624,o),
(581,705,o),
(441,705,cs),
(252,705,o),
(81,557,o),
(55,340,cs),
(28,117,o),
(169,-23,o),
(361,-23,cs)
);
}
);
width = 705;
},
{
anchors = (
{
name = bottom;
pos = (351,-2);
},
{
name = top;
pos = (436,685);
}
);
background = {
anchors = (
{
name = bottom;
pos = (396,-27);
},
{
name = top;
pos = (396,721);
}
);
shapes = (
{
attr = {
strokeHeight = 38;
strokeWidth = 42;
};
closed = 0;
nodes = (
(632,537,l,{
"Letterink-NibData" = {
AngleInDegrees = 356.78451;
};
}),
(627,626,o),
(529,691,o),
(405,685,cs,{
"Letterink-NibData" = {
AngleInDegrees = 267.08916;
};
}),
(228,676,o),
(93,532,o),
(93,330,cs,{
"Letterink-NibData" = {
AngleInDegrees = 180;
};
}),
(93,136,o),
(228,0,o),
(418,0,cs,{
"Letterink-NibData" = {
AngleInDegrees = 90;
};
}),
(516,0,o),
(611,52,o),
(657,130,c,{
"Letterink-NibData" = {
AngleInDegrees = 30.52971;
};
})
);
}
);
};
layerId = "49C16FD3-6177-408B-A733-AEB3898BB77C";
shapes = (
{
closed = 1;
nodes = (
(473,-12,o),
(579,35,o),
(643,123,c),
(613,143,l),
(559,67,o),
(470,24,o),
(363,24,cs),
(197,24,o),
(78,145,o),
(101,334,cs),
(125,528,o),
(272,661,o),
(439,661,cs),
(569,661,o),
(639,596,o),
(652,523,c),
(687,530,l),
(672,626,o),
(581,697,o),
(442,697,cs),
(256,697,o),
(90,550,o),
(63,338,cs),
(36,124,o),
(172,-12,o),
(360,-12,cs)
);
}
);
width = 706;
},
{
anchors = (
{
name = bottom;
pos = (385,-27);
},
{
name = top;
pos = (385,721);
}
);
associatedMasterId = "49C16FD3-6177-408B-A733-AEB3898BB77C";
layerId = "5C147D22-45CB-49AC-8F59-80A6CB628E42";
name = "3 Jan 22, 15:09";
shapes = (
{
closed = 1;
nodes = (
(512,-20,o),
(610,31,o),
(670,119,c,{
"Letterink-NibData" = {
AngleInDegrees = 304.07719;
};
}),
(636,142,l,{
"Letterink-NibData" = {
AngleInDegrees = 214.03213;
};
}),
(584,65,o),
(496,20,o),
(400,20,cs,{
"Letterink-NibData" = {
AngleInDegrees = 270;
};
}),
(229,20,o),
(107,159,o),
(107,331,cs),
(107,497,o),
(228,669,o),
(410,669,cs,{
"Letterink-NibData" = {
AngleInDegrees = 90;
};
}),
(509,669,o),
(590,618,o),
(596,552,c,{
"Letterink-NibData" = {
AngleInDegrees = 90;
};
}),
(637,552,l,{
"Letterink-NibData" = {
AngleInDegrees = 355.69553;
};
}),
(630,645,o),
(539,709,o),
(415,709,cs,{
"Letterink-NibData" = {
AngleInDegrees = 270;
};
}),
(211,709,o),
(65,535,o),
(65,334,cs,{
"Letterink-NibData" = {
AngleInDegrees = 180;
};
}),
(65,132,o),
(205,-20,o),
(401,-20,cs,{
"Letterink-NibData" = {
AngleInDegrees = 90;
};
})
);
}
);
width = 733;
},
{
anchors = (
{
name = bottom;
pos = (380,-7);
},
{
name = top;
pos = (380,701);
}
);
associatedMasterId = "0CAF3BED-C4AC-4024-B3E1-4C69D1EF7EC0";
layerId = "F3AD09C8-78E5-4679-83B5-5B942013D0D4";
name = "3 Jan 22, 15:21";
shapes = (
{
closed = 1;
nodes = (
(516,-17,o),
(620,40,o),
(682,139,c,{
"Letterink-NibData" = {
AngleInDegrees = 304.31509;
};
}),
(619,182,l,{
"Letterink-NibData" = {
AngleInDegrees = 211.07166;
};
}),
(572,104,o),
(492,59,o),
(397,59,cs,{
"Letterink-NibData" = {
AngleInDegrees = 270;
};
}),
(244,59,o),
(137,176,o),
(137,324,cs),
(137,494,o),
(252,631,o),
(395,631,cs,{
"Letterink-NibData" = {
AngleInDegrees = 90;
};
}),
(495,631,o),
(573,582,o),
(570,520,c,{
"Letterink-NibData" = {
AngleInDegrees = 90;
};
}),
(649,520,l,{
"Letterink-NibData" = {
AngleInDegrees = 1.06091;
};
}),
(651,628,o),
(546,707,o),
(400,707,cs,{
"Letterink-NibData" = {
AngleInDegrees = 270;
};
}),
(211,707,o),
(57,538,o),
(57,327,cs,{
"Letterink-NibData" = {
AngleInDegrees = 180;
};
}),
(57,132,o),
(201,-17,o),
(396,-17,cs,{
"Letterink-NibData" = {
AngleInDegrees = 90;
};
})
);
}
);
width = 736;
},
{
anchors = (
{
name = bottom;
pos = (389,-27);
},
{
name = top;
pos = (389,721);
}
);
associatedMasterId = "49C16FD3-6177-408B-A733-AEB3898BB77C";
layerId = "60C93F8E-5478-4CF7-8F44-AF3ED9540F66";
name = "5 Jan 22, 07:47";
shapes = (
{
attr = {
strokeHeight = 38;
strokeWidth = 42;
};
closed = 0;
nodes = (
(625,537,l,{
"Letterink-NibData" = {
AngleInDegrees = 356.78451;
};
}),
(620,626,o),
(522,691,o),
(398,685,cs,{
"Letterink-NibData" = {
AngleInDegrees = 267.08916;
};
}),
(221,676,o),
(86,532,o),
(86,330,cs,{
"Letterink-NibData" = {
AngleInDegrees = 180;
};
}),
(86,136,o),
(221,0,o),
(411,0,cs,{
"Letterink-NibData" = {
AngleInDegrees = 90;
};
}),
(509,0,o),
(604,52,o),
(650,130,c,{
"Letterink-NibData" = {
AngleInDegrees = 30.52971;
};
})
);
}
);
width = 731;
},
{
anchors = (
{
name = bottom;
pos = (379,-7);
},
{
name = top;
pos = (379,701);
}
);
associatedMasterId = "0CAF3BED-C4AC-4024-B3E1-4C69D1EF7EC0";
layerId = "E3615987-2AFD-4696-A41C-F6163A2589A7";
name = "5 Jan 22, 07:50";
shapes = (
{
attr = {
strokeHeight = 74;
strokeWidth = 80;
};
closed = 0;
nodes = (
(617,525,ls,{
"Letterink-NibData" = {
AngleInDegrees = 356.63354;
};
}),
(612,610,o),
(519,671,o),
(402,665,cs,{
"Letterink-NibData" = {
AngleInDegrees = 267.02198;
};
}),
(229,656,o),
(97,521,o),
(97,331,cs,{
"Letterink-NibData" = {
AngleInDegrees = 180;
};
}),
(97,148,o),
(227,20,o),
(410,20,cs,{
"Letterink-NibData" = {
AngleInDegrees = 90;
};
}),
(505,20,o),
(596,68,o),
(641,142,c,{
"Letterink-NibData" = {
AngleInDegrees = 31.30412;
};
})
);
}
);
width = 731;
},
{
anchors = (
{
name = bottom;
pos = (362,-12);
},
{
name = top;
pos = (437,696);
}
);
background = {
shapes = (
{
closed = 1;
nodes = (
(610,-25,o),
(756,126,o),
(756,326,cs),
(756,355,ls),
(756,548,o),
(604,702,o),
(414,702,cs,{
"Letterink-NibData" = {
AngleInDegrees = "270";
};
}),
(224,702,o),
(73,548,o),
(73,355,cs,{
"Letterink-NibData" = {
AngleInDegrees = "180";
};
}),
(73,326,ls,{
"Letterink-NibData" = {
AngleInDegrees = "180";
};
}),
(73,126,o),
(217,-19,o),
(418,-22,cs,{
"Letterink-NibData" = {
AngleInDegrees = 90.89517371732774;
};
})
);
},
{
closed = 1;
nodes = (
(267,54,o),
(155,170,o),
(155,326,cs),
(155,355,ls),
(155,504,o),
(269,626,o),
(413,626,cs,{
"Letterink-NibData" = {
AngleInDegrees = "90";
};
}),
(559,626,o),
(674,504,o),
(674,355,cs,{
"Letterink-NibData" = {
AngleInDegrees = "180";
};
}),
(674,326,ls,{
"Letterink-NibData" = {
AngleInDegrees = "180";
};
}),
(674,170,o),
(562,54,o),
(415,54,cs,{
"Letterink-NibData" = {
AngleInDegrees = "270";
};
})
);
}
);
};
layerId = m004;
shapes = (
{
closed = 1;
nodes = (
(481,-28,o),
(594,24,o),
(657,117,c),
(536,199,l),
(503,152,o),
(440,120,o),
(370,120,cs),
(261,120,o),
(189,207,o),
(204,325,cs),
(221,462,o),
(318,565,o),
(428,565,cs),
(499,565,o),
(550,534,o),
(557,484,c),
(700,518,l),
(686,630,o),
(579,713,o),
(433,713,cs),
(235,713,o),
(67,556,o),
(42,349,cs),
(16,134,o),
(153,-28,o),
(363,-28,cs)
);
}
);
width = 700;
},
{
anchors = (
{
name = bottom;
pos = (366,-7);
},
{
name = top;
pos = (366,701);
}
);
associatedMasterId = m004;
layerId = "61EB21C3-3EB3-448C-BA61-69CC21CFBA6E";
name = "3 Jan 22, 15:21";
shapes = (
{
closed = 1;
nodes = (
(502,-17,o),
(606,40,o),
(668,139,c,{
"Letterink-NibData" = {
AngleInDegrees = 304.31509;
};
}),
(605,182,l,{
"Letterink-NibData" = {
AngleInDegrees = 211.07166;
};
}),
(558,104,o),
(478,59,o),
(383,59,cs,{
"Letterink-NibData" = {
AngleInDegrees = 270;
};
}),
(230,59,o),
(123,176,o),
(123,324,cs),
(123,494,o),
(238,631,o),
(381,631,cs,{
"Letterink-NibData" = {
AngleInDegrees = 90;
};
}),
(481,631,o),
(559,582,o),
(556,520,c,{
"Letterink-NibData" = {
AngleInDegrees = 90;
};
}),
(635,520,l,{
"Letterink-NibData" = {
AngleInDegrees = 1.06091;
};
}),
(637,628,o),
(532,707,o),
(386,707,cs,{
"Letterink-NibData" = {
AngleInDegrees = 270;
};
}),
(197,707,o),
(43,538,o),
(43,327,cs,{
"Letterink-NibData" = {
AngleInDegrees = 180;
};
}),
(43,132,o),
(187,-17,o),
(382,-17,cs,{
"Letterink-NibData" = {
AngleInDegrees = 90;
};
})
);
}
);
width = 709;
},
{
anchors = (
{
name = bottom;
pos = (365,-7);
},
{
name = top;
pos = (365,701);
}
);
associatedMasterId = m004;
layerId = "2E6EA62A-4F0C-4C83-906A-4BFA96122663";
name = "5 Jan 22, 07:50";
shapes = (
{
attr = {
strokeHeight = 74;
strokeWidth = 80;
};
closed = 0;
nodes = (
(603,525,ls,{
"Letterink-NibData" = {
AngleInDegrees = 356.63354;
};
}),
(598,610,o),
(505,671,o),
(388,665,cs,{
"Letterink-NibData" = {
AngleInDegrees = 267.02198;
};
}),
(215,656,o),
(83,521,o),
(83,331,cs,{
"Letterink-NibData" = {
AngleInDegrees = 180;
};
}),
(83,148,o),
(213,20,o),
(396,20,cs,{
"Letterink-NibData" = {
AngleInDegrees = 90;
};
}),
(491,20,o),
(582,68,o),
(627,142,c,{
"Letterink-NibData" = {
AngleInDegrees = 31.30412;
};
})
);
}
);
width = 704;
}
);
metricLeft = O;
metricRight = "=O*.9";
userData = {
position = 570;
width = 54;
};
},
{
glyphname = C.swsh;
kernLeft = O;
kernRight = C;
layers = (
{
anchors = (
{
name = bottom;
pos = (365,-8);
},
{
name = top;
pos = (440,691);
}
);
background = {
shapes = (
{
closed = 1;
nodes = (
(600,-25,o),
(746,126,o),
(746,326,cs),
(746,355,ls),
(746,548,o),
(594,702,o),
(404,702,cs,{
"Letterink-NibData" = {
AngleInDegrees = "270";
};
}),
(214,702,o),
(63,548,o),
(63,355,cs,{
"Letterink-NibData" = {
AngleInDegrees = "180";
};
}),
(63,326,ls,{
"Letterink-NibData" = {
AngleInDegrees = "180";
};
}),
(63,126,o),
(207,-19,o),
(408,-22,cs,{
"Letterink-NibData" = {
AngleInDegrees = 90.89517371732774;
};
})
);
},
{
closed = 1;
nodes = (
(257,54,o),
(145,170,o),
(145,326,cs),
(145,355,ls),
(145,504,o),
(259,626,o),
(403,626,cs,{
"Letterink-NibData" = {
AngleInDegrees = "90";
};
}),
(549,626,o),
(664,504,o),
(664,355,cs,{
"Letterink-NibData" = {
AngleInDegrees = "180";
};
}),
(664,326,ls,{
"Letterink-NibData" = {
AngleInDegrees = "180";
};
}),
(664,170,o),
(552,54,o),
(405,54,cs,{
"Letterink-NibData" = {
AngleInDegrees = "270";
};
})
);
}
);
};
layerId = "0CAF3BED-C4AC-4024-B3E1-4C69D1EF7EC0";
shapes = (
{
closed = 1;
nodes = (
(481,-22,o),
(589,29,o),
(652,118,c),
(589,160,l),
(542,93,o),
(463,54,o),
(370,54,cs),
(210,54,o),
(114,167,o),
(134,331,cs),
(155,501,o),
(285,624,o),
(447,624,cs),
(535,624,o),
(602,579,o),
(595,524,cs),
(592,500,o),
(576,483,o),
(557,483,cs),
(538,483,o),
(522,496,o),
(518,516,c),
(444,498,l),
(453,445,o),
(498,407,o),
(554,407,cs),
(617,407,o),
(667,453,o),
(675,520,cs),
(687,624,o),
(593,700,o),
(449,700,cs),
(246,700,o),
(80,548,o),
(55,339,cs),
(30,130,o),
(159,-22,o),
(365,-22,cs)
);
}
);
width = 711;
},
{
anchors = (
{
name = bottom;
pos = (367,-2);
},
{
name = top;
pos = (452,686);
}
);
background = {
shapes = (
{
closed = 1;
nodes = (
(615,-14,o),
(757,131,o),
(757,331,cs),
(757,350,ls),
(757,550,o),
(609,702,o),
(415,702,cs,{
"Letterink-NibData" = {
AngleInDegrees = "270";
};
}),
(221,702,o),
(75,551,o),
(75,350,cs,{
"Letterink-NibData" = {
AngleInDegrees = "180";
};
}),
(75,331,ls,{
"Letterink-NibData" = {
AngleInDegrees = "180";
};
}),
(75,133,o),
(222,-14,o),
(419,-14,cs,{
"Letterink-NibData" = {
AngleInDegrees = "90";
};
})
);
},
{
closed = 1;
nodes = (
(245,24,o),
(117,156,o),
(117,331,cs),
(117,350,ls),
(117,526,o),
(246,662,o),
(414,662,cs,{
"Letterink-NibData" = {
AngleInDegrees = "90";
};
}),
(583,662,o),
(715,526,o),
(715,350,cs,{
"Letterink-NibData" = {
AngleInDegrees = "180";
};
}),
(715,331,ls,{
"Letterink-NibData" = {
AngleInDegrees = "180";
};
}),
(715,156,o),
(586,24,o),
(416,24,cs,{
"Letterink-NibData" = {
AngleInDegrees = "270";
};
})
);
}
);
};
layerId = "49C16FD3-6177-408B-A733-AEB3898BB77C";
shapes = (
{
closed = 1;
nodes = (
(486,-11,o),
(590,39,o),
(652,125,c),
(623,144,l),
(569,68,o),
(477,25,o),
(371,25,cs),
(194,25,o),
(77,152,o),
(101,339,cs),
(124,522,o),
(271,656,o),
(450,656,cs),
(561,656,o),
(645,601,o),
(636,532,cs),
(631,492,o),
(603,464,o),
(568,464,cs),
(533,464,o),
(511,483,o),
(506,517,c),
(472,510,l),
(479,459,o),
(513,428,o),
(567,428,cs),
(619,428,o),
(665,471,o),
(672,528,cs),
(683,618,o),
(584,692,o),
(451,692,cs),
(252,692,o),
(88,544,o),
(63,343,cs),
(37,138,o),
(167,-11,o),
(370,-11,cs)
);
}
);
width = 718;
},
{
anchors = (
{
name = bottom;
pos = (377,0);
},
{
name = top;
pos = (389,684);
}
);
associatedMasterId = "49C16FD3-6177-408B-A733-AEB3898BB77C";
layerId = "3D02E95B-60B1-4244-8F26-D84725EF13C9";
name = "3 Jan 22, 15:07";
shapes = (
{
closed = 1;
nodes = (
(513,-21,o),
(636,33,o),
(686,140,c,{
"Letterink-NibData" = {
AngleInDegrees = 293.55226;
};
}),
(647,157,l,{
"Letterink-NibData" = {
AngleInDegrees = 204.62357;
};
}),
(614,85,o),
(533,18,o),
(396,19,cs,{
"Letterink-NibData" = {
AngleInDegrees = 270.40348;
};
}),
(254,20,o),
(108,149,o),
(108,343,cs),
(108,508,o),
(240,657,o),
(400,657,cs,{
"Letterink-NibData" = {
AngleInDegrees = 90;
};
}),
(481,657,o),
(578,621,o),
(578,548,cs,{
"Letterink-NibData" = {
AngleInDegrees = 180;
};
}),
(578,521,o),
(562,500,o),
(538,500,cs,{
"Letterink-NibData" = {
AngleInDegrees = 270;
};
}),
(525,500,o),
(508,510,o),
(501,523,c,{
"Letterink-NibData" = {
AngleInDegrees = 238.57043;
};
}),
(465,501,l,{
"Letterink-NibData" = {
AngleInDegrees = 149.03624;
};
}),
(483,471,o),
(510,458,o),
(537,458,cs,{
"Letterink-NibData" = {
AngleInDegrees = 90;
};
}),
(579,458,o),
(620,492,o),
(620,546,cs),
(620,639,o),
(512,697,o),
(401,697,cs,{
"Letterink-NibData" = {
AngleInDegrees = 270;
};
}),
(217,697,o),
(66,536,o),
(66,344,cs,{
"Letterink-NibData" = {
AngleInDegrees = 180;
};
}),
(66,159,o),
(197,-21,o),
(397,-21,cs,{
"Letterink-NibData" = {
AngleInDegrees = 90;
};
})
);
}
);
width = 751;
},
{
anchors = (
{
name = bottom;
pos = (383,-9);
},
{
name = top;
pos = (383,703);
}
);
associatedMasterId = "0CAF3BED-C4AC-4024-B3E1-4C69D1EF7EC0";
layerId = "430F94E4-6E0B-477D-BEA9-4D1159DC2E2A";
name = "3 Jan 22, 15:17";
shapes = (
{
closed = 1;
nodes = (
(510,-16,o),
(626,32,o),
(692,139,c,{
"Letterink-NibData" = {
AngleInDegrees = 303.88696;
};
}),
(625,184,l,{
"Letterink-NibData" = {
AngleInDegrees = 210.52971;
};
}),
(579,106,o),
(494,60,o),
(400,60,cs,{
"Letterink-NibData" = {
AngleInDegrees = 270;
};
}),
(248,60,o),
(138,184,o),
(138,337,cs),
(138,493,o),
(256,630,o),
(406,630,cs,{
"Letterink-NibData" = {
AngleInDegrees = 90;
};
}),
(469,630,o),
(563,604,o),
(563,552,cs,{
"Letterink-NibData" = {
AngleInDegrees = 180;
};
}),
(563,539,o),
(553,528,o),
(542,528,cs,{
"Letterink-NibData" = {
AngleInDegrees = 270;
};
}),
(535,528,o),
(525,532,o),
(520,539,c,{
"Letterink-NibData" = {
AngleInDegrees = 218.19868;
};
}),
(472,478,l,{
"Letterink-NibData" = {
AngleInDegrees = 135;
};
}),
(490,460,o),
(518,447,o),
(548,447,cs,{
"Letterink-NibData" = {
AngleInDegrees = 90;
};
}),
(599,447,o),
(643,494,o),
(643,551,cs),
(643,661,o),
(516,706,o),
(405,706,cs,{
"Letterink-NibData" = {
AngleInDegrees = 270;
};
}),
(212,706,o),
(58,536,o),
(58,337,cs,{
"Letterink-NibData" = {
AngleInDegrees = 180;
};
}),
(58,141,o),
(205,-16,o),
(399,-16,cs,{
"Letterink-NibData" = {
AngleInDegrees = 90;
};
})
);
}
);
width = 749;
},
{
anchors = (
{
name = bottom;
pos = (379,0);
},
{
name = top;
pos = (391,684);
}
);
associatedMasterId = "49C16FD3-6177-408B-A733-AEB3898BB77C";
layerId = "BE458C1D-0A4B-40C4-BCF4-9649CDEB98A4";
name = "5 Jan 22, 08:01";
shapes = (
{
attr = {
strokeHeight = 38;
strokeWidth = 42;
};
closed = 0;
nodes = (
(486,527,l,{
"Letterink-NibData" = {
AngleInDegrees = 168.31063;
};
}),
(492,498,o),
(517,478,o),
(551,477,cs,{
"Letterink-NibData" = {
AngleInDegrees = 91.50744;
};
}),
(589,476,o),
(615,516,o),
(615,556,cs),
(615,630,o),
(522,690,o),
(398,684,cs,{
"Letterink-NibData" = {
AngleInDegrees = 267.08916;
};
}),
(221,675,o),
(86,532,o),
(86,330,cs,{
"Letterink-NibData" = {
AngleInDegrees = 180;
};
}),
(86,136,o),
(221,0,o),
(411,0,cs,{
"Letterink-NibData" = {
AngleInDegrees = 90;
};
}),
(509,0,o),
(604,52,o),
(650,130,c,{
"Letterink-NibData" = {
AngleInDegrees = 30.52971;
};
})
);
}
);
width = 735;
},
{
anchors = (
{
name = bottom;
pos = (384,31);
},
{
name = top;
pos = (384,662);
}
);
associatedMasterId = "0CAF3BED-C4AC-4024-B3E1-4C69D1EF7EC0";
layerId = "26DD77D8-93B1-4CFB-A5C5-84AD5242F402";
name = "5 Jan 22, 08:04";
shapes = (
{
attr = {
strokeHeight = 74;
strokeWidth = 80;
};
closed = 0;
nodes = (
(489,519,l,{
"Letterink-NibData" = {
AngleInDegrees = 169.50852;
};
}),
(494,492,o),
(518,472,o),
(547,471,cs,{
"Letterink-NibData" = {
AngleInDegrees = 91.33222;
};
}),
(590,470,o),
(615,508,o),
(615,546,cs),
(615,617,o),
(526,674,o),
(405,669,cs,{
"Letterink-NibData" = {
AngleInDegrees = 267.03906;
};
}),
(231,660,o),
(97,523,o),
(97,334,cs,{
"Letterink-NibData" = {
AngleInDegrees = 180;
};
}),
(97,145,o),
(229,15,o),
(403,15,cs,{
"Letterink-NibData" = {
AngleInDegrees = 90;
};
}),
(508,15,o),
(603,63,o),
(649,140,c,{
"Letterink-NibData" = {
AngleInDegrees = 30.8542;
};
})
);
}
);
width = 742;
},
{
anchors = (
{
name = bottom;
pos = (359,-12);
},
{
name = top;
pos = (440,696);
}
);
background = {
shapes = (
{
closed = 1;
nodes = (
(606,-25,o),
(752,126,o),
(752,326,cs),
(752,355,ls),
(752,548,o),
(600,702,o),
(410,702,cs,{
"Letterink-NibData" = {
AngleInDegrees = "270";
};
}),
(220,702,o),
(69,548,o),
(69,355,cs,{
"Letterink-NibData" = {
AngleInDegrees = "180";
};
}),
(69,326,ls,{
"Letterink-NibData" = {
AngleInDegrees = "180";
};
}),
(69,126,o),
(213,-19,o),
(414,-22,cs,{
"Letterink-NibData" = {
AngleInDegrees = 90.89517371732774;
};
})
);
},
{
closed = 1;
nodes = (
(263,54,o),
(151,170,o),
(151,326,cs),
(151,355,ls),
(151,504,o),
(265,626,o),
(409,626,cs,{
"Letterink-NibData" = {
AngleInDegrees = "90";
};
}),
(555,626,o),
(670,504,o),
(670,355,cs,{
"Letterink-NibData" = {
AngleInDegrees = "180";
};
}),
(670,326,ls,{
"Letterink-NibData" = {
AngleInDegrees = "180";
};
}),
(670,170,o),
(558,54,o),
(411,54,cs,{
"Letterink-NibData" = {
AngleInDegrees = "270";
};
})
);
}
);
};
layerId = m004;
shapes = (
{
closed = 1;
nodes = (
(482,-28,o),
(596,26,o),
(657,118,c),
(538,199,l),
(501,150,o),
(444,120,o),
(372,120,cs),
(255,120,o),
(189,200,o),
(204,324,cs),
(221,465,o),
(320,566,o),
(440,566,cs),
(482,566,o),
(520,555,o),
(535,538,cs),
(546,526,o),
(545,501,o),
(529,499,cs),
(521,498,o),
(512,501,o),
(511,510,c),
(378,475,l),
(385,409,o),
(444,359,o),
(523,359,cs),
(606,359,o),
(673,418,o),
(684,502,cs),
(700,623,o),
(594,714,o),
(437,714,cs),
(237,714,o),
(67,558,o),
(42,348,cs),
(17,134,o),
(154,-28,o),
(363,-28,cs)
);
}
);
width = 702;
},
{
anchors = (
{
name = bottom;
pos = (369,-9);
},
{
name = top;
pos = (369,703);
}
);
associatedMasterId = m004;
layerId = "E1B422B0-C5DA-4EE8-BF30-75EC1E1BD4CA";
name = "3 Jan 22, 15:17";
shapes = (
{
closed = 1;
nodes = (
(496,-16,o),
(612,32,o),
(678,139,c,{
"Letterink-NibData" = {
AngleInDegrees = 303.88696;
};
}),
(611,184,l,{
"Letterink-NibData" = {
AngleInDegrees = 210.52971;
};
}),
(565,106,o),
(480,60,o),
(386,60,cs,{
"Letterink-NibData" = {
AngleInDegrees = 270;
};
}),
(234,60,o),
(124,184,o),
(124,337,cs),
(124,493,o),
(242,630,o),
(392,630,cs,{
"Letterink-NibData" = {
AngleInDegrees = 90;
};
}),
(455,630,o),
(549,604,o),
(549,552,cs,{
"Letterink-NibData" = {
AngleInDegrees = 180;
};
}),
(549,539,o),
(539,528,o),
(528,528,cs,{
"Letterink-NibData" = {
AngleInDegrees = 270;
};
}),
(521,528,o),
(511,532,o),
(506,539,c,{
"Letterink-NibData" = {
AngleInDegrees = 218.19868;
};
}),
(458,478,l,{
"Letterink-NibData" = {
AngleInDegrees = 135;
};
}),
(476,460,o),
(504,447,o),
(534,447,cs,{
"Letterink-NibData" = {
AngleInDegrees = 90;
};
}),
(585,447,o),
(629,494,o),
(629,551,cs),
(629,661,o),
(502,706,o),
(391,706,cs,{
"Letterink-NibData" = {
AngleInDegrees = 270;
};
}),
(198,706,o),
(44,536,o),
(44,337,cs,{
"Letterink-NibData" = {
AngleInDegrees = 180;
};
}),
(44,141,o),
(191,-16,o),
(385,-16,cs,{
"Letterink-NibData" = {
AngleInDegrees = 90;
};
})
);
}
);
width = 721;
},
{
anchors = (
{
name = bottom;
pos = (370,31);
},
{
name = top;
pos = (370,662);
}
);
associatedMasterId = m004;
layerId = "4CF65D10-8B5F-49BE-AA91-F2DD426CB74F";
name = "5 Jan 22, 08:04";
shapes = (
{
attr = {
strokeHeight = 74;
strokeWidth = 80;
};
closed = 0;
nodes = (
(475,519,l,{
"Letterink-NibData" = {
AngleInDegrees = 169.50852;
};
}),
(480,492,o),
(504,472,o),
(533,471,cs,{
"Letterink-NibData" = {
AngleInDegrees = 91.33222;
};
}),
(576,470,o),
(601,508,o),
(601,546,cs),
(601,617,o),
(512,674,o),
(391,669,cs,{
"Letterink-NibData" = {
AngleInDegrees = 267.03906;
};
}),
(217,660,o),
(83,523,o),
(83,334,cs,{
"Letterink-NibData" = {
AngleInDegrees = 180;
};
}),
(83,145,o),
(215,15,o),
(389,15,cs,{
"Letterink-NibData" = {
AngleInDegrees = 90;
};
}),
(494,15,o),
(589,63,o),
(635,140,c,{
"Letterink-NibData" = {
AngleInDegrees = 30.8542;
};
})
);
}
);
width = 714;
}
);
metricLeft = O;
metricRight = "=O*.98";
userData = {
position = 570;
width = 54;
};
},
{
glyphname = D;
kernLeft = E;
kernRight = O;
layers = (
{
anchors = (
{
name = bottom;
pos = (313,-10);
},
{
name = center;
pos = (214,367);
},
{
name = top;
pos = (413,684);
}
);
hints = (
{
name = _corner.caps_left;
origin = (0,6);
type = Corner;
}
);
layerId = "0CAF3BED-C4AC-4024-B3E1-4C69D1EF7EC0";
shapes = (
{
closed = 1;
nodes = (
(519,-10,o),
(678,134,o),
(704,338,cs),
(729,533,o),
(617,684,o),
(415,684,c,{
"Letterink-NibData" = {
AngleInDegrees = 270.21459;
};
}),
(171,685,l,{
"Letterink-NibData" = {
AngleInDegrees = 180;
};
}),
(169,608,l,{
"Letterink-NibData" = {
AngleInDegrees = 90;
};
}),
(409,608,ls,{
"Letterink-NibData" = {
AngleInDegrees = 92.97373;
};
}),
(568,608,o),
(642,503,o),
(622,343,cs,{
"Letterink-NibData" = {
AngleInDegrees = 180;
};
}),
(600,165,o),
(480,65,o),
(286,65,cs,{
"Letterink-NibData" = {
AngleInDegrees = 270;
};
}),
(257,65,o),
(217,67,o),
(176,70,c),
(249,651,l,{
"Letterink-NibData" = {
AngleInDegrees = 270;
};
}),
(167,651,l,{
"Letterink-NibData" = {
AngleInDegrees = 180;
};
}),
(87,1,l,{
"Letterink-NibData" = {
AngleInDegrees = 95.10217;
};
}),
(144,-4,ls,{
"Letterink-NibData" = {
AngleInDegrees = 95.12819;
};
}),
(210,-10,o),
(233,-10,o),
(316,-10,cs,{
"Letterink-NibData" = {
AngleInDegrees = 90;
};
})
);
}
);
width = 737;
},
{
anchors = (
{
name = bottom;
pos = (280,-9);
},
{
name = center;
pos = (171,358);
},
{
name = top;
pos = (382,685);
}
);
hints = (
{
name = _corner.caps_left;
origin = (0,6);
type = Corner;
}
);
layerId = "49C16FD3-6177-408B-A733-AEB3898BB77C";
shapes = (
{
closed = 1;
nodes = (
(520,-9,o),
(670,130,o),
(696,340,cs),
(721,540,o),
(613,683,o),
(408,684,cs,{
"Letterink-NibData" = {
AngleInDegrees = 270.22037;
};
}),
(172,685,l,{
"Letterink-NibData" = {
AngleInDegrees = 180;
};
}),
(172,649,l,{
"Letterink-NibData" = {
AngleInDegrees = 90;
};
}),
(401,649,ls,{
"Letterink-NibData" = {
AngleInDegrees = 93.25195;
};
}),
(588,649,o),
(680,526,o),
(657,341,cs,{
"Letterink-NibData" = {
AngleInDegrees = 180;
};
}),
(632,142,o),
(503,26,o),
(296,26,cs,{
"Letterink-NibData" = {
AngleInDegrees = 270;
};
}),
(232,26,o),
(146,29,o),
(129,31,c),
(206,649,l,{
"Letterink-NibData" = {
AngleInDegrees = 270;
};
}),
(168,649,l,{
"Letterink-NibData" = {
AngleInDegrees = 180;
};
}),
(88,0,l,{
"Letterink-NibData" = {
AngleInDegrees = 94.18492;
};
}),
(128,-3,ls,{
"Letterink-NibData" = {
AngleInDegrees = 94.20536;
};
}),
(194,-8,o),
(238,-9,o),
(318,-9,cs,{
"Letterink-NibData" = {
AngleInDegrees = 90;
};
})
);
}
);
width = 737;
},
{
anchors = (
{
name = bottom;
pos = (386,-2);
},
{
name = center;
pos = (263,353);
},
{
name = top;
pos = (479,684);
}
);
hints = (
{
name = _corner.caps_left;
origin = (0,6);
type = Corner;
}
);
layerId = m004;
shapes = (
{
closed = 1;
nodes = (
(572,-15,o),
(742,131,o),
(768,338,cs),
(792,527,o),
(672,683,o),
(469,684,cs,{
"Letterink-NibData" = {
AngleInDegrees = "270.21459";
};
}),
(193,685,l,{
"Letterink-NibData" = {
AngleInDegrees = "180";
};
}),
(196,537,l,{
"Letterink-NibData" = {
AngleInDegrees = "90";
};
}),
(457,536,ls,{
"Letterink-NibData" = {
AngleInDegrees = "92.97373";
};
}),
(568,536,o),
(618,465,o),
(604,351,cs,{
"Letterink-NibData" = {
AngleInDegrees = "180";
};
}),
(588,221,o),
(503,141,o),
(381,141,cs,{
"Letterink-NibData" = {
AngleInDegrees = "270";
};
}),
(353,141,o),
(335,141,o),
(312,145,c),
(377,655,l,{
"Letterink-NibData" = {
AngleInDegrees = "270";
};
}),
(212,655,l,{
"Letterink-NibData" = {
AngleInDegrees = "180";
};
}),
(133,5,l,{
"Letterink-NibData" = {
AngleInDegrees = "95.10217";
};
}),
(205,-3,ls,{
"Letterink-NibData" = {
AngleInDegrees = "95.12819";
};
}),
(244,-7,o),
(277,-8,o),
(360,-10,cs,{
"Letterink-NibData" = {
AngleInDegrees = "90";
};
})
);
}
);
width = 787;
}
);
metricLeft = E;
metricRight = O;
unicode = 68;
userData = {
position = 674;
width = 60;
};
},
{
glyphname = D.ss01;
kernLeft = L;
kernRight = O;
layers = (
{
anchors = (
{
name = bottom;
pos = (263,-10);
},
{
name = center;
pos = (164,367);
},
{
name = top;
pos = (335,681);
}
);
layerId = "0CAF3BED-C4AC-4024-B3E1-4C69D1EF7EC0";
shapes = (
{
closed = 1;
nodes = (
(469,-10,o),
(628,134,o),
(654,338,cs),
(679,533,o),
(566,684,o),
(376,684,c,{
"Letterink-NibData" = {
AngleInDegrees = 270.21459;
};
}),
(121,685,l,{
"Letterink-NibData" = {
AngleInDegrees = 180;
};
}),
(112,608,l,{
"Letterink-NibData" = {
AngleInDegrees = 90;
};
}),
(359,608,l,{
"Letterink-NibData" = {
AngleInDegrees = 92.97373;
};
}),
(518,608,o),
(592,503,o),
(572,343,cs,{
"Letterink-NibData" = {
AngleInDegrees = 180;
};
}),
(550,165,o),
(430,65,o),
(236,65,cs,{
"Letterink-NibData" = {
AngleInDegrees = 270;
};
}),
(207,65,o),
(167,67,o),
(126,70,c),
(199,651,l,{
"Letterink-NibData" = {
AngleInDegrees = 270;
};
}),
(117,651,l,{
"Letterink-NibData" = {
AngleInDegrees = 180;
};
}),
(37,1,l,{
"Letterink-NibData" = {
AngleInDegrees = 95.10217;
};
}),
(94,-4,ls,{
"Letterink-NibData" = {
AngleInDegrees = 95.12819;
};
}),
(160,-10,o),
(162,-10,o),
(266,-10,cs,{
"Letterink-NibData" = {
AngleInDegrees = 90;
};
})
);
}
);
width = 687;
},
{
anchors = (
{
name = bottom;
pos = (212,-11);
},
{
name = center;
pos = (131,358);
},
{
name = top;
pos = (363,686);
}
);
layerId = "49C16FD3-6177-408B-A733-AEB3898BB77C";
shapes = (
{
closed = 1;
nodes = (
(481,-9,o),
(631,130,o),
(657,340,cs),
(682,540,o),
(573,684,o),
(381,684,c,{
"Letterink-NibData" = {
AngleInDegrees = 270.22037;
};
}),
(133,685,l,{
"Letterink-NibData" = {
AngleInDegrees = 180;
};
}),
(129,649,l,{
"Letterink-NibData" = {
AngleInDegrees = 90;
};
}),
(370,649,l,{
"Letterink-NibData" = {
AngleInDegrees = 93.25195;
};
}),
(547,649,o),
(641,526,o),
(618,341,cs,{
"Letterink-NibData" = {
AngleInDegrees = 180;
};
}),
(593,142,o),
(464,26,o),
(257,26,cs,{
"Letterink-NibData" = {
AngleInDegrees = 270;
};
}),
(193,26,o),
(107,29,o),
(90,31,c),
(167,649,l,{
"Letterink-NibData" = {
AngleInDegrees = 270;
};
}),
(129,649,l,{
"Letterink-NibData" = {
AngleInDegrees = 180;
};
}),
(49,0,l,{
"Letterink-NibData" = {
AngleInDegrees = 94.18492;
};
}),
(89,-3,ls,{
"Letterink-NibData" = {
AngleInDegrees = 94.20536;
};
}),
(155,-8,o),
(199,-9,o),
(279,-9,cs,{
"Letterink-NibData" = {
AngleInDegrees = 90;
};
})
);
}
);
width = 698;
},
{
anchors = (
{
name = bottom;
pos = (244,-10);
},
{
name = center;
pos = (181,360);
},
{
name = top;
pos = (319,686);
}
);
layerId = m004;
shapes = (
{
closed = 1;
nodes = (
(479,-14,o),
(634,147,o),
(658,338,cs),
(681,519,o),
(568,684,o),
(362,684,c,{
"Letterink-NibData" = {
AngleInDegrees = "270.21459";
};
}),
(106,684,l,{
"Letterink-NibData" = {
AngleInDegrees = "180";
};
}),
(87,532,l,{
"Letterink-NibData" = {
AngleInDegrees = "90";
};
}),
(347,532,l,{
"Letterink-NibData" = {
AngleInDegrees = "92.97373";
};
}),
(470,528,o),
(506,452,o),
(494,351,cs,{
"Letterink-NibData" = {
AngleInDegrees = "180";
};
}),
(478,216,o),
(389,141,o),
(271,141,cs,{
"Letterink-NibData" = {
AngleInDegrees = "270";
};
}),
(253,141,o),
(226,140,o),
(202,145,c),
(267,655,l,{
"Letterink-NibData" = {
AngleInDegrees = "270";
};
}),
(102,655,l,{
"Letterink-NibData" = {
AngleInDegrees = "180";
};
}),
(23,5,l,{
"Letterink-NibData" = {
AngleInDegrees = "95.10217";
};
}),
(115,-4,ls,{
"Letterink-NibData" = {
AngleInDegrees = "95.12819";
};
}),
(118,-4,o),
(121,-8,o),
(250,-10,cs,{
"Letterink-NibData" = {
AngleInDegrees = "90";
};
})
);
}
);
width = 677;
}
);
metricLeft = "=|H";
metricRight = O;
userData = {
position = 674;
width = 60;
};
},
{
glyphname = D.swsh;
kernLeft = Swash;
kernRight = O;
layers = (
{
background = {
anchors = (
{
name = bottom;
pos = (402,0);
},
{
name = center;
pos = (427,11);
},
{
name = top;
pos = (427,11);
}
);
hints = (
{
name = _corner.caps_swash;
origin = (0,7);
type = Corner;
}
);
shapes = (
{
closed = 1;
nodes = (
(366,-10,ls,{
"Letterink-NibData" = {
AngleInDegrees = 90;
};
}),
(570,-10,o),
(715,138,o),
(715,342,cs),
(715,532,o),
(588,678,o),
(396,690,c,{
"Letterink-NibData" = {
AngleInDegrees = 270.20033;
};
}),
(140,691,l,{
"Letterink-NibData" = {
AngleInDegrees = 180;
};
}),
(140,615,l,{
"Letterink-NibData" = {
AngleInDegrees = 90;
};
}),
(385,615,l,{
"Letterink-NibData" = {
AngleInDegrees = 93.55173;
};
}),
(530,606,o),
(633,517,o),
(633,342,cs,{
"Letterink-NibData" = {
AngleInDegrees = 180;
};
}),
(633,175,o),
(540,66,o),
(328,66,cs,{
"Letterink-NibData" = {
AngleInDegrees = 270;
};
}),
(301,66,o),
(275,69,o),
(241,71,c),
(241,559,l,{
"Letterink-NibData" = {
AngleInDegrees = 270;
};
}),
(159,559,l,{
"Letterink-NibData" = {
AngleInDegrees = 180;
};
}),
(159,1,l,{
"Letterink-NibData" = {
AngleInDegrees = 95.01311;
};
}),
(216,-4,ls,{
"Letterink-NibData" = {
AngleInDegrees = 94.93922;
};
}),
(285,-10,o),
(284,-10,o),
(326,-10,cs,{
"Letterink-NibData" = {
AngleInDegrees = 90;
};
})
);
}
);
};
hints = (
{
name = _corner.caps_swash;
origin = (0,6);
type = Corner;
}
);
layerId = "0CAF3BED-C4AC-4024-B3E1-4C69D1EF7EC0";
shapes = (
{
closed = 1;
nodes = (
(540,-10,o),
(699,134,o),
(725,338,cs),
(750,533,o),
(637,672,o),
(447,684,c,{
"Letterink-NibData" = {
AngleInDegrees = "270.21459";
};
}),
(192,684,l,{
"Letterink-NibData" = {
AngleInDegrees = "180";
};
}),
(191,608,l,{
"Letterink-NibData" = {
AngleInDegrees = "90";
};
}),
(430,608,l,{
"Letterink-NibData" = {
AngleInDegrees = "92.97373";
};
}),
(586,600,o),
(663,503,o),
(643,343,cs,{
"Letterink-NibData" = {
AngleInDegrees = "180";
};
}),
(621,165,o),
(501,65,o),
(307,65,cs,{
"Letterink-NibData" = {
AngleInDegrees = "270";
};
}),
(278,65,o),
(238,67,o),
(197,70,c),
(259,560,l,{
"Letterink-NibData" = {
AngleInDegrees = "270";
};
}),
(177,560,l,{
"Letterink-NibData" = {
AngleInDegrees = "180";
};
}),
(108,1,l,{
"Letterink-NibData" = {
AngleInDegrees = "95.10217";
};
}),
(165,-4,ls,{
"Letterink-NibData" = {
AngleInDegrees = "95.12819";
};
}),
(231,-10,o),
(233,-10,o),
(337,-10,cs,{
"Letterink-NibData" = {
AngleInDegrees = "90";
};
})
);
}
);
width = 758;
},
{
background = {
anchors = (
{
name = bottom;
pos = (398,0);
},
{
name = center;
pos = (416,-8);
},
{
name = top;
pos = (416,-8);
}
);
hints = (
{
name = _corner.caps_swash;
origin = (0,7);
type = Corner;
}
);
shapes = (
{
closed = 1;
nodes = (
(365,-9,ls,{
"Letterink-NibData" = {
AngleInDegrees = 90;
};
}),
(553,-9,o),
(702,122,o),
(702,342,cs),
(702,535,o),
(587,690,o),
(385,690,c,{
"Letterink-NibData" = {
AngleInDegrees = 270.19689;
};
}),
(124,691,l,{
"Letterink-NibData" = {
AngleInDegrees = 180;
};
}),
(124,651,l,{
"Letterink-NibData" = {
AngleInDegrees = 90;
};
}),
(375,651,l,{
"Letterink-NibData" = {
AngleInDegrees = 90;
};
}),
(538,651,o),
(660,535,o),
(660,349,cs,{
"Letterink-NibData" = {
AngleInDegrees = 180;
};
}),
(660,161,o),
(551,30,o),
(337,30,cs,{
"Letterink-NibData" = {
AngleInDegrees = 270;
};
}),
(314,30,o),
(258,32,o),
(196,35,c),
(196,573,l,{
"Letterink-NibData" = {
AngleInDegrees = 270;
};
}),
(154,573,l,{
"Letterink-NibData" = {
AngleInDegrees = 180;
};
}),
(154,0,l,{
"Letterink-NibData" = {
AngleInDegrees = 94.28915;
};
}),
(194,-3,ls,{
"Letterink-NibData" = {
AngleInDegrees = 93.66779;
};
}),
(273,-9,o),
(282,-9,o),
(321,-9,cs,{
"Letterink-NibData" = {
AngleInDegrees = 90;
};
})
);
}
);
};
hints = (
{
name = _corner.caps_swash;
origin = (0,6);
type = Corner;
}
);
layerId = "49C16FD3-6177-408B-A733-AEB3898BB77C";
shapes = (
{
closed = 1;
nodes = (
(535,-9,o),
(685,130,o),
(711,340,cs),
(736,540,o),
(627,673,o),
(435,685,c,{
"Letterink-NibData" = {
AngleInDegrees = "270.22037";
};
}),
(187,685,l,{
"Letterink-NibData" = {
AngleInDegrees = "180";
};
}),
(186,649,l,{
"Letterink-NibData" = {
AngleInDegrees = "90";
};
}),
(424,649,l,{
"Letterink-NibData" = {
AngleInDegrees = 93.25194999999999;
};
}),
(601,639,o),
(694,525,o),
(672,341,cs,{
"Letterink-NibData" = {
AngleInDegrees = "180";
};
}),
(648,142,o),
(518,26,o),
(311,26,cs,{
"Letterink-NibData" = {
AngleInDegrees = "270";
};
}),
(247,26,o),
(161,29,o),
(144,31,c),
(211,569,l,{
"Letterink-NibData" = {
AngleInDegrees = "270";
};
}),
(173,569,l,{
"Letterink-NibData" = {
AngleInDegrees = "180";
};
}),
(103,0,l,{
"Letterink-NibData" = {
AngleInDegrees = 94.18492000000001;
};
}),
(143,-3,ls,{
"Letterink-NibData" = {
AngleInDegrees = "94.20536";
};
}),
(209,-8,o),
(253,-9,o),
(333,-9,cs,{
"Letterink-NibData" = {
AngleInDegrees = "90";
};
})
);
}
);
width = 752;
},
{
background = {
anchors = (
{
name = bottom;
pos = (477,0);
},
{
name = center;
pos = (502,11);
},
{
name = top;
pos = (502,11);
}
);
hints = (
{
name = _corner.caps_swash;
origin = (0,7);
type = Corner;
}
);
shapes = (
{
closed = 1;
nodes = (
(441,-10,ls,{
"Letterink-NibData" = {
AngleInDegrees = 90;
};
}),
(645,-10,o),
(790,138,o),
(790,342,cs),
(790,532,o),
(663,678,o),
(471,690,c,{
"Letterink-NibData" = {
AngleInDegrees = 270.20033;
};
}),
(215,691,l,{
"Letterink-NibData" = {
AngleInDegrees = 180;
};
}),
(215,615,l,{
"Letterink-NibData" = {
AngleInDegrees = 90;
};
}),
(460,615,l,{
"Letterink-NibData" = {
AngleInDegrees = 93.55173;
};
}),
(605,606,o),
(708,517,o),
(708,342,cs,{
"Letterink-NibData" = {
AngleInDegrees = 180;
};
}),
(708,175,o),
(615,66,o),
(403,66,cs,{
"Letterink-NibData" = {
AngleInDegrees = 270;
};
}),
(376,66,o),
(350,69,o),
(316,71,c),
(316,559,l,{
"Letterink-NibData" = {
AngleInDegrees = 270;
};
}),
(234,559,l,{
"Letterink-NibData" = {
AngleInDegrees = 180;
};
}),
(234,1,l,{
"Letterink-NibData" = {
AngleInDegrees = 95.01311;
};
}),
(291,-4,ls,{
"Letterink-NibData" = {
AngleInDegrees = 94.93922;
};
}),
(360,-10,o),
(359,-10,o),
(401,-10,cs,{
"Letterink-NibData" = {
AngleInDegrees = 90;
};
})
);
}
);
};
hints = (
{
name = _corner.caps_swash;
origin = (0,6);
type = Corner;
}
);
layerId = m004;
shapes = (
{
closed = 1;
nodes = (
(609,-10,o),
(763,147,o),
(786,333,cs),
(809,519,o),
(697,672,o),
(504,684,c,{
"Letterink-NibData" = {
AngleInDegrees = "270.21459";
};
}),
(215,685,l,{
"Letterink-NibData" = {
AngleInDegrees = "180";
};
}),
(217,537,l,{
"Letterink-NibData" = {
AngleInDegrees = "90";
};
}),
(477,537,l,{
"Letterink-NibData" = {
AngleInDegrees = "92.97373";
};
}),
(599,533,o),
(635,452,o),
(623,354,cs,{
"Letterink-NibData" = {
AngleInDegrees = "180";
};
}),
(606,216,o),
(510,141,o),
(397,141,cs,{
"Letterink-NibData" = {
AngleInDegrees = "270";
};
}),
(382,141,o),
(353,143,o),
(331,146,c),
(377,499,l,{
"Letterink-NibData" = {
AngleInDegrees = "270";
};
}),
(212,499,l,{
"Letterink-NibData" = {
AngleInDegrees = "180";
};
}),
(152,5,l,{
"Letterink-NibData" = {
AngleInDegrees = "95.10217";
};
}),
(244,-4,ls,{
"Letterink-NibData" = {
AngleInDegrees = "95.12819";
};
}),
(277,-7,o),
(322,-10,o),
(354,-10,cs,{
"Letterink-NibData" = {
AngleInDegrees = "90";
};
})
);
}
);
width = 806;
}
);
metricLeft = E;
metricRight = O;
userData = {
position = 674;
width = 60;
};
},
{
glyphname = E;
kernLeft = E;
kernRight = E;
layers = (
{
anchors = (
{
name = bottom;
pos = (351,2);
},
{
name = ogonek;
pos = (562,-1);
},
{
name = top;
pos = (396,684);
},
{
name = topleft;
pos = (105,684);
}
);
hints = (
{
name = _corner.caps_left;
origin = (0,10);
type = Corner;
}
);
layerId = "0CAF3BED-C4AC-4024-B3E1-4C69D1EF7EC0";
shapes = (
{
closed = 1;
nodes = (
(562,-1,l),
(571,75,l,{
"Letterink-NibData" = {
AngleInDegrees = "270";
};
}),
(184,75,l),
(215,323,l,{
"Letterink-NibData" = {
AngleInDegrees = "90";
};
}),
(486,323,l),
(495,399,l,{
"Letterink-NibData" = {
AngleInDegrees = "270";
};
}),
(224,399,l),
(250,608,l,{
"Letterink-NibData" = {
AngleInDegrees = "90";
};
}),
(618,608,l),
(627,684,l,{
"Letterink-NibData" = {
AngleInDegrees = "270";
};
}),
(167,684,l,{
"Letterink-NibData" = {
AngleInDegrees = "180";
};
}),
(168,609,l),
(93,-1,l,{
"Letterink-NibData" = {
AngleInDegrees = "90";
};
})
);
}
);
width = 629;
},
{
anchors = (
{
name = bottom;
pos = (296,0);
},
{
name = ogonek;
pos = (515,1);
},
{
name = top;
pos = (387,684);
},
{
name = topleft;
pos = (73,684);
}
);
hints = (
{
name = _corner.caps_left;
origin = (0,10);
type = Corner;
}
);
layerId = "49C16FD3-6177-408B-A733-AEB3898BB77C";
shapes = (
{
closed = 1;
nodes = (
(516,0,l),
(520,36,l,{
"Letterink-NibData" = {
AngleInDegrees = 270;
};
}),
(134,36,l),
(172,346,l,{
"Letterink-NibData" = {
AngleInDegrees = 90;
};
}),
(435,346,l),
(440,382,l,{
"Letterink-NibData" = {
AngleInDegrees = 270;
};
}),
(177,382,l),
(210,648,l,{
"Letterink-NibData" = {
AngleInDegrees = 90;
};
}),
(598,648,l),
(602,684,l,{
"Letterink-NibData" = {
AngleInDegrees = 269.86613;
};
}),
(172,684,l,{
"Letterink-NibData" = {
AngleInDegrees = 180;
};
}),
(172,649,l),
(92,0,l,{
"Letterink-NibData" = {
AngleInDegrees = 90;
};
})
);
}
);
width = 591;
},
{
anchors = (
{
name = bottom;
pos = (389,0);
},
{
name = ogonek;
pos = (592,0);
},
{
name = top;
pos = (436,684);
},
{
name = topleft;
pos = (214,684);
}
);
hints = (
{
name = _corner.caps_left;
origin = (0,10);
type = Corner;
}
);
layerId = m004;
shapes = (
{
closed = 1;
nodes = (
(592,0,l),
(610,148,l,{
"Letterink-NibData" = {
AngleInDegrees = "270";
};
}),
(314,148,l),
(330,273,l,{
"Letterink-NibData" = {
AngleInDegrees = "90";
};
}),
(530,273,l),
(548,421,l,{
"Letterink-NibData" = {
AngleInDegrees = "270";
};
}),
(348,421,l),
(362,536,l,{
"Letterink-NibData" = {
AngleInDegrees = "90";
};
}),
(648,536,l),
(666,684,l,{
"Letterink-NibData" = {
AngleInDegrees = "270";
};
}),
(199,684,l,{
"Letterink-NibData" = {
AngleInDegrees = "180";
};
}),
(196,536,l),
(130,0,l,{
"Letterink-NibData" = {
AngleInDegrees = "90";
};
})
);
}
);
width = 663;
}
);
unicode = 69;
userData = {
position = 130;
width = 61;
};
},
{
glyphname = E.ss01;
kernLeft = L;
kernRight = E;
layers = (
{
anchors = (
{
name = bottom;
pos = (275,0);
},
{
name = ogonek;
pos = (506,-1);
},
{
name = top;
pos = (361,685);
},
{
name = topleft;
pos = (57,684);
}
);
layerId = "0CAF3BED-C4AC-4024-B3E1-4C69D1EF7EC0";
shapes = (
{
closed = 1;
nodes = (
(506,-1,l),
(515,75,l,{
"Letterink-NibData" = {
AngleInDegrees = 270;
};
}),
(128,75,l),
(159,323,l,{
"Letterink-NibData" = {
AngleInDegrees = 90;
};
}),
(430,323,l),
(439,399,l,{
"Letterink-NibData" = {
AngleInDegrees = 270;
};
}),
(168,399,l),
(194,608,l,{
"Letterink-NibData" = {
AngleInDegrees = 90;
};
}),
(562,608,l),
(571,684,l,{
"Letterink-NibData" = {
AngleInDegrees = 270;
};
}),
(121,684,l,{
"Letterink-NibData" = {
AngleInDegrees = 180;
};
}),
(37,-1,l,{
"Letterink-NibData" = {
AngleInDegrees = 90;
};
})
);
}
);
width = 573;
},
{
anchors = (
{
name = bottom;
pos = (278,2);
},
{
name = ogonek;
pos = (500,1);
},
{
name = top;
pos = (360,684);
},
{
name = topleft;
pos = (68,684);
}
);
layerId = "49C16FD3-6177-408B-A733-AEB3898BB77C";
shapes = (
{
closed = 1;
nodes = (
(500,0,l),
(504,36,l,{
"Letterink-NibData" = {
AngleInDegrees = 270;
};
}),
(92,36,l),
(130,346,l,{
"Letterink-NibData" = {
AngleInDegrees = 90;
};
}),
(419,346,l),
(424,382,l,{
"Letterink-NibData" = {
AngleInDegrees = 270;
};
}),
(135,382,l),
(168,649,l,{
"Letterink-NibData" = {
AngleInDegrees = 90;
};
}),
(560,649,l),
(564,685,l,{
"Letterink-NibData" = {
AngleInDegrees = 270;
};
}),
(133,685,l,{
"Letterink-NibData" = {
AngleInDegrees = 180;
};
}),
(49,0,l,{
"Letterink-NibData" = {
AngleInDegrees = 90;
};
})
);
}
);
width = 573;
},
{
anchors = (
{
name = bottom;
pos = (278,0);
},
{
name = ogonek;
pos = (513,0);
},
{
name = top;
pos = (349,687);
},
{
name = topleft;
pos = (105,684);
}
);
layerId = m004;
shapes = (
{
closed = 1;
nodes = (
(513,0,l),
(531,148,l,{
"Letterink-NibData" = {
AngleInDegrees = 270;
};
}),
(205,148,l),
(221,273,l,{
"Letterink-NibData" = {
AngleInDegrees = 90;
};
}),
(451,273,l),
(469,421,l,{
"Letterink-NibData" = {
AngleInDegrees = 270;
};
}),
(239,421,l),
(253,536,l,{
"Letterink-NibData" = {
AngleInDegrees = 90;
};
}),
(569,536,l),
(587,684,l,{
"Letterink-NibData" = {
AngleInDegrees = 270;
};
}),
(105,684,l,{
"Letterink-NibData" = {
AngleInDegrees = 180;
};
}),
(21,0,l,{
"Letterink-NibData" = {
AngleInDegrees = 90;
};
})
);
}
);
width = 584;
}
);
metricLeft = N.ss01;
metricRight = E;
userData = {
position = 95;
width = 61;
};
},
{
glyphname = E.swsh;
kernLeft = Swash;
kernRight = E;
layers = (
{
anchors = (
{
name = bottom;
pos = (370,0);
},
{
name = ogonek;
pos = (588,0);
},
{
name = top;
pos = (447,684);
},
{
name = topleft;
pos = (55,684);
}
);
hints = (
{
name = _corner.caps_swash;
origin = (1,2);
type = Corner;
}
);
layerId = "0CAF3BED-C4AC-4024-B3E1-4C69D1EF7EC0";
shapes = (
{
closed = 1;
nodes = (
(588,0,l),
(597,76,l,{
"Letterink-NibData" = {
AngleInDegrees = 270;
};
}),
(231,76,l),
(262,325,l,{
"Letterink-NibData" = {
AngleInDegrees = 90;
};
}),
(512,325,l),
(521,401,l,{
"Letterink-NibData" = {
AngleInDegrees = 270;
};
}),
(271,401,l),
(291,559,l,{
"Letterink-NibData" = {
AngleInDegrees = 270;
};
}),
(209,559,l,{
"Letterink-NibData" = {
AngleInDegrees = 180;
};
}),
(140,0,l,{
"Letterink-NibData" = {
AngleInDegrees = 90;
};
})
);
},
{
closed = 1;
nodes = (
(663,609,l),
(672,685,l,{
"Letterink-NibData" = {
AngleInDegrees = 270;
};
}),
(189,685,l,{
"Letterink-NibData" = {
AngleInDegrees = 180;
};
}),
(190,609,l,{
"Letterink-NibData" = {
AngleInDegrees = 90;
};
})
);
}
);
width = 655;
},
{
anchors = (
{
name = bottom;
pos = (359,0);
},
{
name = ogonek;
pos = (567,0);
},
{
name = top;
pos = (433,684);
},
{
name = topleft;
pos = (37,684);
}
);
hints = (
{
name = _corner.caps_swash;
origin = (1,2);
type = Corner;
}
);
layerId = "49C16FD3-6177-408B-A733-AEB3898BB77C";
shapes = (
{
closed = 1;
nodes = (
(567,0,l),
(571,36,l,{
"Letterink-NibData" = {
AngleInDegrees = 270;
};
}),
(179,36,l),
(217,346,l,{
"Letterink-NibData" = {
AngleInDegrees = 90;
};
}),
(485,346,l),
(490,382,l,{
"Letterink-NibData" = {
AngleInDegrees = 270;
};
}),
(222,382,l),
(245,570,l,{
"Letterink-NibData" = {
AngleInDegrees = 270;
};
}),
(208,570,l,{
"Letterink-NibData" = {
AngleInDegrees = 180;
};
}),
(138,0,l,{
"Letterink-NibData" = {
AngleInDegrees = 90;
};
})
);
},
{
closed = 1;
nodes = (
(647,648,l),
(651,684,l,{
"Letterink-NibData" = {
AngleInDegrees = 270;
};
}),
(184,684,l,{
"Letterink-NibData" = {
AngleInDegrees = 180;
};
}),
(184,648,l,{
"Letterink-NibData" = {
AngleInDegrees = 90;
};
})
);
}
);
width = 640;
},
{
anchors = (
{
name = bottom;
pos = (403,0);
},
{
name = ogonek;
pos = (634,0);
},
{
name = top;
pos = (475,684);
},
{
name = topleft;
pos = (32,728);
}
);
hints = (
{
name = _corner.caps_swash;
origin = (1,2);
type = Corner;
}
);
layerId = m004;
shapes = (
{
closed = 1;
nodes = (
(634,0,l),
(652,148,l,{
"Letterink-NibData" = {
AngleInDegrees = "270";
};
}),
(336,148,l),
(352,276,l,{
"Letterink-NibData" = {
AngleInDegrees = "90";
};
}),
(572,276,l),
(590,424,l,{
"Letterink-NibData" = {
AngleInDegrees = "270";
};
}),
(370,424,l),
(380,501,l,{
"Letterink-NibData" = {
AngleInDegrees = "90";
};
}),
(213,500,l,{
"Letterink-NibData" = {
AngleInDegrees = "180";
};
}),
(152,0,l,{
"Letterink-NibData" = {
AngleInDegrees = "90";
};
})
);
},
{
closed = 1;
nodes = (
(690,536,l),
(708,684,l,{
"Letterink-NibData" = {
AngleInDegrees = "270";
};
}),
(221,684,l,{
"Letterink-NibData" = {
AngleInDegrees = "180";
};
}),
(218,536,l)
);
}
);
width = 705;
}
);
metricLeft = E;
metricRight = E;
userData = {
position = 130;
width = 61;
};
},
{
glyphname = Schwa;
kernLeft = O;
kernRight = O;
layers = (
{
anchors = (
{
name = bottom;
pos = (297,-1);
},
{
name = ogonek;
pos = (131,621);
},
{
name = top;
pos = (367,704);
}
);
layerId = "49C16FD3-6177-408B-A733-AEB3898BB77C";
shapes = (
{
closed = 1;
nodes = (
(267,704,o),
(194,676,o),
(112,616,c,{
"Letterink-NibData" = {
AngleInDegrees = 324.09028;
};
}),
(131,587,l,{
"Letterink-NibData" = {
AngleInDegrees = 237.68038;
};
}),
(199,635,o),
(272,667,o),
(362,667,cs,{
"Letterink-NibData" = {
AngleInDegrees = 270;
};
}),
(528,667,o),
(612,564,o),
(597,387,c,{
"Letterink-NibData" = {
AngleInDegrees = 90;
};
}),
(570,392,o),
(450,399,o),
(395,399,cs,{
"Letterink-NibData" = {
AngleInDegrees = 90;
};
}),
(208,399,o),
(88,325,o),
(71,191,cs),
(56,71,o),
(136,-13,o),
(269,-13,cs,{
"Letterink-NibData" = {
AngleInDegrees = 270;
};
}),
(454,-13,o),
(606,147,o),
(632,360,cs,{
"Letterink-NibData" = {
AngleInDegrees = 180;
};
}),
(659,582,o),
(553,704,o),
(363,704,cs,{
"Letterink-NibData" = {
AngleInDegrees = 90;
};
})
);
},
{
closed = 1;
nodes = (
(500,358,o),
(569,352,o),
(593,350,c,{
"Letterink-NibData" = {
AngleInDegrees = 357.92997;
};
}),
(569,169,o),
(423,25,o),
(266,25,cs,{
"Letterink-NibData" = {
AngleInDegrees = 90;
};
}),
(159,25,o),
(96,96,o),
(108,187,cs,{
"Letterink-NibData" = {
AngleInDegrees = 180;
};
}),
(123,298,o),
(230,363,o),
(394,360,cs,{
"Letterink-NibData" = {
AngleInDegrees = 270;
};
})
);
}
);
userData = {
RMXScaler = {
height = 140;
verticalShift = -260;
width = 135;
};
};
width = 685;
},
{
anchors = (
{
name = bottom;
pos = (306,-2);
},
{
name = ogonek;
pos = (126,617);
},
{
name = top;
pos = (380,697);
}
);
layerId = "0CAF3BED-C4AC-4024-B3E1-4C69D1EF7EC0";
shapes = (
{
closed = 1;
nodes = (
(274,709,o),
(184,678,o),
(103,614,c,{
"Letterink-NibData" = {
AngleInDegrees = 321.70984;
};
}),
(140,555,l,{
"Letterink-NibData" = {
AngleInDegrees = 233.56914;
};
}),
(210,604,o),
(283,633,o),
(362,633,cs,{
"Letterink-NibData" = {
AngleInDegrees = 270;
};
}),
(498,633,o),
(570,550,o),
(562,406,c,{
"Letterink-NibData" = {
AngleInDegrees = 91.10171;
};
}),
(544,409,o),
(445,417,o),
(414,417,cs,{
"Letterink-NibData" = {
AngleInDegrees = 91.29217;
};
}),
(210,417,o),
(80,335,o),
(63,200,cs),
(47,73,o),
(135,-20,o),
(276,-20,cs,{
"Letterink-NibData" = {
AngleInDegrees = 270;
};
}),
(460,-20,o),
(616,134,o),
(644,359,cs,{
"Letterink-NibData" = {
AngleInDegrees = 180;
};
}),
(670,571,o),
(564,709,o),
(367,709,cs,{
"Letterink-NibData" = {
AngleInDegrees = 90;
};
})
);
},
{
closed = 1;
nodes = (
(475,340,o),
(501,339,o),
(559,334,c,{
"Letterink-NibData" = {
AngleInDegrees = 3.91825;
};
}),
(531,173,o),
(408,56,o),
(276,56,cs,{
"Letterink-NibData" = {
AngleInDegrees = 90;
};
}),
(188,56,o),
(133,110,o),
(143,191,cs,{
"Letterink-NibData" = {
AngleInDegrees = 180;
};
}),
(155,290,o),
(248,344,o),
(413,341,cs,{
"Letterink-NibData" = {
AngleInDegrees = 270;
};
})
);
}
);
userData = {
RMXScaler = {
height = 140;
verticalShift = -260;
width = 135;
};
};
width = 688;
},
{
anchors = (
{
name = bottom;
pos = (305,-10);
},
{
name = ogonek;
pos = (100,610);
},
{
name = top;
pos = (389,700);
}
);
layerId = m004;
shapes = (
{
closed = 1;
nodes = (
(274,722,o),
(168,682,o),
(85,611,c,{
"Letterink-NibData" = {
AngleInDegrees = 321.70984;
};
}),
(159,494,l,{
"Letterink-NibData" = {
AngleInDegrees = "241.22019";
};
}),
(218,541,o),
(293,571,o),
(361,571,cs,{
"Letterink-NibData" = {
AngleInDegrees = "270";
};
}),
(446,571,o),
(499,522,o),
(493,434,c,{
"Letterink-NibData" = {
AngleInDegrees = 91.10171;
};
}),
(464,436,o),
(405,441,o),
(395,441,cs,{
"Letterink-NibData" = {
AngleInDegrees = 91.29217;
};
}),
(197,441,o),
(64,355,o),
(47,215,cs),
(30,76,o),
(126,-28,o),
(284,-30,cs,{
"Letterink-NibData" = {
AngleInDegrees = 270;
};
}),
(476,-32,o),
(637,125,o),
(664,348,cs,{
"Letterink-NibData" = {
AngleInDegrees = 180;
};
}),
(691,574,o),
(574,719,o),
(374,721,cs,{
"Letterink-NibData" = {
AngleInDegrees = 90;
};
})
);
},
{
closed = 1;
nodes = (
(435,308,o),
(453,308,o),
(494,304,c,{
"Letterink-NibData" = {
AngleInDegrees = 3.91825;
};
}),
(469,196,o),
(386,113,o),
(293,113,cs,{
"Letterink-NibData" = {
AngleInDegrees = 90;
};
}),
(240,113,o),
(199,143,o),
(206,199,cs,{
"Letterink-NibData" = {
AngleInDegrees = 180;
};
}),
(215,269,o),
(277,304,o),
(395,307,cs,{
"Letterink-NibData" = {
AngleInDegrees = 270;
};
})
);
}
);
userData = {
RMXScaler = {
height = 140;
verticalShift = -260;
width = 135;
};
};
width = 692;
}
);
unicode = 399;
userData = {
RMXScaler = {
source = schwa;
};
};
},
{
glyphname = F;
kernLeft = E;
kernRight = F;
layers = (
{
anchors = (
{
name = bottom;
pos = (307,0);
},
{
name = top;
pos = (392,684);
}
);
hints = (
{
name = _corner.caps_left;
origin = (0,8);
type = Corner;
}
);
layerId = "0CAF3BED-C4AC-4024-B3E1-4C69D1EF7EC0";
shapes = (
{
closed = 1;
nodes = (
(176,-1,l),
(216,323,l,{
"Letterink-NibData" = {
AngleInDegrees = 90;
};
}),
(466,323,l),
(475,400,l,{
"Letterink-NibData" = {
AngleInDegrees = 270;
};
}),
(225,400,l),
(251,609,l,{
"Letterink-NibData" = {
AngleInDegrees = 90;
};
}),
(587,609,l),
(596,685,l,{
"Letterink-NibData" = {
AngleInDegrees = 270;
};
}),
(167,685,l,{
"Letterink-NibData" = {
AngleInDegrees = 179.91648;
};
}),
(168,609,l),
(94,-1,l,{
"Letterink-NibData" = {
AngleInDegrees = 90;
};
})
);
}
);
width = 572;
},
{
anchors = (
{
name = bottom;
pos = (304,-18);
},
{
name = top;
pos = (392,684);
}
);
hints = (
{
name = _corner.caps_left;
origin = (0,8);
type = Corner;
}
);
layerId = "49C16FD3-6177-408B-A733-AEB3898BB77C";
shapes = (
{
closed = 1;
nodes = (
(130,0,l),
(172,345,l,{
"Letterink-NibData" = {
AngleInDegrees = 90;
};
}),
(439,345,l),
(444,381,l,{
"Letterink-NibData" = {
AngleInDegrees = 270;
};
}),
(177,381,l),
(210,648,l,{
"Letterink-NibData" = {
AngleInDegrees = 90;
};
}),
(570,648,l),
(574,684,l,{
"Letterink-NibData" = {
AngleInDegrees = 270;
};
}),
(172,684,l,{
"Letterink-NibData" = {
AngleInDegrees = 180;
};
}),
(172,649,l),
(92,0,l,{
"Letterink-NibData" = {
AngleInDegrees = 90;
};
})
);
}
);
width = 555;
},
{
anchors = (
{
name = bottom;
pos = (373,-3);
},
{
name = top;
pos = (459,684);
}
);
background = {
anchors = (
{
name = bottom;
pos = (368,0);
},
{
name = top;
pos = (368,684);
}
);
hints = (
{
name = _corner.caps_left;
origin = (0,8);
type = Corner;
}
);
shapes = (
{
closed = 1;
nodes = (
(276,-1,l),
(276,323,l,{
"Letterink-NibData" = {
AngleInDegrees = 90;
};
}),
(526,323,l),
(526,400,l,{
"Letterink-NibData" = {
AngleInDegrees = 270;
};
}),
(276,400,l),
(276,609,l,{
"Letterink-NibData" = {
AngleInDegrees = 90;
};
}),
(622,609,l),
(622,685,l,{
"Letterink-NibData" = {
AngleInDegrees = 270;
};
}),
(193,685,l,{
"Letterink-NibData" = {
AngleInDegrees = 179.91648;
};
}),
(194,-1,l,{
"Letterink-NibData" = {
AngleInDegrees = 90;
};
})
);
}
);
};
hints = (
{
name = _corner.caps_left;
origin = (0,8);
type = Corner;
}
);
layerId = m004;
shapes = (
{
closed = 1;
nodes = (
(297,0,l),
(328,263,l,{
"Letterink-NibData" = {
AngleInDegrees = "90";
};
}),
(528,263,l),
(546,411,l,{
"Letterink-NibData" = {
AngleInDegrees = "270";
};
}),
(346,411,l),
(362,536,l,{
"Letterink-NibData" = {
AngleInDegrees = "90";
};
}),
(648,536,l),
(666,684,l,{
"Letterink-NibData" = {
AngleInDegrees = "270";
};
}),
(199,684,l,{
"Letterink-NibData" = {
AngleInDegrees = "180";
};
}),
(196,538,l),
(130,0,l,{
"Letterink-NibData" = {
AngleInDegrees = "90";
};
})
);
}
);
width = 645;
}
);
metricLeft = E;
metricRight = "=E*.8";
unicode = 70;
userData = {
position = 129;
width = 61;
};
},
{
glyphname = F.ss01;
kernRight = F;
layers = (
{
anchors = (
{
name = bottom;
pos = (251,0);
},
{
name = top;
pos = (336,684);
}
);
layerId = "0CAF3BED-C4AC-4024-B3E1-4C69D1EF7EC0";
shapes = (
{
closed = 1;
nodes = (
(120,-1,l),
(159,315,l,{
"Letterink-NibData" = {
AngleInDegrees = 90;
};
}),
(437,315,l),
(446,393,l,{
"Letterink-NibData" = {
AngleInDegrees = 270;
};
}),
(168,393,l),
(195,608,l,{
"Letterink-NibData" = {
AngleInDegrees = 90;
};
}),
(541,608,l),
(550,686,l,{
"Letterink-NibData" = {
AngleInDegrees = 270;
};
}),
(122,686,l,{
"Letterink-NibData" = {
AngleInDegrees = 180;
};
}),
(38,-1,l,{
"Letterink-NibData" = {
AngleInDegrees = 90;
};
})
);
}
);
width = 526;
},
{
anchors = (
{
name = bottom;
pos = (250,0);
},
{
name = top;
pos = (336,684);
}
);
layerId = "49C16FD3-6177-408B-A733-AEB3898BB77C";
shapes = (
{
closed = 1;
nodes = (
(90,1,l),
(131,337,l,{
"Letterink-NibData" = {
AngleInDegrees = 90;
};
}),
(428,337,l),
(433,372,l,{
"Letterink-NibData" = {
AngleInDegrees = 270;
};
}),
(136,372,l),
(170,648,l,{
"Letterink-NibData" = {
AngleInDegrees = 90;
};
}),
(539,648,l),
(543,685,l,{
"Letterink-NibData" = {
AngleInDegrees = 270;
};
}),
(133,685,l,{
"Letterink-NibData" = {
AngleInDegrees = 180;
};
}),
(49,1,l,{
"Letterink-NibData" = {
AngleInDegrees = 90;
};
})
);
}
);
width = 524;
},
{
anchors = (
{
name = bottom;
pos = (254,-11);
},
{
name = top;
pos = (341,684);
}
);
layerId = m004;
shapes = (
{
closed = 1;
nodes = (
(188,1,l),
(219,263,l,{
"Letterink-NibData" = {
AngleInDegrees = "90";
};
}),
(439,263,l),
(457,411,l,{
"Letterink-NibData" = {
AngleInDegrees = "270";
};
}),
(237,411,l),
(253,536,l,{
"Letterink-NibData" = {
AngleInDegrees = "90";
};
}),
(559,536,l),
(577,684,l,{
"Letterink-NibData" = {
AngleInDegrees = "270";
};
}),
(105,684,l,{
"Letterink-NibData" = {
AngleInDegrees = "180";
};
}),
(21,1,l,{
"Letterink-NibData" = {
AngleInDegrees = "90";
};
})
);
}
);
width = 556;
}
);
metricLeft = N.ss01;
metricRight = "=E*.8";
userData = {
position = 95;
width = 61;
};
},
{
glyphname = F.swsh;
kernLeft = Swash;
kernRight = F;
layers = (
{
anchors = (
{
name = bottom;
pos = (332,0);
},
{
name = top;
pos = (410,684);
}
);
hints = (
{
name = _corner.caps_swash;
origin = (1,2);
type = Corner;
}
);
layerId = "0CAF3BED-C4AC-4024-B3E1-4C69D1EF7EC0";
shapes = (
{
closed = 1;
nodes = (
(223,-1,l),
(267,360,l,{
"Letterink-NibData" = {
AngleInDegrees = 90;
};
}),
(226,324,l,{
"Letterink-NibData" = {
AngleInDegrees = 90;
};
}),
(512,324,l),
(521,400,l,{
"Letterink-NibData" = {
AngleInDegrees = 270;
};
}),
(237,400,l),
(268,364,l),
(292,559,l,{
"Letterink-NibData" = {
AngleInDegrees = 270;
};
}),
(209,559,l,{
"Letterink-NibData" = {
AngleInDegrees = 180;
};
}),
(140,-1,l,{
"Letterink-NibData" = {
AngleInDegrees = 90;
};
})
);
},
{
closed = 1;
nodes = (
(643,608,l),
(652,684,l,{
"Letterink-NibData" = {
AngleInDegrees = 270;
};
}),
(188,684,l,{
"Letterink-NibData" = {
AngleInDegrees = 180;
};
}),
(189,608,l,{
"Letterink-NibData" = {
AngleInDegrees = 90;
};
})
);
}
);
width = 628;
},
{
anchors = (
{
name = bottom;
pos = (317,0);
},
{
name = top;
pos = (397,684);
}
);
hints = (
{
name = _corner.caps_swash;
origin = (1,2);
type = Corner;
}
);
layerId = "49C16FD3-6177-408B-A733-AEB3898BB77C";
shapes = (
{
closed = 1;
nodes = (
(173,0,l),
(217,361,l,{
"Letterink-NibData" = {
AngleInDegrees = 90;
};
}),
(199,345,l,{
"Letterink-NibData" = {
AngleInDegrees = 90;
};
}),
(483,345,l),
(488,381,l,{
"Letterink-NibData" = {
AngleInDegrees = 270;
};
}),
(204,381,l),
(218,365,l),
(243,570,l,{
"Letterink-NibData" = {
AngleInDegrees = 270;
};
}),
(205,570,l,{
"Letterink-NibData" = {
AngleInDegrees = 180;
};
}),
(135,0,l,{
"Letterink-NibData" = {
AngleInDegrees = 90;
};
})
);
},
{
closed = 1;
nodes = (
(625,648,l),
(629,684,l,{
"Letterink-NibData" = {
AngleInDegrees = 270;
};
}),
(181,684,l,{
"Letterink-NibData" = {
AngleInDegrees = 180;
};
}),
(182,648,l,{
"Letterink-NibData" = {
AngleInDegrees = 90;
};
})
);
}
);
width = 610;
},
{
anchors = (
{
name = bottom;
pos = (404,-4);
},
{
name = top;
pos = (491,684);
}
);
hints = (
{
name = _corner.caps_swash;
origin = (1,2);
type = Corner;
}
);
layerId = m004;
shapes = (
{
closed = 1;
nodes = (
(318,0,l),
(358,334,l,{
"Letterink-NibData" = {
AngleInDegrees = "90";
};
}),
(278,263,l,{
"Letterink-NibData" = {
AngleInDegrees = "90";
};
}),
(570,263,l),
(588,411,l,{
"Letterink-NibData" = {
AngleInDegrees = "270";
};
}),
(299,411,l),
(361,340,l),
(379,499,l,{
"Letterink-NibData" = {
AngleInDegrees = "90";
};
}),
(213,499,l),
(152,0,l,{
"Letterink-NibData" = {
AngleInDegrees = "90";
};
})
);
},
{
closed = 1;
nodes = (
(690,536,l),
(708,684,l,{
"Letterink-NibData" = {
AngleInDegrees = "270";
};
}),
(221,684,l,{
"Letterink-NibData" = {
AngleInDegrees = "180";
};
}),
(218,536,l)
);
}
);
width = 687;
}
);
metricLeft = E.swsh;
metricRight = F;
userData = {
position = 129;
width = 61;
};
},
{
glyphname = G;
kernLeft = O;
kernRight = O;
layers = (
{
anchors = (
{
name = bottom;
pos = (346,-9);
},
{
name = top;
pos = (432,689);
}
);
background = {
shapes = (
{
closed = 1;
nodes = (
(600,-25,o),
(746,126,o),
(746,326,cs),
(746,355,ls),
(746,548,o),
(594,702,o),
(404,702,cs,{
"Letterink-NibData" = {
AngleInDegrees = "270";
};
}),
(214,702,o),
(63,548,o),
(63,355,cs,{
"Letterink-NibData" = {
AngleInDegrees = "180";
};
}),
(63,326,ls,{
"Letterink-NibData" = {
AngleInDegrees = "180";
};
}),
(63,126,o),
(207,-19,o),
(408,-22,cs,{
"Letterink-NibData" = {
AngleInDegrees = 90.89517371732774;
};
})
);
},
{
closed = 1;
nodes = (
(257,54,o),
(145,170,o),
(145,326,cs),
(145,355,ls),
(145,504,o),
(259,626,o),
(403,626,cs,{
"Letterink-NibData" = {
AngleInDegrees = "90";
};
}),
(549,626,o),
(664,504,o),
(664,355,cs,{
"Letterink-NibData" = {
AngleInDegrees = "180";
};
}),
(664,326,ls,{
"Letterink-NibData" = {
AngleInDegrees = "180";
};
}),
(664,170,o),
(552,54,o),
(405,54,cs,{
"Letterink-NibData" = {
AngleInDegrees = "270";
};
})
);
}
);
};
layerId = "0CAF3BED-C4AC-4024-B3E1-4C69D1EF7EC0";
shapes = (
{
closed = 1;
nodes = (
(562,-21,o),
(673,136,o),
(705,330,cs),
(707,342,l),
(391,342,l),
(382,272,l),
(661,272,l),
(624,305,l),
(610,160,o),
(521,55,o),
(368,55,cs),
(215,55,o),
(113,162,o),
(134,335,cs),
(154,502,o),
(287,627,o),
(442,627,cs),
(572,627,o),
(610,577,o),
(606,545,cs),
(604,529,o),
(591,508,o),
(572,508,cs),
(568,508,o),
(559,508,o),
(551,513,c),
(507,455,l),
(528,440,o),
(550,434,o),
(570,434,cs),
(622,434,o),
(675,475,o),
(683,537,cs),
(698,652,o),
(580,703,o),
(444,703,cs),
(255,703,o),
(79,541,o),
(55,343,cs),
(29,129,o),
(163,-21,o),
(366,-21,cs)
);
}
);
width = 739;
},
{
anchors = (
{
name = bottom;
pos = (358,0);
},
{
name = top;
pos = (440,688);
}
);
background = {
shapes = (
{
closed = 1;
nodes = (
(609,-14,o),
(751,131,o),
(751,331,cs),
(751,350,ls),
(751,550,o),
(603,702,o),
(409,702,cs,{
"Letterink-NibData" = {
AngleInDegrees = "270";
};
}),
(215,702,o),
(69,551,o),
(69,350,cs,{
"Letterink-NibData" = {
AngleInDegrees = "180";
};
}),
(69,331,ls,{
"Letterink-NibData" = {
AngleInDegrees = "180";
};
}),
(69,133,o),
(216,-14,o),
(413,-14,cs,{
"Letterink-NibData" = {
AngleInDegrees = "90";
};
})
);
},
{
closed = 1;
nodes = (
(239,24,o),
(111,156,o),
(111,331,cs),
(111,350,ls),
(111,526,o),
(240,662,o),
(408,662,cs,{
"Letterink-NibData" = {
AngleInDegrees = "90";
};
}),
(577,662,o),
(709,526,o),
(709,350,cs,{
"Letterink-NibData" = {
AngleInDegrees = "180";
};
}),
(709,331,ls,{
"Letterink-NibData" = {
AngleInDegrees = "180";
};
}),
(709,156,o),
(580,24,o),
(410,24,cs,{
"Letterink-NibData" = {
AngleInDegrees = "270";
};
})
);
}
);
};
layerId = "49C16FD3-6177-408B-A733-AEB3898BB77C";
shapes = (
{
closed = 1;
nodes = (
(541,-14,o),
(674,118,o),
(703,310,cs),
(706,330,l),
(416,330,l),
(411,292,l),
(683,292,l),
(666,312,l),
(640,136,o),
(523,25,o),
(365,25,cs),
(179,25,o),
(78,152,o),
(101,338,cs),
(124,527,o),
(272,658,o),
(439,658,cs),
(582,658,o),
(644,586,o),
(638,540,cs),
(635,515,o),
(616,485,o),
(586,485,cs),
(576,485,o),
(564,488,o),
(556,494,c),
(531,464,l),
(549,450,o),
(569,446,o),
(585,446,cs),
(625,446,o),
(669,483,o),
(676,536,cs),
(687,619,o),
(595,696,o),
(440,696,cs),
(259,696,o),
(89,556,o),
(63,342,cs),
(37,131,o),
(160,-14,o),
(364,-14,cs)
);
}
);
width = 747;
},
{
anchors = (
{
name = bottom;
pos = (396,-35);
},
{
name = top;
pos = (406,683);
}
);
associatedMasterId = "49C16FD3-6177-408B-A733-AEB3898BB77C";
layerId = "D0E3D1AC-81E4-4FC2-A1B9-BDF5A86A417E";
name = "3 Jan 22, 15:37";
shapes = (
{
closed = 1;
nodes = (
(541,-20,o),
(682,85,o),
(682,253,c),
(682,296,l,{
"Letterink-NibData" = {
AngleInDegrees = 270;
};
}),
(640,296,l,{
"Letterink-NibData" = {
AngleInDegrees = 180;
};
}),
(640,251,l,{
"Letterink-NibData" = {
AngleInDegrees = 180;
};
}),
(640,124,o),
(527,20,o),
(396,20,cs,{
"Letterink-NibData" = {
AngleInDegrees = 270;
};
}),
(231,20,o),
(107,157,o),
(107,329,cs),
(107,504,o),
(236,658,o),
(406,658,cs,{
"Letterink-NibData" = {
AngleInDegrees = 90;
};
}),
(470,658,o),
(591,637,o),
(591,563,cs,{
"Letterink-NibData" = {
AngleInDegrees = 180;
};
}),
(591,537,o),
(574,514,o),
(551,514,cs,{
"Letterink-NibData" = {
AngleInDegrees = 270;
};
}),
(541,514,o),
(533,518,o),
(528,524,c,{
"Letterink-NibData" = {
AngleInDegrees = 218.23383;
};
}),
(502,491,l,{
"Letterink-NibData" = {
AngleInDegrees = 138.36646;
};
}),
(510,482,o),
(528,473,o),
(550,473,cs,{
"Letterink-NibData" = {
AngleInDegrees = 90;
};
}),
(598,473,o),
(632,509,o),
(632,563,cs),
(632,669,o),
(490,698,o),
(405,698,cs,{
"Letterink-NibData" = {
AngleInDegrees = 270;
};
}),
(207,698,o),
(65,531,o),
(65,330,cs,{
"Letterink-NibData" = {
AngleInDegrees = 180;
};
}),
(65,138,o),
(202,-20,o),
(396,-20,cs,{
"Letterink-NibData" = {
AngleInDegrees = 90;
};
})
);
},
{
closed = 1;
nodes = (
(682,293,l),
(682,335,l,{
"Letterink-NibData" = {
AngleInDegrees = 270;
};
}),
(391,335,l,{
"Letterink-NibData" = {
AngleInDegrees = 180;
};
}),
(391,293,l,{
"Letterink-NibData" = {
AngleInDegrees = 90;
};
})
);
}
);
width = 735;
},
{
anchors = (
{
name = bottom;
pos = (395,-16);
},
{
name = top;
pos = (398,684);
}
);
associatedMasterId = "0CAF3BED-C4AC-4024-B3E1-4C69D1EF7EC0";
layerId = "801CC91F-0C96-44A6-9720-FE52325A0B43";
name = "3 Jan 22, 15:45";
shapes = (
{
closed = 1;
nodes = (
(546,-13,o),
(688,104,o),
(688,271,cs),
(688,319,l,{
"Letterink-NibData" = {
AngleInDegrees = 270;
};
}),
(605,319,l,{
"Letterink-NibData" = {
AngleInDegrees = 178.85424;
};
}),
(606,269,l,{
"Letterink-NibData" = {
AngleInDegrees = 180.96286;
};
}),
(604,150,o),
(509,63,o),
(395,63,cs,{
"Letterink-NibData" = {
AngleInDegrees = 270;
};
}),
(250,63,o),
(140,176,o),
(140,342,cs),
(140,497,o),
(250,620,o),
(404,620,cs,{
"Letterink-NibData" = {
AngleInDegrees = 90;
};
}),
(461,620,o),
(563,599,o),
(563,544,cs,{
"Letterink-NibData" = {
AngleInDegrees = 180;
};
}),
(563,530,o),
(556,518,o),
(542,517,cs,{
"Letterink-NibData" = {
AngleInDegrees = 264.28941;
};
}),
(532,516,o),
(522,523,o),
(516,528,c,{
"Letterink-NibData" = {
AngleInDegrees = 218.90414;
};
}),
(470,471,l,{
"Letterink-NibData" = {
AngleInDegrees = 136.54816;
};
}),
(488,452,o),
(516,442,o),
(541,442,cs,{
"Letterink-NibData" = {
AngleInDegrees = 90;
};
}),
(596,442,o),
(640,488,o),
(640,547,cs),
(640,656,o),
(486,696,o),
(403,696,cs,{
"Letterink-NibData" = {
AngleInDegrees = 270;
};
}),
(210,696,o),
(58,539,o),
(58,343,cs,{
"Letterink-NibData" = {
AngleInDegrees = 180;
};
}),
(58,141,o),
(201,-13,o),
(395,-13,cs,{
"Letterink-NibData" = {
AngleInDegrees = 90;
};
})
);
},
{
closed = 1;
nodes = (
(688,280,l),
(688,356,l,{
"Letterink-NibData" = {
AngleInDegrees = 270;
};
}),
(369,356,l,{
"Letterink-NibData" = {
AngleInDegrees = 180;
};
}),
(369,280,l,{
"Letterink-NibData" = {
AngleInDegrees = 90;
};
})
);
}
);
width = 731;
},
{
anchors = (
{
name = bottom;
pos = (397,-16);
},
{
name = top;
pos = (400,684);
}
);
associatedMasterId = "0CAF3BED-C4AC-4024-B3E1-4C69D1EF7EC0";
layerId = "F3CD14B1-1EDD-434D-B368-A4692BE06C00";
name = "5 Jan 22, 08:08";
shapes = (
{
attr = {
strokeHeight = 74;
strokeWidth = 80;
};
closed = 0;
nodes = (
(522,478,l,{
"Letterink-NibData" = {
AngleInDegrees = 116.56505;
};
}),
(532,473,o),
(541,471,o),
(550,471,cs,{
"Letterink-NibData" = {
AngleInDegrees = 90;
};
}),
(594,471,o),
(615,511,o),
(615,546,cs),
(615,617,o),
(526,674,o),
(398,668,cs,{
"Letterink-NibData" = {
AngleInDegrees = 267.25739;
};
}),
(231,660,o),
(97,522,o),
(97,334,cs,{
"Letterink-NibData" = {
AngleInDegrees = 180;
};
}),
(97,144,o),
(234,4,o),
(415,15,cs,{
"Letterink-NibData" = {
AngleInDegrees = 86.30861;
};
}),
(570,25,o),
(655,137,o),
(655,281,c,{
"Letterink-NibData" = {
AngleInDegrees = 358.26429;
};
}),
(654,314,l,{
"Letterink-NibData" = {
AngleInDegrees = 270.21221;
};
}),
(384,315,l,{
"Letterink-NibData" = {
AngleInDegrees = 270.21221;
};
})
);
}
);
width = 737;
},
{
anchors = (
{
name = bottom;
pos = (395,-35);
},
{
name = top;
pos = (405,683);
}
);
associatedMasterId = "49C16FD3-6177-408B-A733-AEB3898BB77C";
background = {
shapes = (
{
closed = 1;
nodes = (
(543,-19,o),
(681,85,o),
(681,253,c),
(681,296,l),
(639,296,l),
(639,251,l),
(639,124,o),
(526,20,o),
(395,20,cs),
(230,20,o),
(106,157,o),
(106,329,cs),
(106,504,o),
(235,658,o),
(405,658,cs),
(469,658,o),
(590,637,o),
(590,563,cs),
(590,537,o),
(573,514,o),
(550,514,cs),
(540,514,o),
(532,518,o),
(527,524,c),
(501,491,l),
(509,482,o),
(527,473,o),
(549,473,cs),
(597,473,o),
(631,509,o),
(631,563,cs),
(631,669,o),
(489,698,o),
(404,698,cs),
(206,698,o),
(64,531,o),
(64,330,cs),
(64,138,o),
(201,-21,o),
(395,-20,cs)
);
}
);
};
layerId = "F0F46AC2-3B0D-4489-B32E-B81CEA10F2A9";
name = "5 Jan 22, 08:18";
shapes = (
{
attr = {
strokeHeight = 38;
strokeWidth = 42;
};
closed = 0;
nodes = (
(521,484,l,{
"Letterink-NibData" = {
AngleInDegrees = 116.56505;
};
}),
(531,479,o),
(540,477,o),
(550,477,cs,{
"Letterink-NibData" = {
AngleInDegrees = 90;
};
}),
(594,477,o),
(616,519,o),
(616,556,cs),
(616,630,o),
(525,690,o),
(394,683,cs,{
"Letterink-NibData" = {
AngleInDegrees = 267.30572;
};
}),
(224,675,o),
(87,530,o),
(87,334,cs,{
"Letterink-NibData" = {
AngleInDegrees = 180;
};
}),
(87,135,o),
(227,-12,o),
(407,0,cs,{
"Letterink-NibData" = {
AngleInDegrees = 86.48932;
};
}),
(570,10,o),
(657,127,o),
(657,278,c,{
"Letterink-NibData" = {
AngleInDegrees = 358.36342;
};
}),
(656,313,l,{
"Letterink-NibData" = {
AngleInDegrees = 270.20759;
};
}),
(380,314,l,{
"Letterink-NibData" = {
AngleInDegrees = 270.20759;
};
})
);
}
);
width = 728;
},
{
anchors = (
{
name = bottom;
pos = (350,-10);
},
{
name = top;
pos = (437,703);
}
);
background = {
shapes = (
{
closed = 1;
nodes = (
(609,-25,o),
(755,126,o),
(755,326,cs),
(755,355,ls),
(755,548,o),
(603,702,o),
(413,702,cs,{
"Letterink-NibData" = {
AngleInDegrees = "270";
};
}),
(223,702,o),
(72,548,o),
(72,355,cs,{
"Letterink-NibData" = {
AngleInDegrees = "180";
};
}),
(72,326,ls,{
"Letterink-NibData" = {
AngleInDegrees = "180";
};
}),
(72,126,o),
(216,-19,o),
(417,-22,cs,{
"Letterink-NibData" = {
AngleInDegrees = 90.89517371732774;
};
})
);
},
{
closed = 1;
nodes = (
(266,54,o),
(154,170,o),
(154,326,cs),
(154,355,ls),
(154,504,o),
(268,626,o),
(412,626,cs,{
"Letterink-NibData" = {
AngleInDegrees = "90";
};
}),
(558,626,o),
(673,504,o),
(673,355,cs,{
"Letterink-NibData" = {
AngleInDegrees = "180";
};
}),
(673,326,ls,{
"Letterink-NibData" = {
AngleInDegrees = "180";
};
}),
(673,170,o),
(561,54,o),
(414,54,cs,{
"Letterink-NibData" = {
AngleInDegrees = "270";
};
})
);
}
);
};
layerId = m004;
shapes = (
{
closed = 1;
nodes = (
(564,-28,o),
(699,109,o),
(718,338,cs),
(720,362,l),
(402,362,l),
(386,224,l),
(631,224,l),
(564,289,l),
(555,187,o),
(481,120,o),
(372,120,cs),
(254,120,o),
(189,200,o),
(204,325,cs),
(221,468,o),
(321,565,o),
(449,565,cs),
(507,565,o),
(564,545,o),
(562,521,cs),
(561,510,o),
(552,502,o),
(542,502,cs),
(538,502,o),
(535,503,o),
(531,507,c),
(456,422,l),
(476,400,o),
(507,385,o),
(546,385,cs),
(622,385,o),
(692,444,o),
(701,517,cs),
(715,628,o),
(605,713,o),
(449,713,cs),
(238,713,o),
(67,558,o),
(41,343,cs),
(15,128,o),
(146,-28,o),
(354,-28,cs)
);
}
);
width = 737;
},
{
anchors = (
{
name = bottom;
pos = (381,-16);
},
{
name = top;
pos = (384,684);
}
);
associatedMasterId = m004;
layerId = "0E9EACE4-EA9D-4B48-AA91-148DF9A2A64E";
name = "3 Jan 22, 15:45";
shapes = (
{
closed = 1;
nodes = (
(532,-13,o),
(674,104,o),
(674,271,cs),
(674,319,l,{
"Letterink-NibData" = {
AngleInDegrees = 270;
};
}),
(591,319,l,{
"Letterink-NibData" = {
AngleInDegrees = 178.85424;
};
}),
(592,269,l,{
"Letterink-NibData" = {
AngleInDegrees = 180.96286;
};
}),
(590,150,o),
(495,63,o),
(381,63,cs,{
"Letterink-NibData" = {
AngleInDegrees = 270;
};
}),
(236,63,o),
(126,176,o),
(126,342,cs),
(126,497,o),
(236,620,o),
(390,620,cs,{
"Letterink-NibData" = {
AngleInDegrees = 90;
};
}),
(447,620,o),
(549,599,o),
(549,544,cs,{
"Letterink-NibData" = {
AngleInDegrees = 180;
};
}),
(549,530,o),
(542,518,o),
(528,517,cs,{
"Letterink-NibData" = {
AngleInDegrees = 264.28941;
};
}),
(518,516,o),
(508,523,o),
(502,528,c,{
"Letterink-NibData" = {
AngleInDegrees = 218.90414;
};
}),
(456,471,l,{
"Letterink-NibData" = {
AngleInDegrees = 136.54816;
};
}),
(474,452,o),
(502,442,o),
(527,442,cs,{
"Letterink-NibData" = {
AngleInDegrees = 90;
};
}),
(582,442,o),
(626,488,o),
(626,547,cs),
(626,656,o),
(472,696,o),
(389,696,cs,{
"Letterink-NibData" = {
AngleInDegrees = 270;
};
}),
(196,696,o),
(44,539,o),
(44,343,cs,{
"Letterink-NibData" = {
AngleInDegrees = 180;
};
}),
(44,141,o),
(187,-13,o),
(381,-13,cs,{
"Letterink-NibData" = {
AngleInDegrees = 90;
};
})
);
},
{
closed = 1;
nodes = (
(674,280,l),
(674,356,l,{
"Letterink-NibData" = {
AngleInDegrees = 270;
};
}),
(355,356,l,{
"Letterink-NibData" = {
AngleInDegrees = 180;
};
}),
(355,280,l,{
"Letterink-NibData" = {
AngleInDegrees = 90;
};
})
);
}
);
width = 703;
},
{
anchors = (
{
name = bottom;
pos = (383,-16);
},
{
name = top;
pos = (386,684);
}
);
associatedMasterId = m004;
layerId = "E2560365-B553-4320-8997-4873FFE2CB5E";
name = "5 Jan 22, 08:08";
shapes = (
{
attr = {
strokeHeight = 74;
strokeWidth = 80;
};
closed = 0;
nodes = (
(508,478,l,{
"Letterink-NibData" = {
AngleInDegrees = 116.56505;
};
}),
(518,473,o),
(527,471,o),
(536,471,cs,{
"Letterink-NibData" = {
AngleInDegrees = 90;
};
}),
(580,471,o),
(601,511,o),
(601,546,cs),
(601,617,o),
(512,674,o),
(384,668,cs,{
"Letterink-NibData" = {
AngleInDegrees = 267.25739;
};
}),
(217,660,o),
(83,522,o),
(83,334,cs,{
"Letterink-NibData" = {
AngleInDegrees = 180;
};
}),
(83,144,o),
(220,4,o),
(401,15,cs,{
"Letterink-NibData" = {
AngleInDegrees = 86.30861;
};
}),
(556,25,o),
(641,137,o),
(641,281,c,{
"Letterink-NibData" = {
AngleInDegrees = 358.26429;
};
}),
(640,314,l,{
"Letterink-NibData" = {
AngleInDegrees = 270.21221;
};
}),
(370,315,l,{
"Letterink-NibData" = {
AngleInDegrees = 270.21221;
};
})
);
}
);
width = 709;
}
);
metricLeft = O;
metricRight = "=O*.975";
note = "Bold: 98/95.5%";
unicode = 71;
userData = {
position = 593;
width = 57;
};
},
{
glyphname = G.ss01;
kernLeft = O;
kernRight = O;
layers = (
{
anchors = (
{
name = bottom;
pos = (357,-6);
},
{
name = top;
pos = (440,691);
}
);
background = {
shapes = (
{
closed = 1;
nodes = (
(597,-25,o),
(743,126,o),
(743,326,cs),
(743,355,ls),
(743,548,o),
(591,702,o),
(401,702,cs,{
"Letterink-NibData" = {
AngleInDegrees = "270";
};
}),
(211,702,o),
(60,548,o),
(60,355,cs,{
"Letterink-NibData" = {
AngleInDegrees = "180";
};
}),
(60,326,ls,{
"Letterink-NibData" = {
AngleInDegrees = "180";
};
}),
(60,126,o),
(204,-19,o),
(405,-22,cs,{
"Letterink-NibData" = {
AngleInDegrees = 90.89517371732774;
};
})
);
},
{
closed = 1;
nodes = (
(254,54,o),
(142,170,o),
(142,326,cs),
(142,355,ls),
(142,504,o),
(256,626,o),
(400,626,cs,{
"Letterink-NibData" = {
AngleInDegrees = "90";
};
}),
(546,626,o),
(661,504,o),
(661,355,cs,{
"Letterink-NibData" = {
AngleInDegrees = "180";
};
}),
(661,326,ls,{
"Letterink-NibData" = {
AngleInDegrees = "180";
};
}),
(661,170,o),
(549,54,o),
(402,54,cs,{
"Letterink-NibData" = {
AngleInDegrees = "270";
};
})
);
}
);
};
layerId = "0CAF3BED-C4AC-4024-B3E1-4C69D1EF7EC0";
shapes = (
{
closed = 1;
nodes = (
(548,-17,o),
(688,115,o),
(713,318,cs),
(718,358,l),
(410,358,l),
(401,282,l),
(670,282,l),
(637,322,l),
(618,164,o),
(509,59,o),
(364,59,cs),
(209,59,o),
(115,176,o),
(135,341,cs),
(155,510,o),
(286,633,o),
(443,633,cs),
(541,633,o),
(615,586,o),
(629,515,c),
(702,533,l),
(685,637,o),
(580,709,o),
(444,709,cs),
(244,709,o),
(82,558,o),
(56,348,cs),
(30,135,o),
(156,-17,o),
(360,-17,cs)
);
}
);
width = 749;
},
{
anchors = (
{
name = bottom;
pos = (358,-2);
},
{
name = top;
pos = (450,694);
}
);
background = {
shapes = (
{
closed = 1;
nodes = (
(604,-14,o),
(746,131,o),
(746,331,cs),
(746,350,ls),
(746,550,o),
(598,702,o),
(404,702,cs,{
"Letterink-NibData" = {
AngleInDegrees = "270";
};
}),
(210,702,o),
(64,551,o),
(64,350,cs,{
"Letterink-NibData" = {
AngleInDegrees = "180";
};
}),
(64,331,ls,{
"Letterink-NibData" = {
AngleInDegrees = "180";
};
}),
(64,133,o),
(211,-14,o),
(408,-14,cs,{
"Letterink-NibData" = {
AngleInDegrees = "90";
};
})
);
},
{
closed = 1;
nodes = (
(234,24,o),
(106,156,o),
(106,331,cs),
(106,350,ls),
(106,526,o),
(235,662,o),
(403,662,cs,{
"Letterink-NibData" = {
AngleInDegrees = "90";
};
}),
(572,662,o),
(704,526,o),
(704,350,cs,{
"Letterink-NibData" = {
AngleInDegrees = "180";
};
}),
(704,331,ls,{
"Letterink-NibData" = {
AngleInDegrees = "180";
};
}),
(704,156,o),
(575,24,o),
(405,24,cs,{
"Letterink-NibData" = {
AngleInDegrees = "270";
};
})
);
}
);
};
layerId = "49C16FD3-6177-408B-A733-AEB3898BB77C";
shapes = (
{
closed = 1;
nodes = (
(545,-12,o),
(684,119,o),
(706,318,cs),
(708,336,l),
(408,336,l),
(404,303,l),
(688,303,l),
(673,320,l),
(651,142,o),
(526,22,o),
(364,22,cs),
(190,22,o),
(78,151,o),
(100,337,cs),
(123,534,o),
(274,665,o),
(448,665,cs),
(577,665,o),
(649,596,o),
(663,525,c),
(695,534,l),
(677,624,o),
(587,699,o),
(449,699,cs),
(257,699,o),
(89,558,o),
(63,341,cs),
(38,133,o),
(164,-12,o),
(363,-12,cs)
);
}
);
width = 750;
},
{
anchors = (
{
name = bottom;
pos = (389,0);
},
{
name = top;
pos = (404,684);
}
);
associatedMasterId = "49C16FD3-6177-408B-A733-AEB3898BB77C";
layerId = "96951EB1-18FB-4FDF-9014-B6300BAB0AB6";
name = "3 Jan 22, 15:40";
shapes = (
{
closed = 1;
nodes = (
(545,-15,o),
(678,97,o),
(678,285,cs),
(678,343,l,{
"Letterink-NibData" = {
AngleInDegrees = 270;
};
}),
(636,343,l,{
"Letterink-NibData" = {
AngleInDegrees = 180;
};
}),
(636,273,ls,{
"Letterink-NibData" = {
AngleInDegrees = 180;
};
}),
(636,127,o),
(515,25,o),
(394,25,cs,{
"Letterink-NibData" = {
AngleInDegrees = 270;
};
}),
(212,25,o),
(107,154,o),
(107,331,cs),
(107,508,o),
(234,656,o),
(404,656,cs,{
"Letterink-NibData" = {
AngleInDegrees = 90;
};
}),
(473,656,o),
(580,625,o),
(587,557,c,{
"Letterink-NibData" = {
AngleInDegrees = 88.60282;
};
}),
(628,558,l,{
"Letterink-NibData" = {
AngleInDegrees = 356.1432;
};
}),
(622,647,o),
(510,696,o),
(406,696,cs,{
"Letterink-NibData" = {
AngleInDegrees = 270;
};
}),
(210,696,o),
(65,537,o),
(65,332,cs,{
"Letterink-NibData" = {
AngleInDegrees = 180;
};
}),
(65,131,o),
(182,-15,o),
(390,-15,cs,{
"Letterink-NibData" = {
AngleInDegrees = 90;
};
})
);
},
{
closed = 1;
nodes = (
(678,303,l),
(678,343,l,{
"Letterink-NibData" = {
AngleInDegrees = 270;
};
}),
(387,343,l,{
"Letterink-NibData" = {
AngleInDegrees = 180;
};
}),
(387,303,l,{
"Letterink-NibData" = {
AngleInDegrees = 90;
};
})
);
}
);
width = 729;
},
{
anchors = (
{
name = bottom;
pos = (394,0);
},
{
name = top;
pos = (408,684);
}
);
associatedMasterId = "0CAF3BED-C4AC-4024-B3E1-4C69D1EF7EC0";
layerId = "B969E5E4-86DE-47F2-A424-5DC87FFFE71B";
name = "5 Jan 22, 08:26";
shapes = (
{
attr = {
strokeHeight = 74;
strokeWidth = 80;
};
closed = 0;
nodes = (
(625,528,ls,{
"Letterink-NibData" = {
AngleInDegrees = 356.63354;
};
}),
(620,613,o),
(526,675,o),
(398,669,cs,{
"Letterink-NibData" = {
AngleInDegrees = 267.25739;
};
}),
(231,661,o),
(97,523,o),
(97,331,cs,{
"Letterink-NibData" = {
AngleInDegrees = 180;
};
}),
(97,145,o),
(229,15,o),
(410,15,c,{
"Letterink-NibData" = {
AngleInDegrees = 86.42367;
};
}),
(570,25,o),
(655,137,o),
(655,281,c,{
"Letterink-NibData" = {
AngleInDegrees = 358.26429;
};
}),
(654,314,l,{
"Letterink-NibData" = {
AngleInDegrees = 270.21221;
};
}),
(384,315,l,{
"Letterink-NibData" = {
AngleInDegrees = 270.21221;
};
})
);
}
);
width = 738;
},
{
anchors = (
{
name = bottom;
pos = (389,-27);
},
{
name = top;
pos = (389,721);
}
);
associatedMasterId = "49C16FD3-6177-408B-A733-AEB3898BB77C";
background = {
shapes = (
{
closed = 1;
nodes = (
(544,-15,o),
(677,97,o),
(677,285,cs),
(677,343,l),
(635,343,l),
(635,273,ls),
(635,127,o),
(514,25,o),
(393,25,cs),
(211,25,o),
(106,154,o),
(106,331,cs),
(106,508,o),
(233,656,o),
(403,656,cs),
(472,656,o),
(579,625,o),
(586,557,c),
(627,558,l),
(621,647,o),
(509,696,o),
(405,696,cs),
(209,696,o),
(64,537,o),
(64,332,cs),
(64,131,o),
(181,-15,o),
(389,-15,cs)
);
},
{
closed = 1;
nodes = (
(677,303,l),
(677,343,l),
(386,343,l),
(386,303,l)
);
}
);
};
layerId = "AFEECE5E-BFEE-4508-863A-E5AFB845FDE7";
name = "5 Jan 22, 08:33";
shapes = (
{
attr = {
strokeHeight = 38;
strokeWidth = 42;
};
closed = 0;
nodes = (
(625,537,ls,{
"Letterink-NibData" = {
AngleInDegrees = 356.78451;
};
}),
(620,626,o),
(524,691,o),
(393,684,cs,{
"Letterink-NibData" = {
AngleInDegrees = 267.30572;
};
}),
(223,676,o),
(86,532,o),
(86,330,cs,{
"Letterink-NibData" = {
AngleInDegrees = 180;
};
}),
(86,136,o),
(221,0,o),
(411,0,c,{
"Letterink-NibData" = {
AngleInDegrees = 86.37852;
};
}),
(569,10,o),
(656,127,o),
(656,278,c,{
"Letterink-NibData" = {
AngleInDegrees = 358.36342;
};
}),
(655,313,l,{
"Letterink-NibData" = {
AngleInDegrees = 270.20759;
};
}),
(379,314,l,{
"Letterink-NibData" = {
AngleInDegrees = 270.20759;
};
})
);
}
);
width = 728;
},
{
anchors = (
{
name = bottom;
pos = (344,-12);
},
{
name = top;
pos = (445,698);
}
);
background = {
shapes = (
{
closed = 1;
nodes = (
(606,-25,o),
(752,126,o),
(752,326,cs),
(752,355,ls),
(752,548,o),
(600,702,o),
(410,702,cs,{
"Letterink-NibData" = {
AngleInDegrees = "270";
};
}),
(220,702,o),
(69,548,o),
(69,355,cs,{
"Letterink-NibData" = {
AngleInDegrees = "180";
};
}),
(69,326,ls,{
"Letterink-NibData" = {
AngleInDegrees = "180";
};
}),
(69,126,o),
(213,-19,o),
(414,-22,cs,{
"Letterink-NibData" = {
AngleInDegrees = 90.89517371732774;
};
})
);
},
{
closed = 1;
nodes = (
(263,54,o),
(151,170,o),
(151,326,cs),
(151,355,ls),
(151,504,o),
(265,626,o),
(409,626,cs,{
"Letterink-NibData" = {
AngleInDegrees = "90";
};
}),
(555,626,o),
(670,504,o),
(670,355,cs,{
"Letterink-NibData" = {
AngleInDegrees = "180";
};
}),
(670,326,ls,{
"Letterink-NibData" = {
AngleInDegrees = "180";
};
}),
(670,170,o),
(558,54,o),
(411,54,cs,{
"Letterink-NibData" = {
AngleInDegrees = "270";
};
})
);
}
);
};
layerId = m004;
shapes = (
{
closed = 1;
nodes = (
(552,-31,o),
(704,112,o),
(731,336,c),
(738,387,l),
(421,387,l),
(402,239,l),
(644,239,l),
(580,317,l),
(566,197,o),
(487,117,o),
(369,117,cs),
(255,117,o),
(188,197,o),
(205,330,cs),
(222,463,o),
(315,565,o),
(441,565,cs),
(517,565,o),
(562,526,o),
(569,489,c),
(714,523,l),
(693,644,o),
(578,713,o),
(442,713,cs),
(238,713,o),
(68,563,o),
(42,348,cs),
(15,122,o),
(149,-31,o),
(353,-31,cs)
);
}
);
width = 751;
},
{
anchors = (
{
name = bottom;
pos = (380,0);
},
{
name = top;
pos = (394,684);
}
);
associatedMasterId = m004;
layerId = "2166FA3C-D590-4885-A8B0-B32BF30CBC31";
name = "5 Jan 22, 08:26";
shapes = (
{
attr = {
strokeHeight = 74;
strokeWidth = 80;
};
closed = 0;
nodes = (
(611,528,ls,{
"Letterink-NibData" = {
AngleInDegrees = 356.63354;
};
}),
(606,613,o),
(512,675,o),
(384,669,cs,{
"Letterink-NibData" = {
AngleInDegrees = 267.25739;
};
}),
(217,661,o),
(83,523,o),
(83,331,cs,{
"Letterink-NibData" = {
AngleInDegrees = 180;
};
}),
(83,145,o),
(215,15,o),
(396,15,c,{
"Letterink-NibData" = {
AngleInDegrees = 86.42367;
};
}),
(556,25,o),
(641,137,o),
(641,281,c,{
"Letterink-NibData" = {
AngleInDegrees = 358.26429;
};
}),
(640,314,l,{
"Letterink-NibData" = {
AngleInDegrees = 270.21221;
};
}),
(370,315,l,{
"Letterink-NibData" = {
AngleInDegrees = 270.21221;
};
})
);
}
);
width = 710;
}
);
metricLeft = O;
metricRight = O;
userData = {
position = 593;
width = 57;
};
},
{
glyphname = G.swsh;
kernLeft = O;
kernRight = O;
layers = (
{
layerId = "0CAF3BED-C4AC-4024-B3E1-4C69D1EF7EC0";
shapes = (
{
closed = 1;
nodes = (
(567,-266,o),
(638,-218,o),
(651,-112,cs),
(707,342,l),
(630,342,l),
(575,-108,ls),
(569,-154,o),
(542,-190,o),
(500,-190,cs),
(482,-190,o),
(461,-179,o),
(452,-155,c),
(382,-185,l),
(400,-233,o),
(444,-266,o),
(498,-266,cs)
);
},
{
ref = G;
}
);
width = 739;
},
{
layerId = "49C16FD3-6177-408B-A733-AEB3898BB77C";
shapes = (
{
closed = 1;
nodes = (
(577,-278,o),
(640,-233,o),
(652,-138,cs),
(708,318,l),
(669,318,l),
(613,-136,ls),
(605,-197,o),
(564,-236,o),
(515,-236,cs),
(486,-236,o),
(461,-220,o),
(449,-189,c),
(410,-207,l),
(428,-250,o),
(467,-278,o),
(514,-278,cs)
);
},
{
ref = G;
}
);
width = 751;
},
{
anchors = (
{
name = bottom;
pos = (397,0);
},
{
name = top;
pos = (406,684);
}
);
associatedMasterId = "49C16FD3-6177-408B-A733-AEB3898BB77C";
layerId = "99324C05-2E3B-491C-BB33-A281431388C0";
name = "3 Jan 22, 15:43";
shapes = (
{
closed = 1;
nodes = (
(636,-275,o),
(681,-247,o),
(681,-188,cs),
(681,296,l,{
"Letterink-NibData" = {
AngleInDegrees = 270;
};
}),
(639,296,l,{
"Letterink-NibData" = {
AngleInDegrees = 180;
};
}),
(639,231,l,{
"Letterink-NibData" = {
AngleInDegrees = 189.05072;
};
}),
(621,118,o),
(528,19,o),
(393,19,cs,{
"Letterink-NibData" = {
AngleInDegrees = 270;
};
}),
(233,19,o),
(107,157,o),
(107,331,cs),
(107,504,o),
(230,661,o),
(403,661,cs,{
"Letterink-NibData" = {
AngleInDegrees = 90;
};
}),
(471,661,o),
(592,637,o),
(592,563,cs,{
"Letterink-NibData" = {
AngleInDegrees = 180;
};
}),
(592,537,o),
(575,514,o),
(552,514,cs,{
"Letterink-NibData" = {
AngleInDegrees = 270;
};
}),
(546,514,o),
(539,516,o),
(532,519,c,{
"Letterink-NibData" = {
AngleInDegrees = 218.23383;
};
}),
(506,486,l,{
"Letterink-NibData" = {
AngleInDegrees = 122.73523;
};
}),
(520,477,o),
(535,473,o),
(551,473,cs,{
"Letterink-NibData" = {
AngleInDegrees = 90;
};
}),
(599,473,o),
(633,509,o),
(633,562,cs),
(633,670,o),
(489,701,o),
(406,701,cs,{
"Letterink-NibData" = {
AngleInDegrees = 270;
};
}),
(208,701,o),
(65,530,o),
(65,333,cs,{
"Letterink-NibData" = {
AngleInDegrees = 180;
};
}),
(65,137,o),
(206,-21,o),
(389,-21,cs,{
"Letterink-NibData" = {
AngleInDegrees = 90;
};
}),
(494,-21,o),
(601,31,o),
(639,124,c,{
"Letterink-NibData" = {
AngleInDegrees = 180;
};
}),
(639,-188,l,{
"Letterink-NibData" = {
AngleInDegrees = 186.00901;
};
}),
(637,-207,o),
(623,-229,o),
(596,-229,cs,{
"Letterink-NibData" = {
AngleInDegrees = 270;
};
}),
(583,-229,o),
(573,-224,o),
(566,-217,c,{
"Letterink-NibData" = {
AngleInDegrees = 236.65929;
};
}),
(528,-242,l,{
"Letterink-NibData" = {
AngleInDegrees = 142.69605;
};
}),
(544,-263,o),
(567,-275,o),
(595,-275,cs,{
"Letterink-NibData" = {
AngleInDegrees = 90;
};
})
);
}
);
width = 787;
},
{
anchors = (
{
name = bottom;
pos = (392,-35);
},
{
name = top;
pos = (402,683);
}
);
associatedMasterId = "49C16FD3-6177-408B-A733-AEB3898BB77C";
layerId = "993784D9-67C7-4A50-9317-88BF6374F3F5";
name = "5 Jan 22, 08:42";
shapes = (
{
closed = 1;
nodes = (
(632,-188,l,{
"Letterink-NibData" = {
AngleInDegrees = 186.00901;
};
}),
(630,-207,o),
(616,-229,o),
(589,-229,cs,{
"Letterink-NibData" = {
AngleInDegrees = 270;
};
}),
(576,-229,o),
(566,-224,o),
(559,-217,c,{
"Letterink-NibData" = {
AngleInDegrees = 236.65929;
};
}),
(521,-242,l,{
"Letterink-NibData" = {
AngleInDegrees = 142.69605;
};
}),
(537,-263,o),
(560,-275,o),
(588,-275,cs,{
"Letterink-NibData" = {
AngleInDegrees = 90;
};
}),
(629,-275,o),
(674,-247,o),
(674,-188,cs),
(674,296,l,{
"Letterink-NibData" = {
AngleInDegrees = 270;
};
}),
(632,296,l,{
"Letterink-NibData" = {
AngleInDegrees = 180;
};
})
);
},
{
ref = G;
}
);
width = 780;
},
{
anchors = (
{
name = bottom;
pos = (392,-35);
},
{
name = top;
pos = (402,683);
}
);
associatedMasterId = "49C16FD3-6177-408B-A733-AEB3898BB77C";
hints = (
{
name = _corner.caps_swash;
options = 1;
origin = (0,2);
scale = (-1,1);
type = Corner;
}
);
layerId = "A1B0A753-5F1E-49B0-BC7C-F65043380999";
name = "5 Jan 22, 08:46";
shapes = (
{
closed = 1;
nodes = (
(651,330,l,{
"Letterink-NibData" = {
AngleInDegrees = 270;
};
}),
(651,-154,l),
(693,-154,l,{
"Letterink-NibData" = {
AngleInDegrees = 186.00901;
};
}),
(693,330,l,{
"Letterink-NibData" = {
AngleInDegrees = 180;
};
})
);
},
{
ref = G;
},
{
closed = 0;
nodes = (
(344,-192,l),
(363,-228,o),
(402,-253,o),
(446,-253,cs),
(509,-253,o),
(561,-202,o),
(561,-139,cs),
(561,-139,o),
(561,-139,o),
(561,-138,cs),
(561,308,l)
);
}
);
width = 799;
},
{
anchors = (
{
name = bottom;
pos = (400,-16);
},
{
name = top;
pos = (403,689);
}
);
associatedMasterId = "0CAF3BED-C4AC-4024-B3E1-4C69D1EF7EC0";
layerId = "14C1AB9A-2353-4380-971D-F4E2C0A0EA14";
name = "5 Jan 22, 08:50";
shapes = (
{
closed = 1;
nodes = (
(612,-161,l,{
"Letterink-NibData" = {
AngleInDegrees = 180;
};
}),
(612,-174,o),
(602,-183,o),
(589,-183,cs,{
"Letterink-NibData" = {
AngleInDegrees = 270;
};
}),
(576,-183,o),
(570,-178,o),
(563,-165,c,{
"Letterink-NibData" = {
AngleInDegrees = 235.68491;
};
}),
(500,-208,l,{
"Letterink-NibData" = {
AngleInDegrees = 154.88516;
};
}),
(515,-240,o),
(551,-263,o),
(588,-263,cs,{
"Letterink-NibData" = {
AngleInDegrees = 90;
};
}),
(633,-263,o),
(692,-228,o),
(692,-162,cs),
(692,317,l,{
"Letterink-NibData" = {
AngleInDegrees = 270;
};
}),
(612,317,l,{
"Letterink-NibData" = {
AngleInDegrees = 180;
};
})
);
},
{
attr = {
strokeHeight = 74;
strokeWidth = 80;
};
closed = 0;
nodes = (
(522,478,l,{
"Letterink-NibData" = {
AngleInDegrees = 116.56505;
};
}),
(532,473,o),
(541,471,o),
(550,471,cs,{
"Letterink-NibData" = {
AngleInDegrees = 90;
};
}),
(594,471,o),
(615,511,o),
(615,546,cs),
(615,617,o),
(526,674,o),
(398,668,cs,{
"Letterink-NibData" = {
AngleInDegrees = 267.25739;
};
}),
(231,660,o),
(97,522,o),
(97,334,cs,{
"Letterink-NibData" = {
AngleInDegrees = 180;
};
}),
(97,144,o),
(234,4,o),
(415,15,cs,{
"Letterink-NibData" = {
AngleInDegrees = 86.30861;
};
}),
(570,25,o),
(655,137,o),
(655,281,c,{
"Letterink-NibData" = {
AngleInDegrees = 358.26429;
};
}),
(654,314,l,{
"Letterink-NibData" = {
AngleInDegrees = 270.21221;
};
}),
(384,315,l,{
"Letterink-NibData" = {
AngleInDegrees = 270.21221;
};
})
);
}
);
width = 786;
},
{
layerId = m004;
shapes = (
{
closed = 1;
nodes = (
(553,-262,o),
(653,-200,o),
(671,-54,cs),
(716,312,l),
(556,312,l),
(512,-46,ls),
(508,-79,o),
(494,-114,o),
(462,-114,cs),
(455,-114,o),
(438,-108,o),
(431,-90,c),
(295,-150,l),
(320,-216,o),
(379,-262,o),
(456,-262,cs)
);
},
{
ref = G;
}
);
width = 737;
},
{
anchors = (
{
name = bottom;
pos = (386,-16);
},
{
name = top;
pos = (389,689);
}
);
associatedMasterId = m004;
layerId = "1BDCECD6-6FE7-4C37-9D37-AA6D55EDC2F1";
name = "5 Jan 22, 08:50";
shapes = (
{
closed = 1;
nodes = (
(598,-161,l,{
"Letterink-NibData" = {
AngleInDegrees = 180;
};
}),
(598,-174,o),
(588,-183,o),
(575,-183,cs,{
"Letterink-NibData" = {
AngleInDegrees = 270;
};
}),
(562,-183,o),
(556,-178,o),
(549,-165,c,{
"Letterink-NibData" = {
AngleInDegrees = 235.68491;
};
}),
(486,-208,l,{
"Letterink-NibData" = {
AngleInDegrees = 154.88516;
};
}),
(501,-240,o),
(537,-263,o),
(574,-263,cs,{
"Letterink-NibData" = {
AngleInDegrees = 90;
};
}),
(619,-263,o),
(678,-228,o),
(678,-162,cs),
(678,317,l,{
"Letterink-NibData" = {
AngleInDegrees = 270;
};
}),
(598,317,l,{
"Letterink-NibData" = {
AngleInDegrees = 180;
};
})
);
},
{
attr = {
strokeHeight = 74;
strokeWidth = 80;
};
closed = 0;
nodes = (
(508,478,l,{
"Letterink-NibData" = {
AngleInDegrees = 116.56505;
};
}),
(518,473,o),
(527,471,o),
(536,471,cs,{
"Letterink-NibData" = {
AngleInDegrees = 90;
};
}),
(580,471,o),
(601,511,o),
(601,546,cs),
(601,617,o),
(512,674,o),
(384,668,cs,{
"Letterink-NibData" = {
AngleInDegrees = 267.25739;
};
}),
(217,660,o),
(83,522,o),
(83,334,cs,{
"Letterink-NibData" = {
AngleInDegrees = 180;
};
}),
(83,144,o),
(220,4,o),
(401,15,cs,{
"Letterink-NibData" = {
AngleInDegrees = 86.30861;
};
}),
(556,25,o),
(641,137,o),
(641,281,c,{
"Letterink-NibData" = {
AngleInDegrees = 358.26429;
};
}),
(640,314,l,{
"Letterink-NibData" = {
AngleInDegrees = 270.21221;
};
}),
(370,315,l,{
"Letterink-NibData" = {
AngleInDegrees = 270.21221;
};
})
);
}
);
width = 758;
}
);
metricLeft = O;
metricRight = G;
userData = {
position = 593;
width = 57;
};
},
{
glyphname = H;
kernLeft = E;
layers = (
{
anchors = (
{
name = bottom;
pos = (345,0);
},
{
name = center;
pos = (406,500);
},
{
name = top;
pos = (428,675);
},
{
name = topleft;
pos = (70,684);
}
);
hints = (
{
name = _corner.caps_vert;
origin = (0,9);
type = Corner;
}
);
layerId = "0CAF3BED-C4AC-4024-B3E1-4C69D1EF7EC0";
shapes = (
{
closed = 1;
nodes = (
(162,-1,l),
(201,319,l,{
"Letterink-NibData" = {
AngleInDegrees = 90;
};
}),
(557,319,l,{
"Letterink-NibData" = {
AngleInDegrees = 180;
};
}),
(518,-1,l,{
"Letterink-NibData" = {
AngleInDegrees = 90;
};
}),
(600,-1,l),
(684,686,l,{
"Letterink-NibData" = {
AngleInDegrees = 270;
};
}),
(602,686,l,{
"Letterink-NibData" = {
AngleInDegrees = 180;
};
}),
(566,395,l,{
"Letterink-NibData" = {
AngleInDegrees = 270;
};
}),
(210,395,l),
(231,559,l,{
"Letterink-NibData" = {
AngleInDegrees = 269.30131;
};
}),
(149,558,l,{
"Letterink-NibData" = {
AngleInDegrees = 180;
};
}),
(80,-1,l,{
"Letterink-NibData" = {
AngleInDegrees = 90;
};
})
);
}
);
width = 699;
},
{
anchors = (
{
name = bottom;
pos = (346,0);
},
{
name = center;
pos = (406,489);
},
{
name = top;
pos = (430,685);
},
{
name = topleft;
pos = (103,684);
}
);
hints = (
{
name = _corner.caps_vert;
origin = (0,9);
type = Corner;
}
);
layerId = "49C16FD3-6177-408B-A733-AEB3898BB77C";
shapes = (
{
closed = 1;
nodes = (
(133,1,l),
(175,340,l,{
"Letterink-NibData" = {
AngleInDegrees = 90;
};
}),
(593,340,l,{
"Letterink-NibData" = {
AngleInDegrees = 180;
};
}),
(551,1,l,{
"Letterink-NibData" = {
AngleInDegrees = 90;
};
}),
(588,1,l),
(672,685,l,{
"Letterink-NibData" = {
AngleInDegrees = 270;
};
}),
(635,685,l,{
"Letterink-NibData" = {
AngleInDegrees = 180;
};
}),
(597,376,l,{
"Letterink-NibData" = {
AngleInDegrees = 270;
};
}),
(179,376,l),
(203,570,l,{
"Letterink-NibData" = {
AngleInDegrees = 270;
};
}),
(165,570,l,{
"Letterink-NibData" = {
AngleInDegrees = 180;
};
}),
(95,1,l,{
"Letterink-NibData" = {
AngleInDegrees = 90;
};
})
);
}
);
width = 699;
},
{
anchors = (
{
name = bottom;
pos = (392,0);
},
{
name = center;
pos = (453,500);
},
{
name = top;
pos = (475,684);
},
{
name = topleft;
pos = (155,684);
}
);
hints = (
{
name = _corner.caps_vert;
origin = (0,9);
type = Corner;
}
);
layerId = m004;
shapes = (
{
closed = 1;
nodes = (
(274,0,l),
(307,270,l,{
"Letterink-NibData" = {
AngleInDegrees = "90";
};
}),
(542,270,l,{
"Letterink-NibData" = {
AngleInDegrees = "180";
};
}),
(509,0,l,{
"Letterink-NibData" = {
AngleInDegrees = "90";
};
}),
(674,0,l),
(758,684,l,{
"Letterink-NibData" = {
AngleInDegrees = "270";
};
}),
(593,684,l,{
"Letterink-NibData" = {
AngleInDegrees = "180";
};
}),
(561,422,l,{
"Letterink-NibData" = {
AngleInDegrees = "270";
};
}),
(326,422,l),
(335,500,l,{
"Letterink-NibData" = {
AngleInDegrees = "270";
};
}),
(170,500,l,{
"Letterink-NibData" = {
AngleInDegrees = "180";
};
}),
(109,0,l,{
"Letterink-NibData" = {
AngleInDegrees = "90";
};
})
);
}
);
width = 757;
}
);
unicode = 72;
userData = {
position = 554;
width = 61;
};
},
{
glyphname = H.ss01;
layers = (
{
anchors = (
{
name = bottom;
pos = (315,0);
},
{
name = center;
pos = (378,512);
},
{
name = top;
pos = (399,684);
},
{
name = topleft;
pos = (82,684);
}
);
hints = (
{
name = _corner.left;
options = 2;
origin = (0,10);
type = Corner;
}
);
layerId = "0CAF3BED-C4AC-4024-B3E1-4C69D1EF7EC0";
shapes = (
{
closed = 1;
nodes = (
(125,-1,l),
(164,318,l,{
"Letterink-NibData" = {
AngleInDegrees = 90;
};
}),
(541,318,l,{
"Letterink-NibData" = {
AngleInDegrees = 180;
};
}),
(502,-1,l,{
"Letterink-NibData" = {
AngleInDegrees = 90;
};
}),
(584,-1,l),
(668,684,l,{
"Letterink-NibData" = {
AngleInDegrees = 270;
};
}),
(586,684,l,{
"Letterink-NibData" = {
AngleInDegrees = 180;
};
}),
(550,394,l,{
"Letterink-NibData" = {
AngleInDegrees = 270;
};
}),
(173,394,l),
(193,543,l,{
"Letterink-NibData" = {
AngleInDegrees = 270;
};
}),
(110,543,l,{
"Letterink-NibData" = {
AngleInDegrees = 180;
};
}),
(42,-1,l,{
"Letterink-NibData" = {
AngleInDegrees = 90;
};
})
);
}
);
width = 683;
},
{
anchors = (
{
name = bottom;
pos = (285,0);
},
{
name = center;
pos = (348,498);
},
{
name = top;
pos = (370,684);
},
{
name = topleft;
pos = (60,684);
}
);
hints = (
{
name = _corner.left;
options = 2;
origin = (0,10);
type = Corner;
}
);
layerId = "49C16FD3-6177-408B-A733-AEB3898BB77C";
shapes = (
{
closed = 1;
nodes = (
(73,0,l),
(117,340,l,{
"Letterink-NibData" = {
AngleInDegrees = 90;
};
}),
(542,340,l,{
"Letterink-NibData" = {
AngleInDegrees = 180;
};
}),
(501,0,l,{
"Letterink-NibData" = {
AngleInDegrees = 90;
};
}),
(539,0,l),
(623,684,l,{
"Letterink-NibData" = {
AngleInDegrees = 270;
};
}),
(585,684,l,{
"Letterink-NibData" = {
AngleInDegrees = 180;
};
}),
(547,376,l,{
"Letterink-NibData" = {
AngleInDegrees = 270;
};
}),
(122,376,l),
(145,555,l,{
"Letterink-NibData" = {
AngleInDegrees = 270;
};
}),
(107,555,l,{
"Letterink-NibData" = {
AngleInDegrees = 180;
};
}),
(35,0,l,{
"Letterink-NibData" = {
AngleInDegrees = 90;
};
})
);
}
);
width = 650;
},
{
anchors = (
{
name = bottom;
pos = (339,0);
},
{
name = center;
pos = (402,508);
},
{
name = top;
pos = (423,684);
},
{
name = topleft;
pos = (89,684);
}
);
hints = (
{
name = _corner.left;
options = 1;
origin = (0,10);
type = Corner;
}
);
layerId = m004;
shapes = (
{
closed = 1;
nodes = (
(214,0,l),
(247,270,l,{
"Letterink-NibData" = {
AngleInDegrees = "90";
};
}),
(497,270,l,{
"Letterink-NibData" = {
AngleInDegrees = "180";
};
}),
(464,0,l,{
"Letterink-NibData" = {
AngleInDegrees = "90";
};
}),
(629,0,l),
(713,684,l,{
"Letterink-NibData" = {
AngleInDegrees = "270";
};
}),
(548,684,l,{
"Letterink-NibData" = {
AngleInDegrees = "180";
};
}),
(516,422,l,{
"Letterink-NibData" = {
AngleInDegrees = "270";
};
}),
(266,422,l),
(279,525,l,{
"Letterink-NibData" = {
AngleInDegrees = "270";
};
}),
(113,525,l,{
"Letterink-NibData" = {
AngleInDegrees = "180";
};
}),
(48,0,l,{
"Letterink-NibData" = {
AngleInDegrees = "90";
};
})
);
}
);
width = 712;
}
);
metricLeft = "=|H*.5";
metricRight = H;
userData = {
position = 525;
width = 61;
};
},
{
glyphname = H.swsh;
kernLeft = Swash;
layers = (
{
anchors = (
{
name = bottom;
pos = (389,0);
},
{
name = center;
pos = (448,478);
},
{
name = top;
pos = (472,675);
},
{
name = topleft;
pos = (111,684);
}
);
hints = (
{
name = _corner.caps_swash_vert;
origin = (0,9);
type = Corner;
}
);
layerId = "0CAF3BED-C4AC-4024-B3E1-4C69D1EF7EC0";
shapes = (
{
closed = 1;
nodes = (
(213,-1,l),
(252,317,l,{
"Letterink-NibData" = {
AngleInDegrees = 90;
};
}),
(597,317,l,{
"Letterink-NibData" = {
AngleInDegrees = 180;
};
}),
(558,-1,l,{
"Letterink-NibData" = {
AngleInDegrees = 90;
};
}),
(640,-1,l),
(724,686,l,{
"Letterink-NibData" = {
AngleInDegrees = 270;
};
}),
(642,686,l,{
"Letterink-NibData" = {
AngleInDegrees = 180;
};
}),
(606,395,l,{
"Letterink-NibData" = {
AngleInDegrees = 270;
};
}),
(261,395,l),
(282,559,l,{
"Letterink-NibData" = {
AngleInDegrees = 270;
};
}),
(200,559,l,{
"Letterink-NibData" = {
AngleInDegrees = 180;
};
}),
(131,-1,l,{
"Letterink-NibData" = {
AngleInDegrees = 90;
};
})
);
}
);
width = 739;
},
{
anchors = (
{
name = bottom;
pos = (379,0);
},
{
name = center;
pos = (434,450);
},
{
name = top;
pos = (463,684);
},
{
name = topleft;
pos = (130,684);
}
);
hints = (
{
name = _corner.caps_swash_vert;
origin = (0,9);
type = Corner;
}
);
layerId = "49C16FD3-6177-408B-A733-AEB3898BB77C";
shapes = (
{
closed = 1;
nodes = (
(174,1,l),
(216,340,l,{
"Letterink-NibData" = {
AngleInDegrees = 90;
};
}),
(627,340,l,{
"Letterink-NibData" = {
AngleInDegrees = 180;
};
}),
(585,1,l,{
"Letterink-NibData" = {
AngleInDegrees = 90;
};
}),
(623,1,l),
(707,685,l,{
"Letterink-NibData" = {
AngleInDegrees = 270;
};
}),
(669,685,l,{
"Letterink-NibData" = {
AngleInDegrees = 180;
};
}),
(631,376,l,{
"Letterink-NibData" = {
AngleInDegrees = 270;
};
}),
(220,376,l),
(244,570,l,{
"Letterink-NibData" = {
AngleInDegrees = 270;
};
}),
(206,570,l,{
"Letterink-NibData" = {
AngleInDegrees = 180;
};
}),
(136,1,l,{
"Letterink-NibData" = {
AngleInDegrees = 90;
};
})
);
}
);
width = 734;
},
{
anchors = (
{
name = bottom;
pos = (438,0);
},
{
name = center;
pos = (501,512);
},
{
name = top;
pos = (522,684);
},
{
name = topleft;
pos = (197,684);
}
);
hints = (
{
name = _corner.caps_swash_vert;
origin = (0,9);
type = Corner;
}
);
layerId = m004;
shapes = (
{
closed = 1;
nodes = (
(322,-5,l),
(356,270,l,{
"Letterink-NibData" = {
AngleInDegrees = "90";
};
}),
(593,270,l,{
"Letterink-NibData" = {
AngleInDegrees = "180";
};
}),
(559,-5,l,{
"Letterink-NibData" = {
AngleInDegrees = "90";
};
}),
(724,-5,l),
(809,684,l,{
"Letterink-NibData" = {
AngleInDegrees = "270";
};
}),
(644,684,l,{
"Letterink-NibData" = {
AngleInDegrees = "180";
};
}),
(612,422,l,{
"Letterink-NibData" = {
AngleInDegrees = "270";
};
}),
(375,422,l),
(385,501,l,{
"Letterink-NibData" = {
AngleInDegrees = "270";
};
}),
(220,501,l,{
"Letterink-NibData" = {
AngleInDegrees = "180";
};
}),
(157,-5,l,{
"Letterink-NibData" = {
AngleInDegrees = "90";
};
})
);
}
);
width = 808;
}
);
metricLeft = "=H";
metricRight = H;
userData = {
position = 554;
width = 61;
};
},
{
glyphname = I;
layers = (
{
anchors = (
{
name = bottom;
pos = (78,0);
},
{
name = center;
pos = (119,340);
},
{
name = ogonek;
pos = (119,-1);
},
{
name = top;
pos = (160,684);
},
{
name = topleft;
pos = (55,684);
}
);
layerId = "0CAF3BED-C4AC-4024-B3E1-4C69D1EF7EC0";
shapes = (
{
closed = 1;
nodes = (
(119,-1,l),
(203,684,l,{
"Letterink-NibData" = {
AngleInDegrees = 270;
};
}),
(121,684,l,{
"Letterink-NibData" = {
AngleInDegrees = 180;
};
}),
(37,-1,l,{
"Letterink-NibData" = {
AngleInDegrees = 90;
};
})
);
}
);
width = 218;
},
{
anchors = (
{
name = bottom;
pos = (66,0);
},
{
name = center;
pos = (108,343);
},
{
name = ogonek;
pos = (87,1);
},
{
name = top;
pos = (152,685);
},
{
name = topleft;
pos = (64,684);
}
);
layerId = "49C16FD3-6177-408B-A733-AEB3898BB77C";
shapes = (
{
closed = 1;
nodes = (
(87,1,l),
(171,684,l,{
"Letterink-NibData" = {
AngleInDegrees = 270;
};
}),
(133,684,l,{
"Letterink-NibData" = {
AngleInDegrees = 180;
};
}),
(49,1,l,{
"Letterink-NibData" = {
AngleInDegrees = 90;
};
})
);
}
);
width = 198;
},
{
anchors = (
{
name = bottom;
pos = (104,-1);
},
{
name = center;
pos = (146,339);
},
{
name = ogonek;
pos = (186,0);
},
{
name = top;
pos = (187,684);
},
{
name = topleft;
pos = (43,684);
}
);
layerId = m004;
shapes = (
{
closed = 1;
nodes = (
(186,0,l),
(270,684,l,{
"Letterink-NibData" = {
AngleInDegrees = 270;
};
}),
(105,684,l,{
"Letterink-NibData" = {
AngleInDegrees = 180;
};
}),
(21,0,l,{
"Letterink-NibData" = {
AngleInDegrees = 90;
};
})
);
}
);
width = 269;
}
);
metricLeft = "=|H";
metricRight = H;
unicode = 73;
userData = {
position = 54;
width = 61;
};
},
{
glyphname = I.swsh;
kernLeft = Swash;
layers = (
{
anchors = (
{
name = bottom;
pos = (204,0);
},
{
name = center;
pos = (245,340);
},
{
name = ogonek;
pos = (295,-1);
},
{
name = top;
pos = (288,684);
},
{
name = topleft;
pos = (147,684);
}
);
hints = (
{
name = _corner.caps_swash;
origin = (0,2);
type = Corner;
}
);
layerId = "0CAF3BED-C4AC-4024-B3E1-4C69D1EF7EC0";
shapes = (
{
closed = 1;
nodes = (
(258,608,l),
(258,684,l),
(193,684,l),
(193,608,l)
);
},
{
closed = 1;
nodes = (
(245,0,l),
(329,684,l,{
"Letterink-NibData" = {
AngleInDegrees = 270;
};
}),
(247,684,l,{
"Letterink-NibData" = {
AngleInDegrees = 180;
};
}),
(163,0,l,{
"Letterink-NibData" = {
AngleInDegrees = 90;
};
})
);
}
);
width = 344;
},
{
anchors = (
{
name = bottom;
pos = (216,0);
},
{
name = center;
pos = (215,342);
},
{
name = ogonek;
pos = (238,1);
},
{
name = top;
pos = (215,684);
},
{
name = topleft;
pos = (127,684);
}
);
hints = (
{
name = _corner.caps_swash;
origin = (0,2);
type = Corner;
}
);
layerId = "49C16FD3-6177-408B-A733-AEB3898BB77C";
shapes = (
{
closed = 1;
nodes = (
(232,648,l),
(232,684,l),
(178,684,l),
(178,648,l)
);
},
{
closed = 1;
nodes = (
(183,1,l),
(267,684,l,{
"Letterink-NibData" = {
AngleInDegrees = 270;
};
}),
(230,684,l,{
"Letterink-NibData" = {
AngleInDegrees = 180;
};
}),
(146,1,l,{
"Letterink-NibData" = {
AngleInDegrees = 90;
};
})
);
}
);
width = 294;
},
{
anchors = (
{
name = bottom;
pos = (226,0);
},
{
name = center;
pos = (225,386);
},
{
name = ogonek;
pos = (249,1);
},
{
name = top;
pos = (223,684);
},
{
name = topleft;
pos = (135,684);
}
);
associatedMasterId = "49C16FD3-6177-408B-A733-AEB3898BB77C";
hints = (
{
name = _corner.caps_swash_vert;
options = 1;
origin = (0,1);
type = Corner;
}
);
layerId = "AE169FFE-AC8B-4E8A-9035-7F809B0493BD";
name = "5 Jan 22, 09:48";
shapes = (
{
closed = 1;
nodes = (
(245,1,l),
(245,576,l,{
"Letterink-NibData" = {
AngleInDegrees = 270;
};
}),
(203,576,l,{
"Letterink-NibData" = {
AngleInDegrees = 180;
};
}),
(203,1,l,{
"Letterink-NibData" = {
AngleInDegrees = 90;
};
})
);
}
);
width = 356;
},
{
anchors = (
{
name = bottom;
pos = (265,0);
},
{
name = center;
pos = (311,341);
},
{
name = ogonek;
pos = (398,-1);
},
{
name = top;
pos = (352,684);
},
{
name = topleft;
pos = (167,684);
}
);
hints = (
{
name = _corner.caps_swash;
origin = (0,2);
type = Corner;
}
);
layerId = m004;
shapes = (
{
closed = 1;
nodes = (
(360,536,l),
(360,684,l),
(222,684,l,{
"Letterink-NibData" = {
AngleInDegrees = 180;
};
}),
(222,536,l)
);
},
{
closed = 1;
nodes = (
(348,-1,l),
(432,684,l,{
"Letterink-NibData" = {
AngleInDegrees = 270;
};
}),
(267,684,l,{
"Letterink-NibData" = {
AngleInDegrees = 180;
};
}),
(183,-1,l,{
"Letterink-NibData" = {
AngleInDegrees = 90;
};
})
);
}
);
width = 431;
}
);
metricLeft = H.swsh;
metricRight = H;
userData = {
position = 54;
width = 61;
};
},
{
glyphname = IJ;
kernRight = J;
layers = (
{
anchors = (
{
name = bottom;
pos = (352,0);
},
{
name = top;
pos = (352,684);
}
);
background = {
shapes = (
{
closed = 1;
nodes = (
(463,-7,o),
(541,70,o),
(541,193,cs),
(541,689,l,{
"Letterink-NibData" = {
AngleInDegrees = "270";
};
}),
(472,689,l,{
"Letterink-NibData" = {
AngleInDegrees = "211.6075";
};
}),
(464,676,o),
(434,663,o),
(414,663,cs,{
"Letterink-NibData" = {
AngleInDegrees = "270";
};
}),
(372,663,o),
(339,698,o),
(289,698,cs,{
"Letterink-NibData" = {
AngleInDegrees = "270";
};
}),
(253,698,o),
(221,692,o),
(164,664,c,{
"Letterink-NibData" = {
AngleInDegrees = "153.09391";
};
}),
(198,597,l,{
"Letterink-NibData" = {
AngleInDegrees = 67.52057000000001;
};
}),
(227,609,o),
(256,620,o),
(281,620,cs,{
"Letterink-NibData" = {
AngleInDegrees = "90";
};
}),
(329,620,o),
(366,587,o),
(409,587,cs,{
"Letterink-NibData" = {
AngleInDegrees = "90";
};
}),
(431,587,o),
(446,589,o),
(459,594,c,{
"Letterink-NibData" = {
AngleInDegrees = "180";
};
}),
(459,196,ls,{
"Letterink-NibData" = {
AngleInDegrees = "180";
};
}),
(459,118,o),
(414,69,o),
(342,69,cs,{
"Letterink-NibData" = {
AngleInDegrees = "270";
};
}),
(266,69,o),
(221,115,o),
(225,188,c,{
"Letterink-NibData" = {
AngleInDegrees = "274.39871";
};
}),
(147,194,l,{
"Letterink-NibData" = {
AngleInDegrees = "181.88819";
};
}),
(143,71,o),
(217,-7,o),
(339,-7,cs,{
"Letterink-NibData" = {
AngleInDegrees = "90";
};
})
);
}
);
};
layerId = "0CAF3BED-C4AC-4024-B3E1-4C69D1EF7EC0";
shapes = (
{
closed = 1;
nodes = (
(450,-13,o),
(554,72,o),
(574,234,cs),
(629,684,l,{
"Letterink-NibData" = {
AngleInDegrees = "270";
};
}),
(554,684,l,{
"Letterink-NibData" = {
AngleInDegrees = "211.6075";
};
}),
(543,654,l),
(493,245,ls,{
"Letterink-NibData" = {
AngleInDegrees = "180";
};
}),
(478,124,o),
(406,63,o),
(305,63,cs,{
"Letterink-NibData" = {
AngleInDegrees = "270";
};
}),
(204,63,o),
(163,137,o),
(169,194,c),
(89,187,l),
(78,81,o),
(159,-13,o),
(300,-13,cs,{
"Letterink-NibData" = {
AngleInDegrees = "90";
};
})
);
},
{
pos = (35,285);
ref = I;
scale = (1,0.5845);
slant = (-4.1049,0);
},
{
closed = 1;
nodes = (
(538,677,o),
(525,671,o),
(502,671,cs),
(474,671,o),
(454,702,o),
(400,702,cs),
(364,702,o),
(324,693,o),
(280,664,c),
(320,600,l),
(349,620,o),
(369,626,o),
(398,626,cs),
(426,626,o),
(446,595,o),
(500,595,cs),
(558,595,o),
(616,633,o),
(629,682,c),
(548,685,l)
);
}
);
width = 637;
},
{
anchors = (
{
name = bottom;
pos = (354,0);
},
{
name = top;
pos = (370,684);
}
);
layerId = "49C16FD3-6177-408B-A733-AEB3898BB77C";
shapes = (
{
closed = 1;
nodes = (
(425,-6,o),
(520,81,o),
(537,218,cs),
(595,687,l,{
"Letterink-NibData" = {
AngleInDegrees = "268.5679";
};
}),
(559,687,l,{
"Letterink-NibData" = {
AngleInDegrees = "184.66686";
};
}),
(553,656,l),
(500,223,ls,{
"Letterink-NibData" = {
AngleInDegrees = "180";
};
}),
(485,104,o),
(403,30,o),
(291,30,cs,{
"Letterink-NibData" = {
AngleInDegrees = "270";
};
}),
(191,30,o),
(129,84,o),
(131,176,c),
(93,173,l),
(89,65,o),
(163,-6,o),
(291,-6,cs,{
"Letterink-NibData" = {
AngleInDegrees = "90";
};
})
);
},
{
alignment = -1;
pos = (33,264);
ref = I;
scale = (1,0.6157);
slant = (-4.3232,0);
},
{
closed = 1;
nodes = (
(544,675,o),
(522,666,o),
(494,666,cs),
(453,666,o),
(433,696,o),
(376,696,cs),
(342,696,o),
(300,683,o),
(273,663,c),
(293,633,l),
(313,648,o),
(346,660,o),
(375,660,cs),
(414,660,o),
(435,630,o),
(493,630,cs),
(535,630,o),
(577,649,o),
(594,686,c),
(555,688,l)
);
}
);
width = 613;
},
{
anchors = (
{
name = bottom;
pos = (377,0);
},
{
name = top;
pos = (352,684);
}
);
layerId = m004;
shapes = (
{
closed = 1;
nodes = (
(489,-27,o),
(610,73,o),
(630,240,cs),
(684,684,l,{
"Letterink-NibData" = {
AngleInDegrees = "270";
};
}),
(561,684,l,{
"Letterink-NibData" = {
AngleInDegrees = "211.6075";
};
}),
(512,632,l),
(466,251,ls,{
"Letterink-NibData" = {
AngleInDegrees = "180";
};
}),
(459,191,o),
(404,125,o),
(322,125,cs,{
"Letterink-NibData" = {
AngleInDegrees = "270";
};
}),
(259,125,o),
(207,161,o),
(210,221,c),
(58,216,l),
(48,81,o),
(144,-27,o),
(317,-27,cs,{
"Letterink-NibData" = {
AngleInDegrees = "90";
};
})
);
},
{
pos = (37,300);
ref = I;
scale = (1,0.5611);
slant = (-3.9411,0);
},
{
closed = 1;
nodes = (
(543,680,o),
(528,668,o),
(510,668,cs),
(492,668,o),
(459,703,o),
(403,703,cs),
(374,703,o),
(338,694,o),
(301,668,c),
(359,536,l),
(374,550,o),
(383,555,o),
(398,555,cs),
(422,555,o),
(451,520,o),
(504,520,cs),
(578,520,o),
(672,595,o),
(684,680,c),
(546,688,l)
);
}
);
width = 678;
},
{
anchors = (
{
name = bottom;
pos = (380,0);
},
{
name = top;
pos = (396,684);
}
);
associatedMasterId = "49C16FD3-6177-408B-A733-AEB3898BB77C";
layerId = "60A306EB-A9BE-4CAC-A58E-BFF0F7C2CB4B";
name = "7 Jul 22, 13:18";
shapes = (
{
closed = 1;
nodes = (
(485,-6,o),
(572,82,o),
(572,219,cs),
(572,687,l,{
"Letterink-NibData" = {
AngleInDegrees = "268.5679";
};
}),
(536,687,l,{
"Letterink-NibData" = {
AngleInDegrees = "184.66686";
};
}),
(532,656,l),
(536,222,ls,{
"Letterink-NibData" = {
AngleInDegrees = "180";
};
}),
(537,103,o),
(460,30,o),
(346,30,cs,{
"Letterink-NibData" = {
AngleInDegrees = "270";
};
}),
(245,30,o),
(175,85,o),
(166,177,c),
(128,172,l),
(138,64,o),
(220,-6,o),
(347,-6,cs,{
"Letterink-NibData" = {
AngleInDegrees = "90";
};
})
);
},
{
alignment = -1;
pos = (33,264);
ref = I;
scale = (1,0.6157);
},
{
attr = {
identifier = ID0x7f962dd1a620;
lineCapEnd = "4";
strokeHeight = 36;
strokeWidth = 34;
};
closed = 0;
nodes = (
(265,648,l),
(286,665,o),
(323,678,o),
(354,678,cs),
(402,678,o),
(426,648,o),
(476,648,cs),
(511,648,o),
(542,663,o),
(553,687,c)
);
}
);
width = 650;
},
{
anchors = (
{
name = bottom;
pos = (348,0);
},
{
name = top;
pos = (348,684);
}
);
associatedMasterId = "0CAF3BED-C4AC-4024-B3E1-4C69D1EF7EC0";
background = {
shapes = (
{
closed = 1;
nodes = (
(459,-7,o),
(537,70,o),
(537,193,cs),
(537,689,l,{
"Letterink-NibData" = {
AngleInDegrees = "270";
};
}),
(468,689,l,{
"Letterink-NibData" = {
AngleInDegrees = "211.6075";
};
}),
(460,676,o),
(430,663,o),
(410,663,cs,{
"Letterink-NibData" = {
AngleInDegrees = "270";
};
}),
(368,663,o),
(335,698,o),
(285,698,cs,{
"Letterink-NibData" = {
AngleInDegrees = "270";
};
}),
(249,698,o),
(217,692,o),
(160,664,c,{
"Letterink-NibData" = {
AngleInDegrees = "153.09391";
};
}),
(194,597,l,{
"Letterink-NibData" = {
AngleInDegrees = 67.52057000000001;
};
}),
(223,609,o),
(252,620,o),
(277,620,cs,{
"Letterink-NibData" = {
AngleInDegrees = "90";
};
}),
(325,620,o),
(362,587,o),
(405,587,cs,{
"Letterink-NibData" = {
AngleInDegrees = "90";
};
}),
(427,587,o),
(442,589,o),
(455,594,c,{
"Letterink-NibData" = {
AngleInDegrees = "180";
};
}),
(455,196,ls,{
"Letterink-NibData" = {
AngleInDegrees = "180";
};
}),
(455,118,o),
(410,69,o),
(338,69,cs,{
"Letterink-NibData" = {
AngleInDegrees = "270";
};
}),
(262,69,o),
(217,115,o),
(221,188,c,{
"Letterink-NibData" = {
AngleInDegrees = "274.39871";
};
}),
(143,194,l,{
"Letterink-NibData" = {
AngleInDegrees = "181.88819";
};
}),
(139,71,o),
(213,-7,o),
(335,-7,cs,{
"Letterink-NibData" = {
AngleInDegrees = "90";
};
})
);
}
);
};
layerId = "3FE10B5F-3F42-4C74-9893-12DD354C702F";
name = "7 Jul 22, 13:18";
shapes = (
{
closed = 1;
nodes = (
(499,-13,o),
(597,74,o),
(597,236,cs),
(597,684,l,{
"Letterink-NibData" = {
AngleInDegrees = "270";
};
}),
(522,684,l,{
"Letterink-NibData" = {
AngleInDegrees = "211.6075";
};
}),
(516,654,l),
(515,243,ls,{
"Letterink-NibData" = {
AngleInDegrees = "180";
};
}),
(515,122,o),
(450,63,o),
(348,63,cs,{
"Letterink-NibData" = {
AngleInDegrees = "270";
};
}),
(245,63,o),
(193,139,o),
(192,196,c),
(113,185,l),
(115,79,o),
(205,-13,o),
(345,-13,cs,{
"Letterink-NibData" = {
AngleInDegrees = "90";
};
})
);
},
{
pos = (35,285);
ref = I;
scale = (1,0.5845);
},
{
attr = {
identifier = ID0x7f962dd1a620;
lineCapEnd = "4";
strokeHeight = 76;
strokeWidth = 74;
};
closed = 0;
nodes = (
(269,632,l),
(302,656,o),
(332,664,o),
(364,664,cs),
(407,664,o),
(427,633,o),
(470,633,cs),
(512,633,o),
(551,656,o),
(559,684,c)
);
}
);
width = 663;
},
{
anchors = (
{
name = bottom;
pos = (421,0);
},
{
name = top;
pos = (396,684);
}
);
associatedMasterId = m004;
layerId = "E0D82B3F-63AD-4562-96C8-18F73390CCF6";
name = "7 Jul 22, 13:19";
shapes = (
{
closed = 1;
nodes = (
(568,-27,o),
(681,77,o),
(681,244,cs),
(681,684,l,{
"Letterink-NibData" = {
AngleInDegrees = "270";
};
}),
(559,684,l,{
"Letterink-NibData" = {
AngleInDegrees = "211.6075";
};
}),
(516,632,l),
(516,247,ls,{
"Letterink-NibData" = {
AngleInDegrees = "180";
};
}),
(516,187,o),
(470,125,o),
(388,125,cs,{
"Letterink-NibData" = {
AngleInDegrees = "270";
};
}),
(321,125,o),
(260,165,o),
(260,225,c),
(106,212,l),
(113,77,o),
(219,-27,o),
(389,-27,cs,{
"Letterink-NibData" = {
AngleInDegrees = "90";
};
})
);
},
{
pos = (37,300);
ref = I;
scale = (1,0.5611);
},
{
attr = {
identifier = ID0x7f962dd1a620;
lineCapEnd = "4";
strokeHeight = 148;
strokeWidth = 138;
};
closed = 0;
nodes = (
(304,598,l),
(333,619,o),
(362,629,o),
(388,629,cs),
(437,629,o),
(471,594,o),
(515,594,cs),
(556,594,o),
(611,642,o),
(612,684,c)
);
}
);
width = 731;
}
);
metricLeft = I;
metricRight = J;
unicode = 306;
userData = {
position = 507;
width = 53;
};
},
{
glyphname = IJ.ss01;
kernRight = J;
layers = (
{
layerId = "0CAF3BED-C4AC-4024-B3E1-4C69D1EF7EC0";
shapes = (
{
closed = 1;
nodes = (
(411,-13,o),
(509,72,o),
(526,210,cs),
(584,684,l,{
"Letterink-NibData" = {
AngleInDegrees = "270";
};
}),
(503,684,l,{
"Letterink-NibData" = {
AngleInDegrees = "211.6075";
};
}),
(445,217,ls,{
"Letterink-NibData" = {
AngleInDegrees = "180";
};
}),
(434,124,o),
(367,63,o),
(275,63,cs,{
"Letterink-NibData" = {
AngleInDegrees = "270";
};
}),
(187,63,o),
(151,121,o),
(157,174,c),
(77,167,l),
(67,71,o),
(141,-13,o),
(270,-13,cs,{
"Letterink-NibData" = {
AngleInDegrees = "90";
};
})
);
},
{
pos = (36,241);
ref = I;
scale = (1,0.6481);
slant = (-4.5498,0);
}
);
width = 592;
},
{
layerId = "49C16FD3-6177-408B-A733-AEB3898BB77C";
shapes = (
{
closed = 1;
nodes = (
(424,-6,o),
(517,79,o),
(533,213,cs),
(591,685,l,{
"Letterink-NibData" = {
AngleInDegrees = 268.5679;
};
}),
(553,684,l,{
"Letterink-NibData" = {
AngleInDegrees = 184.66686;
};
}),
(496,218,ls,{
"Letterink-NibData" = {
AngleInDegrees = 180;
};
}),
(482,102,o),
(402,30,o),
(293,30,cs,{
"Letterink-NibData" = {
AngleInDegrees = 270;
};
}),
(204,30,o),
(141,84,o),
(143,176,c),
(105,173,l),
(100,65,o),
(171,-6,o),
(293,-6,cs,{
"Letterink-NibData" = {
AngleInDegrees = 90;
};
})
);
},
{
alignment = -1;
pos = (37,234);
ref = I;
scale = (1,0.6583);
slant = (-4.6211,0);
}
);
width = 610;
},
{
layerId = m004;
shapes = (
{
closed = 1;
nodes = (
(462,-22,o),
(566,74,o),
(586,235,cs),
(641,684,l,{
"Letterink-NibData" = {
AngleInDegrees = "270";
};
}),
(476,684,l,{
"Letterink-NibData" = {
AngleInDegrees = "211.6075";
};
}),
(422,246,ls,{
"Letterink-NibData" = {
AngleInDegrees = "180";
};
}),
(416,191,o),
(375,130,o),
(304,130,cs,{
"Letterink-NibData" = {
AngleInDegrees = "270";
};
}),
(240,130,o),
(217,166,o),
(224,226,c),
(69,221,l),
(45,86,o),
(126,-22,o),
(299,-22,cs,{
"Letterink-NibData" = {
AngleInDegrees = "90";
};
})
);
},
{
pos = (34,275);
ref = I;
scale = (1,0.5969);
slant = (-4.1917,0);
}
);
width = 635;
}
);
metricLeft = I;
metricRight = J;
userData = {
position = 507;
width = 53;
};
},
{
glyphname = J;
kernLeft = J;
kernRight = J;
layers = (
{
anchors = (
{
name = bottom;
pos = (226,0);
},
{
name = top;
pos = (310,684);
}
);
layerId = "0CAF3BED-C4AC-4024-B3E1-4C69D1EF7EC0";
shapes = (
{
closed = 1;
nodes = (
(334,-7,o),
(424,72,o),
(440,201,cs),
(500,689,l,{
"Letterink-NibData" = {
AngleInDegrees = 270;
};
}),
(430,691,l,{
"Letterink-NibData" = {
AngleInDegrees = 211.6075;
};
}),
(420,678,o),
(388,663,o),
(366,663,cs,{
"Letterink-NibData" = {
AngleInDegrees = 270;
};
}),
(326,663,o),
(297,698,o),
(245,698,cs,{
"Letterink-NibData" = {
AngleInDegrees = 270;
};
}),
(211,698,o),
(178,693,o),
(118,665,c,{
"Letterink-NibData" = {
AngleInDegrees = 153.09391;
};
}),
(148,596,l,{
"Letterink-NibData" = {
AngleInDegrees = 67.52057;
};
}),
(177,608,o),
(208,620,o),
(235,620,cs,{
"Letterink-NibData" = {
AngleInDegrees = 90;
};
}),
(281,620,o),
(314,587,o),
(359,587,cs,{
"Letterink-NibData" = {
AngleInDegrees = 90;
};
}),
(379,587,o),
(394,588,o),
(408,593,c,{
"Letterink-NibData" = {
AngleInDegrees = 180;
};
}),
(359,208,ls,{
"Letterink-NibData" = {
AngleInDegrees = 180;
};
}),
(348,124,o),
(291,69,o),
(211,69,cs,{
"Letterink-NibData" = {
AngleInDegrees = 270;
};
}),
(131,69,o),
(90,119,o),
(103,192,c,{
"Letterink-NibData" = {
AngleInDegrees = 274.39871;
};
}),
(25,196,l,{
"Letterink-NibData" = {
AngleInDegrees = 181.88819;
};
}),
(6,73,o),
(76,-7,o),
(206,-7,cs,{
"Letterink-NibData" = {
AngleInDegrees = 90;
};
})
);
}
);
width = 507;
},
{
anchors = (
{
name = bottom;
pos = (271,0);
},
{
name = top;
pos = (287,684);
}
);
background = {
shapes = (
{
closed = 1;
nodes = (
(373,-6,o),
(447,68,o),
(447,184,cs),
(447,688,l,{
"Letterink-NibData" = {
AngleInDegrees = "270";
};
}),
(402,688,l,{
"Letterink-NibData" = {
AngleInDegrees = "209.35776";
};
}),
(392,677,o),
(365,670,o),
(343,670,cs,{
"Letterink-NibData" = {
AngleInDegrees = "270";
};
}),
(325,670,o),
(283,697,o),
(235,697,cs,{
"Letterink-NibData" = {
AngleInDegrees = "270";
};
}),
(193,697,o),
(170,690,o),
(153,673,c,{
"Letterink-NibData" = {
AngleInDegrees = "153.43495";
};
}),
(169,641,l,{
"Letterink-NibData" = {
AngleInDegrees = 70.82098999999999;
};
}),
(175,647,o),
(189,662,o),
(235,662,cs,{
"Letterink-NibData" = {
AngleInDegrees = "90";
};
}),
(289,662,o),
(308,635,o),
(341,635,cs,{
"Letterink-NibData" = {
AngleInDegrees = "90";
};
}),
(368,635,o),
(392,639,o),
(409,650,c,{
"Letterink-NibData" = {
AngleInDegrees = "180";
};
}),
(409,187,ls,{
"Letterink-NibData" = {
AngleInDegrees = "180";
};
}),
(409,90,o),
(351,30,o),
(260,30,cs,{
"Letterink-NibData" = {
AngleInDegrees = "270";
};
}),
(168,30,o),
(116,83,o),
(114,156,c,{
"Letterink-NibData" = {
AngleInDegrees = "275.5722";
};
}),
(77,156,l,{
"Letterink-NibData" = {
AngleInDegrees = "176.71075";
};
}),
(84,58,o),
(154,-6,o),
(257,-6,cs,{
"Letterink-NibData" = {
AngleInDegrees = "90";
};
})
);
}
);
};
layerId = "49C16FD3-6177-408B-A733-AEB3898BB77C";
shapes = (
{
closed = 1;
nodes = (
(319,-6,o),
(406,71,o),
(421,193,cs),
(481,688,l,{
"Letterink-NibData" = {
AngleInDegrees = "270";
};
}),
(436,689,l,{
"Letterink-NibData" = {
AngleInDegrees = "209.35776";
};
}),
(424,672,o),
(395,660,o),
(372,660,cs,{
"Letterink-NibData" = {
AngleInDegrees = "270";
};
}),
(332,660,o),
(277,696,o),
(233,696,cs,{
"Letterink-NibData" = {
AngleInDegrees = "270";
};
}),
(209,696,o),
(184,696,o),
(135,672,c,{
"Letterink-NibData" = {
AngleInDegrees = "153.43495";
};
}),
(149,640,l,{
"Letterink-NibData" = {
AngleInDegrees = 70.82098999999999;
};
}),
(168,650,o),
(197,661,o),
(228,661,cs,{
"Letterink-NibData" = {
AngleInDegrees = "90";
};
}),
(291,661,o),
(305,625,o),
(369,625,cs,{
"Letterink-NibData" = {
AngleInDegrees = "90";
};
}),
(396,625,o),
(420,631,o),
(439,649,c,{
"Letterink-NibData" = {
AngleInDegrees = "180";
};
}),
(383,198,ls,{
"Letterink-NibData" = {
AngleInDegrees = "180";
};
}),
(370,95,o),
(300,30,o),
(202,30,cs,{
"Letterink-NibData" = {
AngleInDegrees = "270";
};
}),
(101,30,o),
(57,88,o),
(64,167,c,{
"Letterink-NibData" = {
AngleInDegrees = "275.5722";
};
}),
(28,169,l,{
"Letterink-NibData" = {
AngleInDegrees = "176.71075";
};
}),
(22,63,o),
(84,-6,o),
(198,-6,cs,{
"Letterink-NibData" = {
AngleInDegrees = "90";
};
})
);
}
);
width = 500;
},
{
anchors = (
{
name = bottom;
pos = (268,0);
},
{
name = top;
pos = (327,684);
}
);
layerId = m004;
shapes = (
{
closed = 1;
nodes = (
(374,-22,o),
(476,66,o),
(494,213,cs),
(554,697,l,{
"Letterink-NibData" = {
AngleInDegrees = 270;
};
}),
(445,700,l,{
"Letterink-NibData" = {
AngleInDegrees = 211.6075;
};
}),
(427,685,o),
(400,674,o),
(374,674,cs,{
"Letterink-NibData" = {
AngleInDegrees = 270;
};
}),
(338,674,o),
(302,696,o),
(231,696,cs,{
"Letterink-NibData" = {
AngleInDegrees = 270;
};
}),
(179,696,o),
(146,688,o),
(95,655,c,{
"Letterink-NibData" = {
AngleInDegrees = 153.09391;
};
}),
(153,519,l,{
"Letterink-NibData" = {
AngleInDegrees = 67.52057;
};
}),
(179,532,o),
(210,541,o),
(240,541,cs,{
"Letterink-NibData" = {
AngleInDegrees = 90;
};
}),
(278,541,o),
(300,524,o),
(333,524,cs,{
"Letterink-NibData" = {
AngleInDegrees = 90;
};
}),
(351,524,o),
(366,526,o),
(370,530,c,{
"Letterink-NibData" = {
AngleInDegrees = 180;
};
}),
(330,224,ls,{
"Letterink-NibData" = {
AngleInDegrees = 180;
};
}),
(324,176,o),
(287,130,o),
(229,130,cs,{
"Letterink-NibData" = {
AngleInDegrees = 270;
};
}),
(174,130,o),
(148,164,o),
(157,233,c,{
"Letterink-NibData" = {
AngleInDegrees = 274.39871;
};
}),
(3,241,l,{
"Letterink-NibData" = {
AngleInDegrees = 181.88819;
};
}),
(-25,98,o),
(56,-22,o),
(224,-22,cs,{
"Letterink-NibData" = {
AngleInDegrees = 90;
};
})
);
}
);
width = 546;
}
);
metricRight = "=H*.9";
unicode = 74;
userData = {
position = 333;
width = 53;
};
},
